<?xml version="1.0" encoding="utf-8"?>
<!-- Generator: Adobe Illustrator 16.0.0, SVG Export Plug-In . SVG Version: 6.00 Build 0)  -->
<!DOCTYPE svg PUBLIC "-//W3C//DTD SVG 1.1//EN" "http://www.w3.org/Graphics/SVG/1.1/DTD/svg11.dtd">
<svg version="1.1" xmlns="http://www.w3.org/2000/svg" xmlns:xlink="http://www.w3.org/1999/xlink" x="0px" y="0px"
	 width="979.167px" height="825px" viewBox="0 0 979.167 825" enable-background="new 0 0 979.167 825" xml:space="preserve">
<g>
	<polygon fill="#FFA800" stroke="#000000" stroke-width="1.2668" stroke-linejoin="round" points="113.846,730.557 105.549,754.602 
		155.19,754.602 145.909,731.401 	"/>
	<polygon fill="#FFA800" stroke="#000000" stroke-width="1.2668" stroke-linejoin="round" points="147.737,691.321 147.456,690.057 
		147.174,688.79 146.893,686.963 146.612,685.696 145.909,683.87 145.346,683.026 144.362,681.758 143.237,680.495 142.534,679.227 
		141.268,678.383 139.721,677.401 138.596,676.838 137.331,675.852 135.502,675.29 134.237,674.87 132.409,674.307 131.143,674.307 
		129.596,674.026 127.768,674.307 126.502,674.307 124.956,674.87 123.409,675.29 121.862,675.852 120.315,676.838 119.049,677.401 
		117.924,678.383 116.377,679.227 115.393,680.495 114.831,681.758 113.846,683.026 112.862,683.87 112.581,685.696 
		111.737,686.963 111.315,688.79 111.315,690.057 111.034,691.321 111.315,693.151 111.315,694.696 111.737,695.963 
		112.581,697.508 112.862,699.057 113.846,699.901 114.831,701.446 115.393,702.713 116.377,703.696 117.924,704.821 
		119.049,705.807 120.315,706.37 121.862,707.071 123.409,707.633 124.956,708.338 126.502,708.338 127.768,708.901 
		129.596,708.901 131.143,708.901 132.409,708.338 134.237,708.338 135.502,707.633 137.331,707.071 138.596,706.37 
		139.721,705.807 141.268,704.821 142.534,703.696 143.237,702.713 144.362,701.446 145.346,699.901 145.909,699.057 
		146.612,697.508 146.893,695.963 147.174,694.696 147.456,693.151 	"/>
	<polygon fill="#FFA800" stroke="#000000" stroke-width="1.2668" stroke-linejoin="round" points="147.737,736.04 147.737,734.776 
		147.737,733.227 147.174,731.682 146.893,730.133 146.19,728.588 145.627,727.463 144.362,726.196 143.518,725.213 
		142.534,723.665 141.268,723.102 140.143,722.12 138.877,721.276 137.612,720.29 135.784,720.008 134.518,719.446 132.971,719.026 
		131.424,718.745 129.877,718.745 128.049,718.745 126.502,719.026 125.237,719.446 123.409,720.008 122.143,720.29 
		120.315,721.276 119.471,722.12 118.206,723.102 116.94,723.665 115.674,725.213 114.831,726.196 114.127,727.463 113.565,728.588 
		112.581,730.133 112.018,731.682 111.737,733.227 111.315,734.776 111.315,736.04 111.315,737.588 111.737,739.133 
		112.018,740.401 112.581,742.227 113.565,743.495 114.127,744.758 114.831,746.307 115.674,747.151 116.94,748.133 
		118.206,749.682 119.471,750.245 120.315,751.227 122.143,751.79 123.409,752.071 125.237,752.776 126.502,753.057 
		128.049,753.057 129.877,753.62 131.424,753.057 132.971,753.057 134.518,752.776 135.784,752.071 137.612,751.79 138.877,751.227 
		140.143,750.245 141.268,749.682 142.534,748.133 143.518,747.151 144.362,746.307 145.627,744.758 146.19,743.495 
		146.893,742.227 147.174,740.401 147.737,739.133 147.737,737.588 	"/>
	
		<rect x="111.034" y="692.588" fill="#FFA800" stroke="#000000" stroke-width="1.2668" stroke-linejoin="round" width="34.875" height="44.438"/>
	
		<rect x="110.471" y="691.321" fill="#FFA800" stroke="#000000" stroke-width="1.2668" stroke-linejoin="round" width="37.688" height="1.83"/>
	
		<rect x="111.034" y="736.04" fill="#FFA800" stroke="#000000" stroke-width="1.2668" stroke-linejoin="round" width="37.688" height="1.83"/>
	
		<line fill="none" stroke="#A80000" stroke-width="7.875" stroke-linejoin="round" x1="418.44" y1="631.415" x2="560.471" y2="508.508"/>
	<polyline fill="none" stroke="#FFA800" stroke-width="7.875" stroke-linejoin="round" points="466.252,660.383 563.846,493.745 
		818.096,155.401 952.956,9.713 964.206,18.713 862.534,189.713 608.565,530.727 469.065,665.727 393.409,647.165 554.846,508.227 	
		"/>
	<polygon fill="#A80000" stroke="#000000" stroke-width="1.2668" stroke-linejoin="round" points="64.768,755.446 49.581,783.008 
		69.971,783.008 78.409,783.008 77.143,755.446 	"/>
	
		<rect x="64.768" y="751.508" fill="#A80000" stroke="#000000" stroke-width="1.2668" stroke-linejoin="round" width="443.531" height="20.955"/>
	<polygon fill="#FFA800" stroke="#000000" stroke-width="1.2668" stroke-linejoin="round" points="23.143,783.008 23.143,688.508 
		16.674,652.651 102.737,652.651 102.737,754.883 64.768,754.883 49.018,785.12 23.143,785.12 	"/>
	
		<rect x="136.346" y="674.026" fill="#FFA800" stroke="#000000" stroke-width="1.2668" stroke-linejoin="round" width="19.828" height="69.469"/>
	
		<rect x="152.377" y="630.852" fill="#A89187" stroke="#000000" stroke-width="1.2668" stroke-linejoin="round" width="5.344" height="123.469"/>
	<polygon fill="#00A0C6" stroke="#000000" stroke-width="1.2668" stroke-linejoin="round" points="20.612,655.182 26.518,685.415 
		38.471,685.415 38.471,655.182 	"/>
	
		<rect x="42.549" y="655.182" fill="#00A0C6" stroke="#000000" stroke-width="1.2668" stroke-linejoin="round" width="18.281" height="30.232"/>
	
		<line fill="none" stroke="#A80000" stroke-width="1.2668" stroke-linejoin="round" x1="40.44" y1="685.415" x2="40.44" y2="778.37"/>
	
		<line fill="none" stroke="#FFFF54" stroke-width="7.875" stroke-linejoin="round" x1="60.831" y1="656.165" x2="102.737" y2="656.165"/>
	<polygon fill="#FFA800" stroke="#000000" stroke-width="1.2668" stroke-linejoin="round" points="176.565,754.321 176.565,669.102 
		255.456,628.602 454.581,628.602 493.112,666.29 493.112,754.321 	"/>
	<polyline fill="none" stroke="#A80000" stroke-width="1.2668" stroke-linejoin="round" points="65.331,656.446 65.331,751.227 
		103.018,751.227 	"/>
	<polyline fill="none" stroke="#FFFF54" stroke-width="1.2668" stroke-linejoin="round" points="65.331,751.227 62.659,751.227 
		47.471,782.307 23.143,782.307 	"/>
	
		<rect x="8.659" y="753.62" fill="#FFA800" stroke="#000000" stroke-width="1.2668" stroke-linejoin="round" width="13.781" height="38.25"/>
	
		<line fill="none" stroke="#A80000" stroke-width="7.875" stroke-linejoin="round" x1="10.206" y1="788.213" x2="20.331" y2="788.213"/>
	
		<rect x="502.393" y="751.508" fill="#FFA800" stroke="#000000" stroke-width="1.2668" stroke-linejoin="round" width="14.203" height="37.969"/>
	
		<line fill="none" stroke="#A80000" stroke-width="7.875" stroke-linejoin="round" x1="504.221" y1="785.682" x2="513.784" y2="785.682"/>
	<polyline fill="none" stroke="#A80000" stroke-width="1.2668" stroke-linejoin="round" points="487.909,750.526 487.909,666.852 
		452.471,633.526 425.19,633.526 425.19,740.963 	"/>
	
		<line fill="none" stroke="#A80000" stroke-width="1.2668" stroke-linejoin="round" x1="454.581" y1="636.338" x2="454.581" y2="741.946"/>
	
		<rect x="342.784" y="724.651" fill="#FFA800" stroke="#A80000" stroke-width="1.2668" stroke-linejoin="round" width="5.625" height="6.188"/>
	
		<rect x="462.596" y="733.932" fill="#FFA800" stroke="#A80000" stroke-width="1.2668" stroke-linejoin="round" width="4.078" height="2.67"/>
	
		<rect x="457.674" y="738.571" fill="#FFA800" stroke="#A80000" stroke-width="1.2668" stroke-linejoin="round" width="9" height="2.111"/>
	
		<rect x="311.002" y="698.352" fill="#FFA800" stroke="#A80000" stroke-width="1.2668" stroke-linejoin="round" width="8.438" height="3.094"/>
	
		<rect x="413.237" y="657.995" fill="#FFA800" stroke="#A80000" stroke-width="1.2668" stroke-linejoin="round" width="8.578" height="5.201"/>
	<polyline fill="none" stroke="#A89187" stroke-width="1.2668" stroke-linejoin="round" points="253.909,533.54 925.252,16.745 
		937.346,10.696 944.94,10.276 951.831,10.696 946.206,30.946 920.331,48.946 917.237,42.057 916.252,35.588 248.706,549.29 
		251.518,551.821 917.237,39.383 917.237,44.87 920.331,50.495 935.096,41.495 920.331,50.495 918.081,43.04 916.252,36.571 
		917.237,30.102 245.612,544.088 	"/>
	<polygon fill="#FFA800" stroke="#A80000" stroke-width="1.2668" stroke-linejoin="round" points="300.596,755.87 318.456,747.151 
		463.159,747.151 480.174,755.165 	"/>
	<polygon fill="#FFA800" stroke="#FFFF54" stroke-width="1.2668" stroke-linejoin="round" points="318.174,747.151 298.346,756.995 
		292.581,756.995 290.331,756.995 317.612,744.057 464.424,744.057 489.174,756.151 481.44,756.151 463.862,747.151 	"/>
	<polygon fill="#FFA800" stroke="#FFFF54" stroke-width="1.2668" stroke-linejoin="round" points="17.799,756.151 17.518,755.87 
		17.518,755.446 17.237,755.165 16.956,754.883 16.674,754.883 16.252,754.883 16.252,754.602 15.69,754.602 15.409,754.602 
		15.127,754.602 14.143,754.321 13.862,754.321 13.581,754.321 13.299,754.321 12.877,754.321 12.596,754.602 12.034,754.602 
		11.752,754.602 11.049,754.602 11.049,754.883 10.768,754.883 10.206,754.883 9.784,755.165 9.502,755.165 9.502,755.446 
		9.502,755.87 9.221,756.151 9.221,756.432 9.221,756.713 9.502,756.713 9.502,756.995 9.502,757.415 9.784,757.415 10.206,757.415 
		10.768,757.977 11.049,757.977 11.049,758.258 11.752,758.258 12.034,758.258 12.596,758.258 12.877,758.54 13.299,758.54 
		13.581,758.54 13.862,758.54 14.143,758.54 15.127,758.258 15.409,758.258 15.69,758.258 16.252,758.258 16.252,757.977 
		16.674,757.977 16.956,757.415 17.237,757.415 17.518,757.415 17.518,756.995 17.518,756.713 17.799,756.713 17.799,756.432 	"/>
	<polygon fill="#FFA800" points="408.877,434.12 398.049,422.165 419.987,404.588 431.096,416.821 	"/>
	<polygon fill="none" stroke="#A80000" stroke-width="1.2668" stroke-linejoin="round" points="408.877,434.12 398.049,422.165 
		419.987,404.588 431.096,416.821 	"/>
	
		<line fill="none" stroke="#A80000" stroke-width="1.2668" stroke-linejoin="round" x1="225.924" y1="644.633" x2="225.924" y2="753.901"/>
	
		<line fill="none" stroke="#FFFF54" stroke-width="1.5" stroke-linecap="round" stroke-linejoin="round" x1="225.924" y1="732.665" x2="425.893" y2="732.665"/>
	
		<line fill="none" stroke="#A80000" stroke-width="1.2668" stroke-linejoin="round" x1="339.831" y1="629.307" x2="339.831" y2="732.665"/>
	
		<line fill="none" stroke="#FFFF54" stroke-width="1.2668" stroke-linejoin="round" x1="339.831" y1="666.571" x2="425.893" y2="666.571"/>
	
		<line fill="none" stroke="#FFFF54" stroke-width="1.2668" stroke-linejoin="round" x1="225.924" y1="719.446" x2="177.127" y2="719.446"/>
	<polygon fill="#A89187" stroke="#A80000" stroke-width="1.2668" stroke-linejoin="round" points="248.143,651.102 320.565,651.102 
		318.174,648.432 249.69,648.432 	"/>
	<polygon fill="#A89187" stroke="#A80000" stroke-width="1.2668" stroke-linejoin="round" points="248.143,658.557 320.565,658.557 
		318.174,655.463 249.971,655.463 	"/>
	<polygon fill="#A89187" stroke="#A80000" stroke-width="1.2668" stroke-linejoin="round" points="248.143,666.008 320.565,666.008 
		318.174,663.196 249.971,663.196 	"/>
	<polygon fill="#A89187" stroke="#A80000" stroke-width="1.2668" stroke-linejoin="round" points="248.143,673.745 320.565,673.745 
		318.174,670.651 249.971,670.651 	"/>
	<polygon fill="#A89187" stroke="#A80000" stroke-width="1.2668" stroke-linejoin="round" points="248.143,680.776 320.565,680.776 
		318.174,677.963 249.971,677.963 	"/>
	<polygon fill="#A89187" stroke="#A80000" stroke-width="1.2668" stroke-linejoin="round" points="248.143,688.508 320.565,688.508 
		318.174,685.415 249.971,685.415 	"/>
	<polygon fill="#A89187" stroke="#A80000" stroke-width="1.2668" stroke-linejoin="round" points="248.143,695.682 320.565,695.682 
		318.174,692.87 249.971,692.87 	"/>
	
		<rect x="427.159" y="634.508" fill="#FFA800" stroke="#A80000" stroke-width="1.2668" stroke-linejoin="round" width="25.313" height="32.768"/>
	<polygon fill="#FFA800" stroke="#FFFF54" stroke-width="1.2668" stroke-linejoin="round" points="456.409,639.151 457.112,667.276 
		486.362,667.276 456.409,638.87 	"/>
	
		<rect x="456.409" y="668.821" fill="#FFA800" stroke="#A80000" stroke-width="1.2668" stroke-linejoin="round" width="29.391" height="36"/>
	
		<rect x="446.846" y="670.651" fill="#FFA800" stroke="#A80000" stroke-width="1.2668" stroke-linejoin="round" width="3.094" height="7.313"/>
	<polygon fill="#FFA800" stroke="#000000" stroke-width="1.2668" stroke-linejoin="round" points="245.612,550.557 245.612,633.807 
		252.081,630.852 252.081,559.415 320.565,628.602 329.284,628.602 250.252,548.727 	"/>
	<polygon fill="#FFA800" stroke="#000000" stroke-width="1.2668" stroke-linejoin="round" points="241.956,544.088 240.409,553.37 
		251.518,560.401 257.987,556.463 255.877,547.182 244.768,543.102 	"/>
	<polygon fill="#A89187" stroke="#000000" stroke-width="1.2668" stroke-linejoin="round" points="266.565,538.182 266.565,537.196 
		266.565,536.633 266.284,536.071 266.284,535.37 266.002,535.088 265.721,534.526 265.44,534.102 265.018,533.54 264.737,532.977 
		264.174,532.696 263.893,531.995 262.909,531.995 262.627,531.713 261.924,531.432 261.362,531.432 260.799,531.151 
		260.096,531.151 259.534,530.727 258.549,531.151 257.987,531.151 257.706,531.432 257.002,531.432 256.44,531.713 
		255.877,531.995 255.456,531.995 254.612,532.696 254.331,532.977 253.627,533.54 253.346,534.102 253.346,534.526 
		252.784,535.088 252.784,535.37 252.362,536.071 252.362,536.633 252.362,537.196 252.362,538.182 252.362,538.463 
		252.362,539.165 252.362,539.727 252.784,540.29 252.784,540.713 253.346,541.276 253.346,542.258 253.627,542.54 254.331,542.821 
		254.612,543.102 255.456,543.383 255.877,543.807 256.44,544.37 257.002,544.37 257.706,544.651 257.987,544.651 258.549,544.651 
		259.534,544.651 260.096,544.651 260.799,544.651 261.362,544.651 261.924,544.37 262.627,544.37 262.909,543.807 263.893,543.383 
		264.174,543.102 264.737,542.821 265.018,542.54 265.44,542.258 265.721,541.276 266.002,540.713 266.284,540.29 266.284,539.727 
		266.565,539.165 266.565,538.463 	"/>
	<polygon fill="#FFA800" stroke="#000000" stroke-width="1.2668" stroke-linejoin="round" points="537.268,538.463 461.612,636.057 
		486.362,659.54 572.846,566.307 	"/>
	<polygon fill="#A89187" stroke="#000000" stroke-width="1.2668" stroke-linejoin="round" points="928.065,273.946 937.909,304.463 
		943.393,306.713 950.002,305.727 959.565,275.495 	"/>
	<polyline fill="none" stroke="#A89187" stroke-width="1.2668" stroke-linecap="round" stroke-linejoin="round" points="
		966.596,51.338 960.69,274.508 956.752,273.946 962.659,49.79 925.252,50.495 932.987,273.946 929.331,273.946 919.065,48.946 
		929.331,50.495 934.815,273.946 953.659,270.29 959.565,49.79 	"/>
	<path fill="#9B7B70" stroke="#000000" stroke-width="2" stroke-linecap="round" stroke-linejoin="round" d="M970.674,36.852
		c-0.133-21.686-13.614-26.333-27.844-26.156s-27.191,11.4-27.141,26.156C915.809,71.339,971.307,66.288,970.674,36.852z"/>
	<polygon stroke="#A89187" stroke-width="7.875" stroke-linejoin="round" points="961.393,272.963 961.112,271.415 961.112,270.29 
		960.69,268.745 959.846,267.196 959.565,265.932 958.581,264.665 958.018,263.401 957.034,262.557 956.471,261.571 
		954.924,260.727 953.659,259.463 952.674,258.758 951.127,258.196 950.002,257.915 948.456,257.213 946.909,256.932 
		945.643,256.651 943.393,256.651 942.268,256.651 941.002,256.932 939.456,257.213 937.909,257.915 936.643,258.196 
		935.096,258.758 933.831,259.463 932.987,260.727 931.44,261.571 930.456,262.557 929.893,263.401 928.909,264.665 
		928.346,265.932 927.362,267.196 927.081,268.745 926.799,270.29 926.799,271.415 926.518,272.963 926.799,274.227 
		926.799,275.495 927.081,277.321 927.362,278.588 928.346,279.852 928.909,281.401 929.893,282.245 930.456,283.227 
		931.44,284.495 932.987,285.338 933.831,286.321 935.096,286.883 936.643,287.588 937.909,288.151 939.456,288.432 
		941.002,289.133 942.268,289.415 943.393,289.415 945.643,289.415 946.909,289.133 948.456,288.432 950.002,288.151 
		951.127,287.588 952.674,286.883 953.659,286.321 954.924,285.338 956.471,284.495 957.034,283.227 958.018,282.245 
		958.581,281.401 959.565,279.852 959.846,278.588 960.69,277.321 961.112,275.495 961.112,274.227 	"/>
	<polygon fill="#A89187" stroke="#FFFFFF" stroke-width="1.2668" stroke-linejoin="round" points="947.19,273.946 947.19,273.665 
		947.19,273.383 947.19,272.963 947.19,272.401 946.909,272.12 946.909,271.838 946.487,271.415 946.206,271.415 946.206,271.133 
		945.924,271.133 945.643,270.852 945.362,270.571 944.94,270.571 944.659,270.571 943.815,270.571 943.393,270.571 
		943.112,270.571 942.831,270.571 942.549,270.571 942.268,270.852 941.846,271.133 941.565,271.133 941.284,271.415 
		941.002,271.838 941.002,272.12 940.721,272.401 940.44,272.963 940.44,273.383 940.44,273.665 940.44,273.946 940.44,274.227 
		940.44,274.508 940.721,274.932 940.721,275.213 941.002,275.495 941.284,275.776 941.284,276.057 941.565,276.477 
		941.846,276.477 942.268,276.477 942.549,277.04 942.831,277.04 943.112,277.04 943.393,277.321 943.815,277.321 944.659,277.04 
		944.94,277.04 945.362,277.04 945.643,276.477 945.924,276.477 946.206,276.477 946.206,276.057 946.487,275.776 946.909,275.495 
		947.19,275.213 947.19,274.932 947.19,274.508 947.19,274.227 	"/>
	<polygon fill="#FFA800" stroke="#000000" stroke-width="1.2668" stroke-linejoin="round" points="950.565,306.713 950.565,306.008 
		950.565,305.446 950.284,304.463 950.002,303.901 949.581,303.338 949.299,302.915 949.299,302.352 948.737,302.071 
		948.456,301.37 947.471,300.807 947.19,300.526 946.487,300.245 945.924,299.821 945.643,299.54 944.94,299.54 944.377,299.258 
		943.393,299.258 942.831,299.258 942.268,299.258 941.565,299.258 941.002,299.54 940.44,299.54 940.018,299.821 938.893,300.245 
		938.471,300.526 937.909,300.807 937.627,301.37 936.924,302.071 936.643,302.352 936.362,302.915 936.081,303.338 
		935.377,303.901 935.377,304.463 935.377,305.446 935.096,306.008 935.096,306.713 935.096,306.995 935.377,307.557 
		935.377,308.258 935.377,308.821 936.081,309.383 936.362,310.088 936.643,310.37 936.924,310.932 937.627,311.352 
		937.909,311.915 938.471,312.196 938.893,312.477 940.018,312.901 940.44,313.182 941.002,313.182 941.565,313.745 
		942.268,313.745 942.831,313.745 943.393,313.745 944.377,313.745 944.94,313.182 945.643,313.182 945.924,312.901 
		946.487,312.477 947.19,312.196 947.471,311.915 948.456,311.352 948.737,310.932 949.299,310.37 949.299,310.088 949.581,309.383 
		950.002,308.821 950.284,308.258 950.565,307.557 950.565,306.995 	"/>
	<polygon fill="#FFA800" stroke="#000000" stroke-width="1.2668" stroke-linejoin="round" points="954.924,303.62 954.502,302.633 
		954.502,302.071 954.221,300.807 953.94,300.245 953.659,299.258 953.377,298.276 952.956,297.713 952.393,296.727 
		951.549,296.165 950.846,295.602 950.284,295.182 949.299,294.62 948.456,294.338 947.471,294.057 946.487,293.633 
		945.643,293.633 944.94,293.352 943.393,293.352 942.831,293.352 941.846,293.633 941.002,293.633 940.44,294.057 939.174,294.338 
		938.471,294.62 937.627,295.182 936.924,295.602 936.362,296.165 935.377,296.727 934.815,297.713 934.534,298.276 
		933.831,299.258 933.549,300.245 933.268,300.807 933.268,302.071 932.987,302.633 932.987,303.62 932.987,304.463 
		933.268,305.446 933.268,306.29 933.549,307.276 933.831,307.557 934.534,308.54 934.815,309.807 935.377,310.37 936.362,310.932 
		936.924,311.352 937.627,311.915 938.471,312.477 939.174,312.901 940.44,313.182 941.002,313.745 941.846,313.745 
		942.831,314.026 943.393,314.026 944.94,314.026 945.643,313.745 946.487,313.745 947.471,313.182 948.456,312.901 
		949.299,312.477 950.284,311.915 950.846,311.352 951.549,310.932 952.393,310.37 952.956,309.807 953.377,308.54 953.659,307.557 
		953.94,307.276 954.221,306.29 954.502,305.446 954.502,304.463 	"/>
	<polygon fill="#A89187" stroke="#000000" stroke-width="1.2668" stroke-linejoin="round" points="936.924,310.088 933.831,321.196 
		931.159,324.852 929.331,330.758 929.331,338.213 934.815,342.852 937.909,344.682 943.393,345.526 952.956,344.682 
		957.596,338.213 960.69,330.758 958.581,327.665 953.659,332.588 947.752,335.401 941.846,333.571 941.002,331.602 
		941.846,327.665 945.924,323.307 951.549,323.307 952.956,314.026 	"/>
	<polyline fill="none" stroke="#FFA800" stroke-width="7.875" stroke-linejoin="round" points="818.799,154.133 860.424,185.352 
		845.94,126.432 895.862,131.633 879.831,90.29 920.893,89.307 910.065,57.807 936.924,57.245 923.143,48.946 	"/>
	<polygon fill="#FFA800" stroke="#000000" stroke-width="1.2668" stroke-linejoin="round" points="917.799,46.133 952.956,9.995 
		964.768,18.008 940.018,60.338 	"/>
	<polygon fill="#A89187" stroke="#000000" stroke-width="1.2668" stroke-linejoin="round" points="827.659,146.821 824.565,159.057 
		810.784,165.665 818.799,153.29 	"/>
	<polyline fill="none" stroke="#FFA800" stroke-width="7.875" stroke-linejoin="round" points="865.346,186.338 795.596,186.338 
		814.159,254.258 741.877,258.196 757.627,331.602 686.612,336.245 693.784,411.338 624.315,415.696 633.315,495.852 
		565.112,503.588 599.706,542.258 	"/>
	
		<line fill="none" stroke="#FFA800" stroke-width="7.875" stroke-linejoin="round" x1="557.096" y1="506.401" x2="572.143" y2="565.04"/>
	
		<line fill="none" stroke="#FFA800" stroke-width="7.875" stroke-linejoin="round" x1="545.565" y1="538.463" x2="598.159" y2="540.008"/>
	
		<line fill="none" stroke="#FFA800" stroke-width="7.875" stroke-linejoin="round" x1="537.971" y1="538.182" x2="596.893" y2="539.446"/>
	<polygon fill="#A89187" stroke="#000000" stroke-width="1.2668" stroke-linejoin="round" points="565.956,490.932 566.94,498.665 
		567.784,506.682 562.581,507.946 553.721,510.758 561.315,496.557 	"/>
	<polygon fill="#A89187" stroke="#000000" stroke-width="1.2668" stroke-linejoin="round" points="591.268,550.276 591.549,542.258 
		591.971,534.526 597.174,534.102 607.018,532.977 596.19,545.352 	"/>
	<polygon fill="#A89187" stroke="#000000" stroke-width="1.2668" stroke-linejoin="round" points="857.049,197.446 858.034,184.79 
		869.987,175.79 864.784,189.432 	"/>
	
		<line fill="none" stroke="#A80000" stroke-width="7.875" stroke-linejoin="round" x1="25.956" y1="694.977" x2="35.799" y2="694.977"/>
	
		<line fill="none" stroke="#A80000" stroke-width="7.875" stroke-linejoin="round" x1="25.956" y1="698.352" x2="35.799" y2="698.352"/>
	
		<line fill="none" stroke="#A80000" stroke-width="7.875" stroke-linejoin="round" x1="25.956" y1="701.727" x2="35.799" y2="701.727"/>
	
		<line fill="none" stroke="#A80000" stroke-width="7.875" stroke-linejoin="round" x1="25.956" y1="705.245" x2="35.799" y2="705.245"/>
	
		<line fill="none" stroke="#A80000" stroke-width="7.875" stroke-linejoin="round" x1="25.956" y1="707.915" x2="35.799" y2="707.915"/>
	
		<line fill="none" stroke="#A80000" stroke-width="7.875" stroke-linejoin="round" x1="25.956" y1="711.29" x2="35.799" y2="711.29"/>
	<polygon stroke="#A89187" stroke-width="1.2668" stroke-linejoin="round" points="101.19,758.54 104.002,758.54 107.377,758.963 
		110.471,759.807 113.284,760.79 115.956,761.915 118.768,763.883 121.581,765.432 123.409,767.821 125.518,770.352 
		127.487,772.745 129.034,775.557 129.877,778.37 130.862,781.182 131.143,784.276 131.424,787.651 131.143,790.321 
		130.862,793.415 129.877,796.508 129.034,799.321 127.487,801.852 125.518,804.526 123.409,807.057 121.581,808.883 
		118.768,810.995 115.956,812.963 113.284,813.807 110.471,815.352 107.377,816.057 104.002,816.62 101.19,816.62 97.815,816.62 
		94.44,816.057 91.065,815.352 88.534,813.807 85.44,812.963 83.049,810.995 80.518,808.883 77.987,807.057 76.44,804.526 
		74.331,801.852 73.065,799.321 71.94,796.508 70.956,793.415 70.393,790.321 70.393,787.651 70.393,784.276 70.956,781.182 
		71.94,778.37 73.065,775.557 74.331,772.745 76.44,770.352 77.987,767.821 80.518,765.432 83.049,763.883 85.44,761.915 
		88.534,760.79 91.065,759.807 94.44,758.963 97.815,758.54 	"/>
	<polygon stroke="#FFFFFF" stroke-width="1.2668" stroke-linejoin="round" points="119.471,787.651 119.471,785.682 
		119.049,784.557 118.768,783.008 118.487,781.463 117.924,779.915 117.221,778.651 115.956,777.102 115.112,776.12 
		114.127,774.995 112.862,774.008 111.315,772.745 110.19,772.182 108.924,771.196 107.096,770.915 105.549,770.352 
		104.002,770.352 102.456,770.071 100.909,770.071 99.081,770.071 97.815,770.352 95.706,770.352 94.159,770.915 92.893,771.196 
		91.346,772.182 90.081,772.745 88.815,774.008 87.268,774.995 86.424,776.12 85.44,777.102 84.596,778.651 84.174,779.915 
		83.049,781.463 82.627,783.008 82.346,784.557 82.065,785.682 82.065,787.651 82.065,789.196 82.346,790.745 82.627,792.29 
		83.049,793.415 84.174,794.963 84.596,796.508 85.44,797.776 86.424,799.321 87.268,800.307 88.815,801.151 90.081,802.133 
		91.346,802.977 92.893,803.682 94.159,804.245 95.706,804.946 97.815,804.946 99.081,805.227 100.909,805.227 102.456,805.227 
		104.002,804.946 105.549,804.946 107.096,804.245 108.924,803.682 110.19,802.977 111.315,802.133 112.862,801.151 
		114.127,800.307 115.112,799.321 115.956,797.776 117.221,796.508 117.924,794.963 118.487,793.415 118.768,792.29 
		119.049,790.745 119.471,789.196 	"/>
	<polygon points="123.409,766.276 120.877,765.432 119.049,765.432 117.221,765.432 115.393,766.276 113.846,767.258 
		111.737,768.102 110.471,768.807 113.846,770.633 114.127,769.088 114.831,768.102 115.956,767.54 117.924,767.258 
		119.471,766.557 120.877,766.557 122.846,766.977 124.393,767.258 	"/>
	<polygon stroke="#A89187" stroke-width="1.2668" stroke-linejoin="round" points="114.127,769.37 114.127,770.352 113.846,770.633 
		114.127,770.915 114.409,770.915 114.409,770.633 115.112,770.352 115.674,769.37 117.502,768.807 119.049,768.526 
		120.315,768.526 122.143,768.526 123.409,768.807 123.971,768.807 124.393,768.807 125.237,769.37 125.237,768.807 
		125.518,768.807 125.94,768.102 125.518,767.54 124.956,767.258 123.971,766.977 123.127,766.557 121.862,766.557 120.315,766.557 
		119.471,766.977 117.924,767.258 115.956,767.54 115.112,768.102 114.409,768.807 	"/>
	<polygon points="101.752,756.995 99.362,758.258 98.096,759.526 96.831,760.79 95.706,762.62 95.284,763.883 94.721,766.276 
		94.159,767.54 97.815,766.557 97.112,765.432 97.112,764.165 97.815,763.182 98.377,761.352 99.081,760.088 99.924,758.963 
		101.752,757.977 103.018,756.995 103.018,756.713 	"/>
	<polygon stroke="#A89187" stroke-width="1.2668" stroke-linejoin="round" points="97.534,765.995 97.815,766.276 97.815,766.557 
		98.377,766.557 98.659,766.557 98.377,766.276 98.377,765.432 98.659,764.446 99.362,762.901 99.924,761.915 101.19,760.79 
		102.456,759.526 103.299,758.963 104.002,758.54 104.565,758.258 105.549,758.258 105.268,757.977 105.268,757.415 
		105.268,756.995 104.002,756.432 103.299,756.713 102.456,757.415 101.752,757.415 100.909,758.54 99.924,759.245 99.362,760.088 
		98.096,761.352 97.815,762.901 97.112,764.165 97.112,765.008 	"/>
	<polygon points="132.971,786.946 131.424,784.557 130.581,783.571 129.034,782.307 127.487,781.182 125.518,780.758 
		123.409,780.477 121.862,779.633 122.846,783.29 123.971,782.727 125.237,782.727 126.502,783.008 128.049,783.571 
		129.877,784.557 130.862,785.12 131.706,786.946 132.971,788.213 133.252,788.213 	"/>
	<polygon stroke="#A89187" stroke-width="1.2668" stroke-linejoin="round" points="123.69,783.008 123.409,783.008 122.846,783.29 
		122.846,783.571 122.846,783.852 123.409,783.571 123.971,783.571 125.237,783.852 126.784,784.557 127.768,785.12 
		129.034,786.383 130.159,787.651 130.862,788.495 131.424,788.776 131.424,789.477 131.424,790.321 131.987,789.758 
		132.409,789.758 132.971,789.758 133.252,789.196 132.971,788.495 132.409,787.651 131.987,786.946 131.424,785.682 
		130.581,785.12 129.877,784.557 128.049,783.571 126.784,783.008 125.518,782.727 124.393,782.727 	"/>
	<polygon points="124.393,807.62 125.237,805.227 125.237,803.682 124.956,801.852 123.971,800.307 123.409,799.04 122.143,796.932 
		121.581,795.383 119.752,799.04 120.877,799.321 122.143,799.883 122.846,800.87 123.409,802.133 123.69,803.963 123.971,805.227 
		123.971,807.338 123.409,808.602 123.409,808.883 	"/>
	<polygon stroke="#A89187" stroke-width="1.2668" stroke-linejoin="round" points="120.315,799.321 120.034,799.321 119.752,799.04 
		119.471,799.321 119.752,799.321 120.034,799.883 120.315,800.588 121.581,802.133 121.862,803.682 122.143,804.946 
		122.143,806.776 121.862,808.04 121.862,808.602 121.862,808.883 121.299,809.588 121.581,809.588 121.862,809.87 122.143,809.87 
		123.127,809.87 123.409,808.883 123.69,808.321 123.971,807.62 123.971,806.071 123.971,804.946 123.69,803.963 123.409,802.133 
		122.846,801.151 122.143,799.883 121.299,799.321 	"/>
	<polygon points="82.065,763.883 80.799,765.995 80.237,767.54 79.534,769.37 80.237,771.196 80.518,772.745 81.502,774.995 
		81.784,776.12 84.174,773.446 83.049,773.026 82.065,772.182 81.784,770.915 81.784,769.088 81.784,767.54 81.784,766.276 
		82.346,764.165 83.049,763.182 83.049,762.901 	"/>
	<polygon stroke="#A89187" stroke-width="1.2668" stroke-linejoin="round" points="83.049,773.026 83.612,773.026 84.174,773.446 
		84.596,773.026 84.877,773.026 84.596,772.745 84.174,772.463 83.612,771.196 83.049,770.071 83.049,768.526 83.331,767.258 
		84.174,765.432 84.596,764.165 84.596,763.883 85.159,763.463 85.44,762.901 85.159,762.62 84.877,762.62 84.596,762.338 
		83.612,762.338 83.049,762.901 82.627,763.463 82.346,764.165 82.065,765.008 81.784,766.557 81.784,767.54 81.784,769.088 
		81.784,770.633 82.065,771.901 82.627,772.745 	"/>
	<polygon points="69.127,783.571 69.69,785.682 70.956,787.227 72.502,788.776 73.346,789.477 75.315,790.321 77.424,791.307 
		78.69,792.29 77.987,788.495 77.143,788.776 75.877,788.776 74.612,788.213 73.065,787.227 71.94,786.383 70.393,785.12 
		69.69,783.571 69.127,782.307 68.846,782.307 	"/>
	<polygon stroke="#A89187" stroke-width="1.2668" stroke-linejoin="round" points="77.424,788.495 77.706,788.495 77.987,788.213 
		77.987,787.932 77.987,787.651 77.706,787.651 77.143,787.651 76.44,787.227 74.612,786.383 73.346,785.401 72.502,784.838 
		71.237,783.29 70.956,782.307 70.393,781.463 70.393,781.182 70.393,780.196 69.971,780.477 69.69,780.477 69.409,780.477 
		68.846,781.182 69.127,782.307 69.127,783.008 69.409,783.571 69.971,784.557 70.956,785.12 71.94,786.383 73.065,787.651 
		74.331,788.213 75.315,788.495 76.862,788.776 	"/>
	<polygon points="106.393,816.057 107.377,815.352 108.924,814.088 109.768,812.54 110.471,810.995 110.471,809.588 
		110.752,807.338 111.315,805.508 107.659,807.338 108.924,808.321 108.924,809.165 108.924,810.713 107.94,812.258 
		107.377,813.526 106.393,815.071 105.549,816.057 105.831,816.338 	"/>
	<polygon stroke="#A89187" stroke-width="1.2668" stroke-linejoin="round" points="108.643,808.04 107.94,807.62 107.659,807.338 
		107.377,807.338 107.096,807.338 107.377,807.62 107.377,808.321 107.096,809.165 106.815,810.995 106.112,812.258 
		105.549,813.245 104.002,814.79 103.299,815.352 102.456,816.057 101.471,816.338 101.752,816.62 102.737,816.62 103.299,816.62 
		104.002,816.62 104.565,816.62 105.268,816.62 105.831,815.352 106.815,814.79 107.096,813.526 107.94,812.258 108.643,810.995 
		108.924,809.588 108.924,808.602 	"/>
	<polygon fill="#FFA800" stroke="#A80000" stroke-width="1.2668" stroke-linejoin="round" points="115.674,787.227 115.674,785.682 
		115.393,784.838 115.393,783.571 115.112,782.307 114.409,781.182 113.846,779.915 113.284,778.932 112.581,778.37 
		111.315,777.102 110.471,776.12 109.206,775.557 107.94,774.995 107.096,774.29 105.831,773.446 104.565,773.026 103.299,772.745 
		102.174,772.745 100.909,772.745 99.362,772.745 98.096,772.745 96.831,773.026 95.284,773.446 94.159,774.29 93.174,774.995 
		91.627,775.557 90.643,776.12 90.081,777.102 89.096,778.37 88.534,778.932 87.268,779.915 86.987,781.182 86.424,782.307 
		86.002,783.571 85.721,784.838 85.44,785.682 85.44,787.227 85.44,788.495 85.721,789.758 86.002,791.026 86.424,792.29 
		86.987,793.133 87.268,794.682 88.534,795.665 89.096,796.508 90.081,797.495 90.643,798.057 91.627,799.321 93.174,799.883 
		94.159,800.307 95.284,800.87 96.831,801.151 98.096,801.432 99.362,801.432 100.909,801.852 102.174,801.432 103.299,801.432 
		104.565,801.151 105.831,800.87 107.096,800.307 107.94,799.883 109.206,799.321 110.471,798.057 111.315,797.495 112.581,796.508 
		113.284,795.665 113.846,794.682 114.409,793.133 115.112,792.29 115.393,791.026 115.393,789.758 115.674,788.495 	"/>
	<polygon stroke="#A80000" stroke-width="1.2668" stroke-linejoin="round" points="111.034,787.227 111.034,786.383 111.034,785.12 
		110.752,784.838 110.471,783.852 110.19,783.29 109.768,782.307 109.206,781.463 108.924,780.758 107.94,780.196 107.377,779.633 
		106.815,779.213 105.831,778.651 105.268,778.37 104.002,778.37 103.299,777.665 102.456,777.383 101.752,777.383 100.909,777.383 
		99.643,777.383 98.659,777.383 98.096,777.665 97.112,778.37 96.549,778.37 95.284,778.651 94.721,779.213 94.159,779.633 
		93.456,780.196 92.893,780.758 92.19,781.463 91.627,782.307 91.065,783.29 90.643,783.852 90.643,784.838 90.362,785.12 
		90.362,786.383 90.362,787.227 90.362,788.213 90.362,788.776 90.643,789.758 90.643,790.745 91.065,791.588 91.627,792.29 
		92.19,792.852 92.893,793.415 93.456,794.401 94.159,794.963 94.721,795.383 95.284,795.946 96.549,796.227 97.112,796.508 
		98.096,796.932 98.659,796.932 99.643,797.213 100.909,797.213 101.752,797.213 102.456,796.932 103.299,796.932 104.002,796.508 
		105.268,796.227 105.831,795.946 106.815,795.383 107.377,794.963 107.94,794.401 108.924,793.415 109.206,792.852 109.768,792.29 
		110.19,791.588 110.471,790.745 110.752,789.758 111.034,788.776 111.034,788.213 	"/>
	<polygon fill="none" stroke="#A80000" stroke-width="1.2668" stroke-linejoin="round" points="113.846,787.651 113.846,786.383 
		113.846,785.12 113.565,783.852 112.862,783.29 112.581,782.307 112.018,781.182 111.315,780.196 110.471,779.633 110.19,778.37 
		109.206,777.665 107.94,777.102 107.096,776.12 106.112,775.838 105.268,775.557 104.002,775.276 102.737,774.995 101.752,774.995 
		100.627,774.995 99.362,774.995 98.377,774.995 97.112,775.276 96.268,775.557 94.721,775.838 93.737,776.12 93.174,777.102 
		91.627,777.665 91.065,778.37 90.362,779.633 89.799,780.196 89.096,781.182 88.534,782.307 88.252,783.29 87.549,783.852 
		87.268,785.12 87.268,786.383 87.268,787.651 87.268,788.495 87.268,789.477 87.549,790.745 88.252,791.87 88.534,792.852 
		89.096,793.838 89.799,794.682 90.362,795.665 91.065,796.508 91.627,797.213 93.174,797.776 93.737,798.057 94.721,799.04 
		96.268,799.321 97.112,799.602 98.377,799.883 99.362,799.883 100.627,800.307 101.752,799.883 102.737,799.883 104.002,799.602 
		105.268,799.321 106.112,799.04 107.096,798.057 107.94,797.776 109.206,797.213 110.19,796.508 110.471,795.665 111.315,794.682 
		112.018,793.838 112.581,792.852 112.862,791.87 113.565,790.745 113.846,789.477 113.846,788.495 	"/>
	<polygon fill="#FFA800" stroke="#A80000" stroke-width="1.2668" stroke-linejoin="round" points="109.206,787.227 108.924,786.665 
		108.924,785.682 108.924,785.12 108.643,784.557 107.94,783.852 107.659,783.571 107.377,783.008 106.815,782.307 106.393,781.463 
		105.831,781.182 105.549,780.758 104.846,780.477 104.002,780.196 103.299,779.915 102.737,779.633 102.174,779.633 
		101.471,779.633 100.909,779.633 99.924,779.633 99.362,779.633 98.377,779.633 97.815,779.915 97.112,780.196 96.549,780.477 
		96.268,780.758 95.284,781.182 94.721,781.463 94.159,782.307 94.159,783.008 93.456,783.571 93.174,783.852 93.174,784.557 
		92.893,785.12 92.612,785.682 92.612,786.665 92.612,787.227 92.612,787.932 92.612,788.495 92.893,789.196 93.174,789.758 
		93.174,790.745 93.456,791.307 94.159,791.87 94.159,792.29 94.721,792.852 95.284,793.133 96.268,793.415 96.549,794.401 
		97.112,794.682 97.815,794.682 98.377,794.963 99.362,794.963 99.924,795.383 100.909,795.383 101.471,795.383 102.174,794.963 
		102.737,794.963 103.299,794.682 104.002,794.682 104.846,794.401 105.549,793.415 105.831,793.133 106.393,792.852 
		106.815,792.29 107.377,791.87 107.659,791.307 107.94,790.745 108.643,789.758 108.924,789.196 108.924,788.495 108.924,787.932 	
		"/>
	<polygon points="76.44,805.227 78.69,806.071 80.518,807.057 82.627,807.057 84.174,807.057 86.002,806.071 88.252,805.227 
		89.799,804.946 86.424,802.696 86.002,803.682 85.159,804.526 84.174,804.946 82.065,805.227 80.518,805.508 78.69,805.227 
		77.143,804.946 75.315,804.245 75.315,804.526 	"/>
	<polygon stroke="#A89187" stroke-width="1.2668" stroke-linejoin="round" points="86.002,803.682 86.424,803.401 86.424,802.696 
		86.002,802.133 86.002,802.696 85.44,802.977 84.596,803.401 82.627,803.682 81.502,803.682 79.534,803.682 77.987,803.682 
		76.862,802.977 76.44,802.977 75.877,802.696 75.315,801.852 74.893,802.133 74.612,802.696 74.331,802.977 74.612,803.682 
		75.315,804.245 76.159,804.526 76.862,804.946 77.987,805.227 79.252,805.227 80.518,805.227 82.065,805.227 83.612,804.946 
		84.877,804.526 85.721,803.963 	"/>
	<polygon stroke="#A89187" stroke-width="1.2668" stroke-linejoin="round" points="194.987,758.54 197.799,758.54 201.174,758.963 
		204.268,759.807 207.362,760.79 209.893,761.915 212.565,763.883 215.377,765.432 217.206,767.821 219.456,770.352 
		221.284,772.745 222.831,775.557 223.674,778.37 224.659,781.182 224.94,784.276 225.221,787.651 224.94,790.321 224.659,793.415 
		223.674,796.508 222.831,799.321 221.284,801.852 219.456,804.526 217.206,807.057 215.377,808.883 212.565,810.995 
		209.893,812.963 207.362,813.807 204.268,815.352 201.174,816.057 197.799,816.62 194.987,816.62 191.612,816.62 188.237,816.057 
		185.143,815.352 182.331,813.807 179.518,812.963 176.846,810.995 174.596,808.883 172.206,807.057 170.377,804.526 
		168.127,801.852 166.862,799.321 166.018,796.508 165.034,793.415 164.19,790.321 164.19,787.651 164.19,784.276 165.034,781.182 
		166.018,778.37 166.862,775.557 168.127,772.745 170.377,770.352 172.206,767.821 174.596,765.432 176.846,763.883 
		179.518,761.915 182.331,760.79 185.143,759.807 188.237,758.963 191.612,758.54 	"/>
	<polygon stroke="#FFFFFF" stroke-width="1.2668" stroke-linejoin="round" points="213.268,787.651 213.268,785.682 
		213.268,784.557 212.565,783.008 212.284,781.463 211.721,779.915 211.018,778.651 209.893,777.102 208.909,776.12 
		207.924,774.995 206.799,774.008 205.252,772.745 203.987,772.182 202.721,771.196 200.893,770.915 199.627,770.352 
		197.799,770.352 196.252,770.071 194.706,770.071 192.877,770.071 191.612,770.352 189.502,770.352 188.237,770.915 
		186.971,771.196 185.143,772.182 183.877,772.745 182.612,774.008 181.065,774.995 180.221,776.12 179.237,777.102 
		178.674,778.651 178.112,779.915 176.846,781.463 176.565,783.008 176.143,784.557 175.862,785.682 175.581,787.651 
		175.862,789.196 176.143,790.745 176.565,792.29 176.846,793.415 178.112,794.963 178.674,796.508 179.237,797.776 
		180.221,799.321 181.065,800.307 182.612,801.151 183.877,802.133 185.143,802.977 186.971,803.682 188.237,804.245 
		189.502,804.946 191.612,804.946 192.877,805.227 194.706,805.227 196.252,805.227 197.799,804.946 199.627,804.946 
		200.893,804.245 202.721,803.682 203.987,802.977 205.252,802.133 206.799,801.151 207.924,800.307 208.909,799.321 
		209.893,797.776 211.018,796.508 211.721,794.963 212.284,793.415 212.565,792.29 213.268,790.745 213.268,789.196 	"/>
	<polygon points="216.924,766.276 214.815,765.432 212.987,765.432 211.018,765.432 209.19,766.276 207.643,767.258 
		205.815,768.102 204.268,768.807 207.643,770.633 207.924,769.088 208.627,768.102 209.893,767.54 211.721,767.258 
		213.268,766.557 214.815,766.557 216.643,766.977 218.19,767.258 218.752,767.258 	"/>
	<polygon stroke="#A89187" stroke-width="1.2668" stroke-linejoin="round" points="207.924,769.37 207.924,770.352 207.643,770.633 
		208.346,770.915 208.346,770.633 208.909,770.352 209.471,769.37 211.44,768.807 212.987,768.526 213.831,768.526 215.94,768.526 
		217.206,768.807 217.909,768.807 218.19,768.807 219.034,769.37 219.456,768.807 219.737,768.102 219.456,767.54 218.752,767.258 
		217.909,766.977 216.924,766.557 215.659,766.557 214.815,766.557 213.268,766.977 211.721,767.258 209.893,767.54 
		208.909,768.102 208.346,768.807 	"/>
	<polygon points="195.69,756.995 193.159,758.258 191.893,759.526 190.627,760.79 189.502,762.62 189.221,763.883 188.799,766.276 
		187.674,767.54 191.612,766.557 191.331,765.432 191.049,764.165 191.612,763.182 192.174,761.352 193.159,760.088 
		194.143,758.963 195.69,757.977 196.815,756.995 197.237,756.713 	"/>
	<polygon stroke="#A89187" stroke-width="1.2668" stroke-linejoin="round" points="191.331,765.995 191.612,766.276 
		191.893,766.557 192.174,766.557 192.596,766.557 192.174,766.276 192.174,765.432 192.596,764.446 193.159,762.901 
		194.143,761.915 194.987,760.79 196.252,759.526 197.518,758.963 197.799,758.54 198.784,758.258 199.346,758.258 199.065,757.977 
		199.065,757.415 199.065,756.995 197.799,756.432 197.237,756.713 196.252,757.415 195.69,757.415 194.706,758.54 194.143,759.245 
		193.159,760.088 191.893,761.352 191.612,762.901 191.331,764.165 191.331,765.008 	"/>
	<polygon points="226.768,786.946 225.221,784.557 224.377,783.571 222.831,782.307 221.284,781.182 219.456,780.758 
		216.924,780.477 215.659,779.633 216.924,783.29 217.909,782.727 219.456,782.727 220.299,783.008 221.846,783.571 
		223.674,784.557 224.94,785.12 225.924,786.946 226.768,788.213 227.049,788.213 	"/>
	<polygon stroke="#A89187" stroke-width="1.2668" stroke-linejoin="round" points="217.487,783.008 216.924,783.008 216.924,783.29 
		216.924,783.571 216.924,783.852 216.924,783.571 217.909,783.571 218.752,783.852 220.581,784.557 221.565,785.12 
		222.831,786.383 224.096,787.651 224.94,788.495 224.94,788.776 225.221,789.477 225.221,790.321 225.924,789.758 226.206,789.758 
		226.768,789.758 227.471,789.196 226.768,788.495 226.206,787.651 225.924,786.946 224.94,785.682 224.377,785.12 223.674,784.557 
		221.846,783.571 220.581,783.008 219.456,782.727 218.19,782.727 	"/>
	<polygon points="218.19,807.62 219.034,805.227 219.034,803.682 218.752,801.852 217.909,800.307 216.924,799.04 215.94,796.932 
		215.377,795.383 213.549,799.04 214.815,799.321 215.94,799.883 216.643,800.87 216.924,802.133 217.487,803.963 217.909,805.227 
		217.909,807.338 217.206,808.602 217.206,808.883 	"/>
	<polygon stroke="#A89187" stroke-width="1.2668" stroke-linejoin="round" points="214.815,799.321 213.831,799.321 213.549,799.04 
		213.268,799.321 213.549,799.321 213.831,799.883 214.815,800.588 215.377,802.133 215.659,803.682 215.94,804.946 215.94,806.776 
		215.659,808.04 215.659,808.602 215.659,808.883 215.096,809.588 215.659,809.588 215.659,809.87 216.362,809.87 216.924,809.87 
		217.206,808.883 217.487,808.321 217.909,807.62 217.909,806.071 217.909,804.946 217.487,803.963 216.924,802.133 
		216.643,801.151 215.94,799.883 215.096,799.321 	"/>
	<polygon points="175.581,763.883 174.596,765.995 174.034,767.54 174.034,769.37 174.034,771.196 174.596,772.745 175.299,774.995 
		175.299,776.12 178.112,773.446 176.846,773.026 176.143,772.182 175.581,770.915 175.581,769.088 175.299,767.54 175.581,766.276 
		176.143,764.165 176.846,763.182 176.846,762.901 	"/>
	<polygon stroke="#A89187" stroke-width="1.2668" stroke-linejoin="round" points="177.127,773.026 177.409,773.026 
		178.112,773.446 178.393,773.026 178.674,773.026 178.112,772.745 178.112,772.463 177.409,771.196 177.127,770.071 
		177.127,768.526 177.127,767.258 178.112,765.432 178.393,764.165 178.674,763.883 178.956,763.463 179.518,762.901 
		178.956,762.62 178.674,762.338 177.409,762.338 176.846,762.901 176.565,763.463 176.143,764.165 175.581,765.008 
		175.581,766.557 175.581,767.54 175.299,769.088 175.581,770.633 176.143,771.901 176.565,772.745 	"/>
	<polygon points="162.924,783.571 163.487,785.682 164.752,787.227 166.018,788.776 167.565,789.477 169.112,790.321 
		171.221,791.307 172.487,792.29 172.206,788.495 170.94,788.776 169.674,788.776 168.127,788.213 166.862,787.227 165.737,786.383 
		164.19,785.12 163.487,783.571 162.924,782.307 162.643,782.307 	"/>
	<polygon stroke="#A89187" stroke-width="1.2668" stroke-linejoin="round" points="171.221,788.495 171.502,788.495 
		171.924,788.213 172.206,787.932 172.206,787.651 171.502,787.651 171.221,787.651 170.377,787.227 168.127,786.383 
		167.565,785.401 166.581,784.838 165.034,783.29 164.752,782.307 164.19,781.463 164.19,781.182 164.19,780.196 163.909,780.477 
		163.487,780.477 163.206,780.477 162.643,781.182 162.924,782.307 162.924,783.008 163.206,783.571 164.19,784.557 164.752,785.12 
		165.737,786.383 166.862,787.651 168.127,788.213 169.112,788.495 170.659,788.776 	"/>
	<polygon points="200.331,816.057 201.174,815.352 202.721,814.088 203.706,812.54 204.268,810.995 204.268,809.588 
		204.831,807.338 205.252,805.508 201.456,807.338 202.721,808.321 202.721,809.165 202.721,810.713 201.877,812.258 
		201.174,813.526 200.331,815.071 199.346,816.057 199.627,816.338 199.909,816.338 	"/>
	<polygon stroke="#A89187" stroke-width="1.2668" stroke-linejoin="round" points="202.44,808.04 201.877,807.62 201.456,807.338 
		201.174,807.338 200.893,807.338 201.174,807.62 201.174,808.321 201.174,809.165 200.893,810.995 199.909,812.258 
		199.346,813.245 197.799,814.79 197.237,815.352 196.252,816.057 195.268,816.338 195.69,816.62 196.534,816.62 196.815,816.62 
		197.237,816.62 197.799,816.62 198.784,816.62 199.065,816.62 199.909,815.352 200.331,814.79 201.174,813.526 201.877,812.258 
		202.721,810.995 202.721,809.588 202.721,808.602 	"/>
	<polygon fill="#FFA800" stroke="#A80000" stroke-width="1.2668" stroke-linejoin="round" points="209.471,787.227 209.471,785.682 
		209.19,784.838 209.19,783.571 208.909,782.307 208.346,781.182 207.643,779.915 207.362,778.932 206.377,778.37 205.252,777.102 
		204.268,776.12 203.284,775.557 202.44,774.995 200.893,774.29 199.627,773.446 198.784,773.026 197.237,772.745 195.971,772.745 
		194.706,772.745 193.159,772.745 191.893,772.745 191.049,773.026 189.221,773.446 188.237,774.29 186.971,774.995 
		186.127,775.557 184.862,776.12 183.877,777.102 182.612,778.37 182.331,778.932 181.065,779.915 180.784,781.182 180.221,782.307 
		179.94,783.571 179.518,784.838 179.518,785.682 179.237,787.227 179.518,788.495 179.518,789.758 179.94,791.026 180.221,792.29 
		180.784,793.133 181.065,794.682 182.331,795.665 182.612,796.508 183.877,797.495 184.862,798.057 186.127,799.321 
		186.971,799.883 188.237,800.307 189.221,800.87 191.049,801.151 191.893,801.432 193.159,801.432 194.706,801.852 
		195.971,801.432 197.237,801.432 198.784,801.151 199.627,800.87 200.893,800.307 202.44,799.883 203.284,799.321 204.268,798.057 
		205.252,797.495 206.377,796.508 207.362,795.665 207.643,794.682 208.346,793.133 208.909,792.29 209.19,791.026 209.19,789.758 
		209.471,788.495 	"/>
	<polygon stroke="#A80000" stroke-width="1.2668" stroke-linejoin="round" points="204.831,787.227 204.831,786.383 204.831,785.12 
		204.549,784.838 204.268,783.852 203.987,783.29 203.706,782.307 203.002,781.463 202.721,780.758 201.877,780.196 
		201.174,779.633 200.331,779.213 199.627,778.651 199.065,778.37 197.799,778.37 197.237,777.665 196.252,777.383 195.69,777.383 
		194.706,777.383 194.143,777.383 192.877,777.383 191.893,777.665 191.331,778.37 190.065,778.37 189.221,778.651 188.518,779.213 
		187.674,779.633 187.252,780.196 186.69,780.758 186.127,781.463 185.424,782.307 185.143,783.29 184.862,783.852 184.581,784.838 
		184.159,785.12 184.159,786.383 184.159,787.227 184.159,788.213 184.159,788.776 184.581,789.758 184.862,790.745 
		185.143,791.588 185.424,792.29 186.127,792.852 186.69,793.415 187.252,794.401 187.674,794.963 188.518,795.383 189.221,795.946 
		190.065,796.227 191.331,796.508 191.893,796.932 192.877,796.932 194.143,797.213 194.706,797.213 195.69,797.213 
		196.252,796.932 197.237,796.932 197.799,796.508 199.065,796.227 199.627,795.946 200.331,795.383 201.174,794.963 
		201.877,794.401 202.721,793.415 203.002,792.852 203.706,792.29 203.987,791.588 204.268,790.745 204.549,789.758 
		204.831,788.776 204.831,788.213 	"/>
	<polygon fill="none" stroke="#A80000" stroke-width="1.2668" stroke-linejoin="round" points="207.643,787.651 207.643,786.383 
		207.643,785.12 207.362,783.852 206.799,783.29 206.799,782.307 205.815,781.182 204.831,780.196 204.268,779.633 203.706,778.37 
		203.002,777.665 201.877,777.102 200.893,776.12 199.909,775.838 199.065,775.557 197.799,775.276 196.815,774.995 195.69,774.995 
		194.424,774.995 193.159,774.995 192.174,774.995 191.049,775.276 190.065,775.557 188.799,775.838 187.674,776.12 
		186.971,777.102 186.127,777.665 184.862,778.37 184.159,779.633 183.596,780.196 182.612,781.182 182.331,782.307 182.049,783.29 
		181.487,783.852 181.065,785.12 181.065,786.383 181.065,787.651 181.065,788.495 181.065,789.477 181.487,790.745 182.049,791.87 
		182.331,792.852 182.612,793.838 183.596,794.682 184.159,795.665 184.862,796.508 186.127,797.213 186.971,797.776 
		187.674,798.057 188.799,799.04 190.065,799.321 191.049,799.602 192.174,799.883 193.159,799.883 194.424,800.307 195.69,799.883 
		196.815,799.883 197.799,799.602 199.065,799.321 199.909,799.04 200.893,798.057 201.877,797.776 203.002,797.213 
		203.706,796.508 204.268,795.665 204.831,794.682 205.815,793.838 206.799,792.852 206.799,791.87 207.362,790.745 
		207.643,789.477 207.643,788.495 	"/>
	<polygon fill="#FFA800" stroke="#A80000" stroke-width="1.2668" stroke-linejoin="round" points="202.721,787.227 202.721,786.665 
		202.721,785.682 202.721,785.12 202.44,784.557 201.877,783.852 201.456,783.571 201.174,783.008 200.893,782.307 200.331,781.463 
		199.909,781.182 199.346,780.758 199.065,780.477 197.799,780.196 197.518,779.915 196.815,779.633 195.971,779.633 
		195.268,779.633 194.706,779.633 194.143,779.633 193.159,779.633 192.174,779.633 191.612,779.915 191.331,780.196 
		190.346,780.477 190.065,780.758 189.221,781.182 188.799,781.463 188.237,782.307 187.674,783.008 187.252,783.571 
		187.252,783.852 186.971,784.557 186.69,785.12 186.409,785.682 186.409,786.665 186.409,787.227 186.409,787.932 186.409,788.495 
		186.69,789.196 186.971,789.758 187.252,790.745 187.252,791.307 187.674,791.87 188.237,792.29 188.799,792.852 189.221,793.133 
		190.065,793.415 190.346,794.401 191.331,794.682 191.612,794.682 192.174,794.963 193.159,794.963 194.143,795.383 
		194.706,795.383 195.268,795.383 195.971,794.963 196.815,794.963 197.518,794.682 197.799,794.682 199.065,794.401 
		199.346,793.415 199.909,793.133 200.331,792.852 200.893,792.29 201.174,791.87 201.456,791.307 201.877,790.745 202.44,789.758 
		202.721,789.196 202.721,788.495 202.721,787.932 	"/>
	<polygon points="170.377,805.227 172.487,806.071 174.596,807.057 176.143,807.057 178.112,807.057 179.94,806.071 
		182.049,805.227 183.596,804.946 180.221,802.696 179.94,803.682 178.956,804.526 178.112,804.946 175.862,805.227 
		174.315,805.508 172.487,805.227 170.94,804.946 169.112,804.245 169.112,804.526 	"/>
	<polygon stroke="#A89187" stroke-width="1.2668" stroke-linejoin="round" points="180.221,803.682 180.221,803.401 
		180.221,802.696 180.221,802.133 179.94,802.133 179.94,802.696 179.237,802.977 178.393,803.401 176.565,803.682 175.299,803.682 
		174.034,803.682 171.924,803.682 170.659,802.977 170.377,802.977 169.674,802.696 169.112,801.852 168.831,802.133 
		168.409,802.696 168.127,802.977 168.127,803.682 169.112,804.245 169.956,804.526 170.659,804.946 171.924,805.227 
		173.049,805.227 174.315,805.227 176.143,805.227 177.409,804.946 178.956,804.526 179.518,803.963 	"/>
	<polygon stroke="#A89187" stroke-width="1.2668" stroke-linejoin="round" points="321.549,758.54 324.643,758.54 327.737,758.963 
		330.831,759.807 333.924,760.79 336.315,761.915 339.409,763.883 341.94,765.432 343.768,767.821 345.877,770.352 347.846,772.745 
		349.393,775.557 350.237,778.37 351.221,781.182 351.502,784.276 351.784,787.651 351.502,790.321 351.221,793.415 
		350.237,796.508 349.393,799.321 347.846,801.852 345.877,804.526 343.768,807.057 341.94,808.883 339.409,810.995 
		336.315,812.963 333.924,813.807 330.831,815.352 327.737,816.057 324.643,816.62 321.549,816.62 318.174,816.62 314.799,816.057 
		311.706,815.352 308.893,813.807 305.799,812.963 303.409,810.995 301.159,808.883 298.768,807.057 296.799,804.526 
		294.69,801.852 293.424,799.321 292.299,796.508 291.315,793.415 291.034,790.321 291.034,787.651 291.034,784.276 
		291.315,781.182 292.299,778.37 293.424,775.557 294.69,772.745 296.799,770.352 298.768,767.821 301.159,765.432 303.409,763.883 
		305.799,761.915 308.893,760.79 311.706,759.807 314.799,758.963 318.174,758.54 	"/>
	<polygon stroke="#FFFFFF" stroke-width="1.2668" stroke-linejoin="round" points="339.831,787.651 339.831,785.682 
		339.409,784.557 339.409,783.008 338.846,781.463 338.284,779.915 337.581,778.651 336.315,777.102 335.471,776.12 
		334.487,774.995 333.221,774.008 331.674,772.745 330.549,772.182 329.284,771.196 327.456,770.915 325.909,770.352 
		324.643,770.352 322.815,770.071 321.268,770.071 319.44,770.071 318.174,770.352 316.065,770.352 314.518,770.915 
		313.534,771.196 311.706,772.182 310.44,772.745 309.174,774.008 307.627,774.995 306.784,776.12 305.799,777.102 305.237,778.651 
		304.534,779.915 303.409,781.463 302.987,783.008 302.706,784.557 302.424,785.682 302.424,787.651 302.424,789.196 
		302.706,790.745 302.987,792.29 303.409,793.415 304.534,794.963 305.237,796.508 305.799,797.776 306.784,799.321 
		307.627,800.307 309.174,801.151 310.44,802.133 311.706,802.977 313.534,803.682 314.518,804.245 316.065,804.946 
		318.174,804.946 319.44,805.227 321.268,805.227 322.815,805.227 324.643,804.946 325.909,804.946 327.456,804.245 
		329.284,803.682 330.549,802.977 331.674,802.133 333.221,801.151 334.487,800.307 335.471,799.321 336.315,797.776 
		337.581,796.508 338.284,794.963 338.846,793.415 339.409,792.29 339.409,790.745 339.831,789.196 	"/>
	<polygon points="343.768,766.276 341.377,765.432 339.409,765.432 337.581,765.432 335.752,766.276 334.206,767.258 
		332.096,768.102 330.831,768.807 334.206,770.633 334.487,769.088 335.471,768.102 336.315,767.54 338.284,767.258 
		339.831,766.557 341.377,766.557 343.206,766.977 345.034,767.258 	"/>
	<polygon stroke="#A89187" stroke-width="1.2668" stroke-linejoin="round" points="334.487,769.37 334.487,770.352 334.206,770.633 
		334.487,770.915 334.768,770.915 334.768,770.633 335.471,770.352 336.034,769.37 337.862,768.807 339.409,768.526 
		340.956,768.526 342.502,768.526 343.768,768.807 344.331,768.807 345.034,768.807 345.596,769.37 345.877,768.807 
		346.299,768.102 345.877,767.54 345.315,767.258 344.331,766.977 343.487,766.557 342.221,766.557 340.956,766.557 
		339.831,766.977 338.284,767.258 336.315,767.54 335.471,768.102 334.768,768.807 	"/>
	<polygon points="322.112,756.995 319.721,758.258 318.456,759.526 317.19,760.79 316.065,762.62 315.643,763.883 315.362,766.276 
		314.518,767.54 318.174,766.557 317.893,765.432 317.612,764.165 318.174,763.182 318.737,761.352 319.44,760.088 320.565,758.963 
		322.112,757.977 323.377,756.995 323.377,756.713 	"/>
	<polygon stroke="#A89187" stroke-width="1.2668" stroke-linejoin="round" points="317.893,765.995 318.174,766.276 
		318.456,766.557 318.737,766.557 319.159,766.557 318.737,766.276 318.737,765.432 319.159,764.446 319.721,762.901 
		320.565,761.915 321.549,760.79 322.815,759.526 323.659,758.963 324.643,758.54 324.924,758.258 325.909,758.258 325.627,757.977 
		325.627,757.415 325.627,756.995 324.643,756.432 323.659,756.713 322.815,757.415 322.112,757.415 321.268,758.54 
		320.565,759.245 319.721,760.088 318.737,761.352 318.174,762.901 317.893,764.165 317.893,765.008 	"/>
	<polygon points="353.331,786.946 351.784,784.557 350.94,783.571 349.393,782.307 347.846,781.182 345.877,780.758 
		343.768,780.477 342.221,779.633 343.487,783.29 344.331,782.727 345.877,782.727 346.862,783.008 348.409,783.571 
		350.237,784.557 351.502,785.12 352.065,786.946 353.331,788.213 353.612,788.213 	"/>
	<polygon stroke="#A89187" stroke-width="1.2668" stroke-linejoin="round" points="344.049,783.008 343.768,783.008 343.487,783.29 
		343.487,783.571 343.487,783.852 343.768,783.571 344.331,783.571 345.596,783.852 347.143,784.557 348.127,785.12 
		349.393,786.383 350.518,787.651 351.502,788.495 351.784,788.776 351.784,789.477 351.784,790.321 352.487,789.758 
		352.768,789.758 353.331,789.758 353.612,789.196 353.331,788.495 352.768,787.651 352.487,786.946 351.784,785.682 350.94,785.12 
		350.237,784.557 348.409,783.571 347.143,783.008 345.877,782.727 345.034,782.727 	"/>
	<polygon points="345.034,807.62 345.596,805.227 345.596,803.682 345.315,801.852 344.331,800.307 343.768,799.04 342.502,796.932 
		341.94,795.383 340.112,799.04 341.377,799.321 342.502,799.883 343.206,800.87 343.768,802.133 344.049,803.963 344.331,805.227 
		344.331,807.338 343.768,808.602 343.768,808.883 	"/>
	<polygon stroke="#A89187" stroke-width="1.2668" stroke-linejoin="round" points="340.956,799.321 340.393,799.321 340.112,799.04 
		339.831,799.321 340.112,799.321 340.393,799.883 340.956,800.588 341.94,802.133 342.221,803.682 342.502,804.946 
		342.502,806.776 342.221,808.04 342.221,808.602 342.221,808.883 341.659,809.588 342.221,809.588 342.221,809.87 342.502,809.87 
		343.487,809.87 343.768,808.883 344.049,808.321 344.331,807.62 344.331,806.071 344.331,804.946 344.049,803.963 343.768,802.133 
		343.206,801.151 342.502,799.883 341.94,799.321 	"/>
	<polygon points="302.424,763.883 301.159,765.995 300.596,767.54 300.315,769.37 300.596,771.196 301.159,772.745 301.862,774.995 
		302.143,776.12 304.534,773.446 303.409,773.026 302.706,772.182 302.143,770.915 302.143,769.088 302.143,767.54 302.143,766.276 
		302.706,764.165 303.409,763.182 303.409,762.901 	"/>
	<polygon stroke="#A89187" stroke-width="1.2668" stroke-linejoin="round" points="303.409,773.026 304.252,773.026 
		304.534,773.446 304.956,773.026 305.237,773.026 304.956,772.745 304.534,772.463 304.252,771.196 303.409,770.071 
		303.409,768.526 303.69,767.258 304.534,765.432 304.956,764.165 305.237,763.883 305.518,763.463 305.799,762.901 305.518,762.62 
		305.237,762.62 305.237,762.338 304.252,762.338 303.409,762.901 302.987,763.463 302.706,764.165 302.424,765.008 
		302.143,766.557 302.143,767.54 302.143,769.088 302.143,770.633 302.706,771.901 302.987,772.745 	"/>
	<polygon points="289.487,783.571 290.049,785.682 291.315,787.227 292.862,788.776 293.846,789.477 295.674,790.321 
		297.784,791.307 299.049,792.29 298.768,788.495 297.502,788.776 296.237,788.776 294.971,788.213 293.424,787.227 
		292.299,786.383 291.034,785.12 290.049,783.571 289.487,782.307 289.206,782.307 	"/>
	<polygon stroke="#A89187" stroke-width="1.2668" stroke-linejoin="round" points="297.784,788.495 298.065,788.495 
		298.346,788.213 298.768,787.932 298.768,787.651 298.065,787.651 297.784,787.651 296.799,787.227 294.971,786.383 
		293.846,785.401 293.143,784.838 291.877,783.29 291.315,782.307 291.034,781.463 291.034,781.182 291.034,780.196 
		290.331,780.477 290.049,780.477 289.768,780.477 289.206,781.182 289.487,782.307 289.487,783.008 289.768,783.571 
		290.752,784.557 291.315,785.12 292.299,786.383 293.424,787.651 294.69,788.213 296.237,788.495 297.221,788.776 	"/>
	<polygon points="326.752,816.057 327.737,815.352 329.284,814.088 330.268,812.54 330.831,810.995 330.831,809.588 
		331.393,807.338 331.674,805.508 328.018,807.338 329.284,808.321 329.284,809.165 329.284,810.713 328.721,812.258 
		327.737,813.526 326.752,815.071 325.909,816.057 326.19,816.338 	"/>
	<polygon stroke="#A89187" stroke-width="1.2668" stroke-linejoin="round" points="329.002,808.04 328.721,807.62 328.018,807.338 
		327.737,807.338 327.456,807.338 327.737,807.62 327.737,808.321 327.456,809.165 327.174,810.995 326.752,812.258 
		325.909,813.245 324.643,814.79 323.659,815.352 322.815,816.057 321.831,816.338 322.112,816.62 323.096,816.62 323.377,816.62 
		323.659,816.62 324.643,816.62 324.924,816.62 325.627,816.62 326.19,815.352 327.174,814.79 327.456,813.526 328.721,812.258 
		329.284,810.995 329.284,809.588 329.284,808.602 	"/>
	<polygon fill="#FFA800" stroke="#A80000" stroke-width="1.2668" stroke-linejoin="round" points="336.034,787.227 336.034,785.682 
		335.752,784.838 335.752,783.571 335.471,782.307 334.768,781.182 334.206,779.915 333.924,778.932 332.94,778.37 331.674,777.102 
		330.831,776.12 329.846,775.557 328.721,774.995 327.456,774.29 326.19,773.446 324.924,773.026 323.659,772.745 322.534,772.745 
		321.268,772.745 319.721,772.745 318.456,772.745 317.19,773.026 315.643,773.446 314.518,774.29 313.534,774.995 312.549,775.557 
		311.424,776.12 310.44,777.102 309.456,778.37 308.893,778.932 307.627,779.915 307.346,781.182 306.784,782.307 306.502,783.571 
		306.081,784.838 305.799,785.682 305.799,787.227 305.799,788.495 306.081,789.758 306.502,791.026 306.784,792.29 
		307.346,793.133 307.627,794.682 308.893,795.665 309.456,796.508 310.44,797.495 311.424,798.057 312.549,799.321 
		313.534,799.883 314.518,800.307 315.643,800.87 317.19,801.151 318.456,801.432 319.721,801.432 321.268,801.852 322.534,801.432 
		323.659,801.432 324.924,801.151 326.19,800.87 327.456,800.307 328.721,799.883 329.846,799.321 330.831,798.057 331.674,797.495 
		332.94,796.508 333.924,795.665 334.206,794.682 334.768,793.133 335.471,792.29 335.752,791.026 335.752,789.758 336.034,788.495 
			"/>
	<polygon stroke="#A80000" stroke-width="1.2668" stroke-linejoin="round" points="331.393,787.227 331.393,786.383 331.393,785.12 
		331.112,784.838 330.831,783.852 330.549,783.29 330.268,782.307 329.565,781.463 329.284,780.758 328.721,780.196 
		327.737,779.633 327.174,779.213 326.19,778.651 325.627,778.37 324.643,778.37 323.659,777.665 322.815,777.383 322.112,777.383 
		321.268,777.383 320.002,777.383 319.44,777.383 318.456,777.665 317.893,778.37 316.909,778.37 315.643,778.651 315.081,779.213 
		314.518,779.633 313.815,780.196 313.252,780.758 312.549,781.463 312.268,782.307 311.706,783.29 311.424,783.852 
		311.002,784.838 310.721,785.12 310.721,786.383 310.721,787.227 310.721,788.213 310.721,788.776 311.002,789.758 
		311.424,790.745 311.706,791.588 312.268,792.29 312.549,792.852 313.252,793.415 313.815,794.401 314.518,794.963 
		315.081,795.383 315.643,795.946 316.909,796.227 317.893,796.508 318.456,796.932 319.44,796.932 320.002,797.213 
		321.268,797.213 322.112,797.213 322.815,796.932 323.659,796.932 324.643,796.508 325.627,796.227 326.19,795.946 
		327.174,795.383 327.737,794.963 328.721,794.401 329.284,793.415 329.565,792.852 330.268,792.29 330.549,791.588 
		330.831,790.745 331.112,789.758 331.393,788.776 331.393,788.213 	"/>
	<polygon fill="none" stroke="#A80000" stroke-width="1.2668" stroke-linejoin="round" points="334.206,787.651 334.206,786.383 
		334.206,785.12 333.924,783.852 333.221,783.29 333.221,782.307 332.377,781.182 331.674,780.196 330.831,779.633 330.549,778.37 
		329.565,777.665 328.721,777.102 327.456,776.12 326.471,775.838 325.627,775.557 324.643,775.276 323.377,774.995 
		322.112,774.995 321.268,774.995 319.721,774.995 318.737,774.995 317.612,775.276 316.627,775.557 315.362,775.838 
		314.096,776.12 313.534,777.102 312.549,777.665 311.424,778.37 310.721,779.633 310.159,780.196 309.456,781.182 308.893,782.307 
		308.612,783.29 308.331,783.852 307.627,785.12 307.627,786.383 307.627,787.651 307.627,788.495 307.627,789.477 308.331,790.745 
		308.612,791.87 308.893,792.852 309.456,793.838 310.159,794.682 310.721,795.665 311.424,796.508 312.549,797.213 
		313.534,797.776 314.096,798.057 315.362,799.04 316.627,799.321 317.612,799.602 318.737,799.883 319.721,799.883 
		321.268,800.307 322.112,799.883 323.377,799.883 324.643,799.602 325.627,799.321 326.471,799.04 327.456,798.057 
		328.721,797.776 329.565,797.213 330.549,796.508 330.831,795.665 331.674,794.682 332.377,793.838 333.221,792.852 
		333.221,791.87 333.924,790.745 334.206,789.477 334.206,788.495 	"/>
	<polygon fill="#FFA800" stroke="#A80000" stroke-width="1.2668" stroke-linejoin="round" points="329.565,787.227 329.284,786.665 
		329.284,785.682 329.284,785.12 329.002,784.557 328.721,783.852 328.018,783.571 327.737,783.008 327.456,782.307 
		326.752,781.463 326.19,781.182 325.909,780.758 325.206,780.477 324.643,780.196 323.659,779.915 323.377,779.633 
		322.534,779.633 321.831,779.633 321.268,779.633 320.565,779.633 319.721,779.633 318.737,779.633 318.174,779.915 
		317.893,780.196 316.909,780.477 316.627,780.758 315.643,781.182 315.362,781.463 314.518,782.307 314.518,783.008 
		313.815,783.571 313.815,783.852 313.534,784.557 313.252,785.12 313.252,785.682 312.971,786.665 312.971,787.227 
		312.971,787.932 313.252,788.495 313.252,789.196 313.534,789.758 313.815,790.745 313.815,791.307 314.518,791.87 314.518,792.29 
		315.362,792.852 315.643,793.133 316.627,793.415 316.909,794.401 317.893,794.682 318.174,794.682 318.737,794.963 
		319.721,794.963 320.565,795.383 321.268,795.383 321.831,795.383 322.534,794.963 323.377,794.963 323.659,794.682 
		324.643,794.682 325.206,794.401 325.909,793.415 326.19,793.133 326.752,792.852 327.456,792.29 327.737,791.87 328.018,791.307 
		328.721,790.745 329.002,789.758 329.284,789.196 329.284,788.495 329.284,787.932 	"/>
	<polygon points="297.221,805.227 299.049,806.071 301.159,807.057 302.987,807.057 304.534,807.057 306.502,806.071 
		308.612,805.227 310.159,804.946 306.784,802.696 306.502,803.682 305.518,804.526 304.534,804.946 302.424,805.227 
		300.877,805.508 299.049,805.227 297.502,804.946 296.237,804.245 295.674,804.526 	"/>
	<polygon stroke="#A89187" stroke-width="1.2668" stroke-linejoin="round" points="306.784,803.682 306.784,803.401 
		306.784,802.696 306.784,802.133 306.502,802.133 306.502,802.696 305.799,802.977 304.956,803.401 302.987,803.682 
		301.862,803.682 300.315,803.682 298.346,803.682 297.221,802.977 296.799,802.977 296.237,802.696 295.674,801.852 
		295.393,802.133 294.971,802.696 294.69,802.977 294.971,803.682 295.674,804.245 296.518,804.526 297.221,804.946 
		298.346,805.227 299.612,805.227 300.877,805.227 302.706,805.227 304.252,804.946 305.237,804.526 306.081,803.963 	"/>
	<polygon stroke="#A89187" stroke-width="1.2668" stroke-linejoin="round" points="390.034,758.54 392.565,758.54 395.94,758.963 
		399.315,759.807 402.127,760.79 404.94,761.915 407.612,763.883 410.143,765.432 412.252,767.821 414.502,770.352 416.049,772.745 
		417.174,775.557 418.721,778.37 419.424,781.182 419.987,784.276 420.268,787.651 419.987,790.321 419.424,793.415 
		418.721,796.508 417.174,799.321 416.049,801.852 414.502,804.526 412.252,807.057 410.143,808.883 407.612,810.995 
		404.94,812.963 402.127,813.807 399.315,815.352 395.94,816.057 392.565,816.62 390.034,816.62 386.659,816.62 383.284,816.057 
		379.909,815.352 376.815,813.807 374.284,812.963 371.893,810.995 369.362,808.883 366.971,807.057 364.721,804.526 
		362.893,801.852 362.049,799.321 360.502,796.508 359.799,793.415 359.237,790.321 359.237,787.651 359.237,784.276 
		359.799,781.182 360.502,778.37 362.049,775.557 362.893,772.745 364.721,770.352 366.971,767.821 369.362,765.432 
		371.893,763.883 374.284,761.915 376.815,760.79 379.909,759.807 383.284,758.963 386.659,758.54 	"/>
	<polygon stroke="#FFFFFF" stroke-width="1.2668" stroke-linejoin="round" points="408.034,787.651 408.034,785.682 
		408.034,784.557 407.612,783.008 407.049,781.463 406.768,779.915 405.502,778.651 404.518,777.102 403.956,776.12 402.69,774.995 
		401.424,774.008 400.299,772.745 398.752,772.182 397.206,771.196 395.94,770.915 394.393,770.352 392.565,770.352 
		391.018,770.071 389.19,770.071 387.924,770.071 386.377,770.352 384.549,770.352 383.002,770.915 381.737,771.196 
		379.909,772.182 378.643,772.745 377.799,774.008 376.252,774.995 375.268,776.12 374.284,777.102 373.159,778.651 
		372.456,779.915 371.893,781.463 371.19,783.008 370.909,784.557 370.909,785.682 370.627,787.651 370.909,789.196 
		370.909,790.745 371.19,792.29 371.893,793.415 372.456,794.963 373.159,796.508 374.284,797.776 375.268,799.321 376.252,800.307 
		377.799,801.151 378.643,802.133 379.909,802.977 381.737,803.682 383.002,804.245 384.549,804.946 386.377,804.946 
		387.924,805.227 389.19,805.227 391.018,805.227 392.565,804.946 394.393,804.946 395.94,804.245 397.206,803.682 398.752,802.977 
		400.299,802.133 401.424,801.151 402.69,800.307 403.956,799.321 404.518,797.776 405.502,796.508 406.768,794.963 
		407.049,793.415 407.612,792.29 408.034,790.745 408.034,789.196 	"/>
	<polygon points="411.971,766.276 409.159,765.432 407.612,765.432 405.502,765.432 404.237,766.276 402.69,767.258 
		400.581,768.102 399.034,768.807 402.69,770.633 402.69,769.088 403.674,768.102 404.518,767.54 406.768,767.258 408.034,766.557 
		409.581,766.557 411.409,766.977 412.956,767.258 413.237,767.258 	"/>
	<polygon stroke="#A89187" stroke-width="1.2668" stroke-linejoin="round" points="402.69,769.37 402.69,770.352 402.69,770.633 
		402.971,770.915 402.971,770.633 403.674,770.352 404.237,769.37 406.487,768.807 407.612,768.526 408.877,768.526 
		411.127,768.526 412.252,768.807 412.674,768.807 413.237,768.807 413.518,769.37 413.799,768.807 414.502,768.807 
		414.502,768.102 414.502,767.54 413.237,767.258 412.674,766.977 411.971,766.557 410.706,766.557 409.159,766.557 
		408.034,766.977 406.487,767.258 404.94,767.54 403.956,768.102 402.971,768.807 	"/>
	<polygon points="390.737,756.995 388.206,758.258 386.94,759.526 385.815,760.79 384.549,762.62 384.268,763.883 383.565,766.276 
		382.721,767.54 386.659,766.557 386.096,765.432 386.096,764.165 386.377,763.182 386.94,761.352 387.924,760.088 388.909,758.963 
		390.737,757.977 391.581,756.995 391.862,756.713 	"/>
	<polygon stroke="#A89187" stroke-width="1.2668" stroke-linejoin="round" points="386.377,765.995 386.659,766.276 
		386.659,766.557 386.94,766.557 387.362,766.557 386.94,766.276 386.94,765.432 387.643,764.446 388.206,762.901 388.909,761.915 
		389.752,760.79 391.018,759.526 392.284,758.963 392.565,758.54 393.127,758.258 394.112,758.258 394.112,757.977 393.409,757.415 
		393.409,756.995 392.846,756.432 391.862,756.713 391.018,757.415 390.737,757.415 389.19,758.54 388.487,759.245 388.206,760.088 
		386.94,761.352 386.377,762.901 386.096,764.165 386.096,765.008 	"/>
	<polygon points="421.534,786.946 420.268,784.557 419.143,783.571 417.596,782.307 416.049,781.182 414.502,780.758 
		411.971,780.477 410.706,779.633 411.69,783.29 412.674,782.727 413.799,782.727 415.346,783.008 416.893,783.571 418.44,784.557 
		419.706,785.12 420.69,786.946 421.534,788.213 	"/>
	<polygon stroke="#A89187" stroke-width="1.2668" stroke-linejoin="round" points="412.252,783.008 411.971,783.008 411.69,783.29 
		411.69,783.571 411.69,783.852 411.971,783.571 412.674,783.571 413.518,783.852 415.627,784.557 416.612,785.12 417.596,786.383 
		419.143,787.651 419.706,788.495 419.987,788.776 420.268,789.477 420.268,790.321 420.69,789.758 420.971,789.758 
		421.534,789.758 421.815,789.196 421.534,788.495 421.252,787.651 420.971,786.946 419.987,785.682 419.424,785.12 418.44,784.557 
		416.893,783.571 415.627,783.008 414.502,782.727 412.956,782.727 	"/>
	<polygon points="413.237,807.62 413.518,805.227 413.518,803.682 413.237,801.852 412.956,800.307 411.971,799.04 410.706,796.932 
		410.143,795.383 408.315,799.04 409.581,799.321 410.706,799.883 411.409,800.87 411.971,802.133 412.252,803.963 412.674,805.227 
		412.674,807.338 412.252,808.602 412.252,808.883 	"/>
	<polygon stroke="#A89187" stroke-width="1.2668" stroke-linejoin="round" points="409.159,799.321 408.877,799.321 408.596,799.04 
		408.034,799.321 408.315,799.321 408.596,799.883 409.159,800.588 410.143,802.133 410.706,803.682 410.706,804.946 
		411.127,806.776 410.706,808.04 410.706,808.602 410.424,808.883 410.143,809.588 410.424,809.588 410.706,809.87 411.127,809.87 
		411.971,809.87 412.252,808.883 412.252,808.321 412.674,807.62 412.674,806.071 412.674,804.946 412.252,803.963 411.971,802.133 
		411.409,801.151 410.706,799.883 410.143,799.321 	"/>
	<polygon points="370.627,763.883 369.643,765.995 368.518,767.54 368.518,769.37 368.518,771.196 369.362,772.745 370.065,774.995 
		370.346,776.12 372.737,773.446 371.893,773.026 370.909,772.182 370.627,770.915 370.346,769.088 370.346,767.54 370.627,766.276 
		370.909,764.165 371.893,763.182 371.893,762.901 	"/>
	<polygon stroke="#A89187" stroke-width="1.2668" stroke-linejoin="round" points="371.893,773.026 372.174,773.026 
		372.737,773.446 373.159,773.026 372.737,772.745 372.456,772.463 372.174,771.196 371.893,770.071 371.893,768.526 
		372.174,767.258 372.456,765.432 373.159,764.165 373.159,763.883 373.721,763.463 374.284,762.901 374.002,762.62 373.159,762.62 
		373.159,762.338 372.174,762.338 371.893,762.901 371.19,763.463 370.909,764.165 370.627,765.008 370.627,766.557 370.346,767.54 
		370.346,769.088 370.627,770.633 370.909,771.901 371.612,772.745 	"/>
	<polygon points="357.69,783.571 358.534,785.682 359.518,787.227 360.784,788.776 362.331,789.477 363.877,790.321 
		366.268,791.307 367.534,792.29 366.971,788.495 365.706,788.776 364.44,788.776 363.174,788.213 362.049,787.227 360.502,786.383 
		359.237,785.12 358.252,783.571 357.971,782.307 357.69,782.307 	"/>
	<polygon stroke="#A89187" stroke-width="1.2668" stroke-linejoin="round" points="366.268,788.495 366.971,788.213 
		366.971,787.932 366.971,787.651 366.268,787.651 365.987,787.651 364.721,787.227 363.174,786.383 362.331,785.401 
		361.346,784.838 360.081,783.29 359.518,782.307 359.237,781.463 359.237,781.182 359.237,780.196 358.956,780.477 
		358.252,780.477 357.971,780.477 357.69,781.182 357.69,782.307 357.971,783.008 358.252,783.571 358.956,784.557 359.518,785.12 
		360.502,786.383 362.049,787.651 362.893,788.213 364.159,788.495 365.424,788.776 	"/>
	<polygon points="395.377,816.057 396.221,815.352 397.206,814.088 398.471,812.54 399.034,810.995 399.315,809.588 
		399.596,807.338 400.299,805.508 396.502,807.338 397.206,808.321 397.487,809.165 397.206,810.713 396.924,812.258 
		395.94,813.526 395.377,815.071 394.112,816.057 394.393,816.338 394.674,816.338 	"/>
	<polygon stroke="#A89187" stroke-width="1.2668" stroke-linejoin="round" points="396.924,808.04 396.924,807.62 396.221,807.338 
		395.94,807.338 395.94,807.62 396.221,808.321 395.94,809.165 395.659,810.995 394.956,812.258 394.393,813.245 392.565,814.79 
		391.862,815.352 391.299,816.057 391.018,816.057 390.315,816.338 390.737,816.62 391.581,816.62 391.862,816.62 392.565,816.62 
		393.127,816.62 394.112,816.62 394.674,815.352 395.377,814.79 395.94,813.526 396.924,812.258 397.206,810.995 397.206,809.588 
		397.206,808.602 	"/>
	<polygon fill="#FFA800" stroke="#A80000" stroke-width="1.2668" stroke-linejoin="round" points="404.237,787.227 404.237,785.682 
		404.237,784.838 404.237,783.571 403.674,782.307 402.971,781.182 402.69,779.915 402.127,778.932 400.862,778.37 400.299,777.102 
		399.315,776.12 398.049,775.557 396.924,774.995 395.94,774.29 394.674,773.446 393.127,773.026 391.862,772.745 390.737,772.745 
		389.19,772.745 388.206,772.745 386.94,772.745 385.815,773.026 384.268,773.446 383.002,774.29 382.018,774.995 380.471,775.557 
		379.627,776.12 378.643,777.102 378.081,778.37 376.815,778.932 376.252,779.915 375.549,781.182 375.268,782.307 374.706,783.571 
		374.706,784.838 374.284,785.682 374.284,787.227 374.284,788.495 374.706,789.758 374.706,791.026 375.268,792.29 
		375.549,793.133 376.252,794.682 376.815,795.665 378.081,796.508 378.643,797.495 379.627,798.057 380.471,799.321 
		382.018,799.883 383.002,800.307 384.268,800.87 385.815,801.151 386.94,801.432 388.206,801.432 389.19,801.852 390.737,801.432 
		391.862,801.432 393.127,801.151 394.674,800.87 395.94,800.307 396.924,799.883 398.049,799.321 399.315,798.057 400.299,797.495 
		400.862,796.508 402.127,795.665 402.69,794.682 402.971,793.133 403.674,792.29 404.237,791.026 404.237,789.758 404.237,788.495 
			"/>
	<polygon stroke="#A80000" stroke-width="1.2668" stroke-linejoin="round" points="399.596,787.227 399.596,786.383 399.596,785.12 
		399.315,784.838 399.315,783.852 398.752,783.29 398.471,782.307 398.049,781.463 397.206,780.758 396.924,780.196 
		396.221,779.633 395.377,779.213 394.674,778.651 393.409,778.37 392.846,778.37 391.862,777.665 391.018,777.383 390.315,777.383 
		389.19,777.383 388.487,777.383 387.643,777.383 386.94,777.665 386.096,778.37 384.831,778.37 384.268,778.651 383.284,779.213 
		382.721,779.633 382.018,780.196 381.174,780.758 380.752,781.463 380.19,782.307 379.909,783.29 379.627,783.852 379.206,784.838 
		379.206,785.12 378.924,786.383 378.924,787.227 378.924,788.213 379.206,788.776 379.206,789.758 379.627,790.745 
		379.909,791.588 380.19,792.29 380.752,792.852 381.174,793.415 382.018,794.401 382.721,794.963 383.284,795.383 384.268,795.946 
		384.831,796.227 386.096,796.508 386.94,796.932 387.643,796.932 388.487,797.213 389.19,797.213 390.315,797.213 391.018,796.932 
		391.862,796.932 392.846,796.508 393.409,796.227 394.674,795.946 395.377,795.383 396.221,794.963 396.924,794.401 
		397.206,793.415 398.049,792.852 398.471,792.29 398.752,791.588 399.315,790.745 399.315,789.758 399.596,788.776 
		399.596,788.213 	"/>
	<polygon fill="none" stroke="#A80000" stroke-width="1.2668" stroke-linejoin="round" points="402.69,787.651 402.409,786.383 
		402.409,785.12 402.127,783.852 401.424,783.29 401.143,782.307 400.581,781.182 400.018,780.196 399.315,779.633 398.752,778.37 
		398.049,777.665 396.924,777.102 395.94,776.12 394.674,775.838 393.409,775.557 392.565,775.276 391.581,774.995 390.737,774.995 
		389.19,774.995 388.206,774.995 386.94,774.995 386.096,775.276 384.549,775.557 383.565,775.838 382.721,776.12 381.737,777.102 
		380.471,777.665 379.627,778.37 378.924,779.633 378.362,780.196 378.081,781.182 376.815,782.307 376.815,783.29 376.534,783.852 
		375.831,785.12 375.831,786.383 375.831,787.651 375.831,788.495 375.831,789.477 376.534,790.745 376.815,791.87 376.815,792.852 
		378.081,793.838 378.362,794.682 378.924,795.665 379.627,796.508 380.471,797.213 381.737,797.776 382.721,798.057 
		383.565,799.04 384.549,799.321 386.096,799.602 386.94,799.883 388.206,799.883 389.19,800.307 390.737,799.883 391.581,799.883 
		392.565,799.602 393.409,799.321 394.674,799.04 395.94,798.057 396.924,797.776 398.049,797.213 398.752,796.508 399.315,795.665 
		400.018,794.682 400.581,793.838 401.143,792.852 401.424,791.87 402.127,790.745 402.409,789.477 402.409,788.495 	"/>
	<polygon fill="#FFA800" stroke="#A80000" stroke-width="1.2668" stroke-linejoin="round" points="397.487,787.227 397.487,786.665 
		397.206,785.682 397.206,785.12 396.924,784.557 396.924,783.852 396.502,783.571 396.221,783.008 395.659,782.307 
		395.377,781.463 394.674,781.182 394.393,780.758 393.409,780.477 392.846,780.196 392.284,779.915 391.581,779.633 
		390.737,779.633 390.034,779.633 389.19,779.633 388.487,779.633 388.206,779.633 387.362,779.633 386.659,779.915 
		386.096,780.196 385.112,780.477 384.549,780.758 384.268,781.182 383.565,781.463 383.002,782.307 382.721,783.008 
		382.299,783.571 382.018,783.852 381.737,784.557 381.174,785.12 381.174,785.682 381.174,786.665 380.752,787.227 
		381.174,787.932 381.174,788.495 381.174,789.196 381.737,789.758 382.018,790.745 382.299,791.307 382.721,791.87 383.002,792.29 
		383.565,792.852 384.268,793.133 384.549,793.415 385.112,794.401 386.096,794.682 386.659,794.682 387.362,794.963 
		388.206,794.963 388.487,795.383 389.19,795.383 390.034,795.383 390.737,794.963 391.581,794.963 392.284,794.682 
		392.846,794.682 393.409,794.401 394.393,793.415 394.674,793.133 395.377,792.852 395.659,792.29 396.221,791.87 396.502,791.307 
		396.924,790.745 396.924,789.758 397.206,789.196 397.206,788.495 397.487,787.932 	"/>
	<polygon points="365.424,805.227 367.534,806.071 369.362,807.057 371.19,807.057 372.737,807.057 374.706,806.071 
		376.815,805.227 378.643,804.946 375.268,802.696 374.706,803.682 374.002,804.526 372.456,804.946 370.909,805.227 
		368.799,805.508 367.534,805.227 365.987,804.946 364.159,804.245 363.877,804.526 	"/>
	<polygon stroke="#A89187" stroke-width="1.2668" stroke-linejoin="round" points="374.987,803.682 374.987,803.401 
		375.268,802.696 374.987,802.133 374.706,802.133 374.706,802.696 374.284,802.977 373.159,803.401 371.19,803.682 
		370.065,803.682 368.518,803.682 366.971,803.682 365.424,802.977 364.721,802.977 364.44,802.696 363.877,801.852 
		363.596,802.133 363.596,802.696 363.174,802.977 363.174,803.682 363.877,804.245 364.721,804.526 365.424,804.946 
		366.971,805.227 367.815,805.227 368.799,805.227 370.909,805.227 372.174,804.946 373.159,804.526 374.706,803.963 	"/>
	<polygon stroke="#A89187" stroke-width="1.2668" stroke-linejoin="round" points="457.956,758.54 461.049,758.54 464.143,758.963 
		467.518,759.807 470.331,760.79 473.143,761.915 475.815,763.883 478.065,765.432 480.456,767.821 482.424,770.352 
		484.534,772.745 485.377,775.557 486.643,778.37 487.627,781.182 487.909,784.276 488.19,787.651 487.909,790.321 487.627,793.415 
		486.643,796.508 485.377,799.321 484.534,801.852 482.424,804.526 480.456,807.057 478.065,808.883 475.815,810.995 
		473.143,812.963 470.331,813.807 467.518,815.352 464.143,816.057 461.049,816.62 457.956,816.62 454.581,816.62 451.487,816.057 
		448.112,815.352 445.299,813.807 442.909,812.963 440.096,810.995 437.284,808.883 435.456,807.057 432.924,804.526 
		431.377,801.852 429.831,799.321 428.987,796.508 428.002,793.415 427.44,790.321 427.44,787.651 427.44,784.276 428.002,781.182 
		428.987,778.37 429.831,775.557 431.377,772.745 432.924,770.352 435.456,767.821 437.284,765.432 440.096,763.883 
		442.909,761.915 445.299,760.79 448.112,759.807 451.487,758.963 454.581,758.54 	"/>
	<polygon stroke="#FFFFFF" stroke-width="1.2668" stroke-linejoin="round" points="476.518,787.651 476.518,785.682 
		476.237,784.557 475.815,783.008 475.534,781.463 474.69,779.915 473.706,778.651 472.721,777.102 472.159,776.12 470.893,774.995 
		469.768,774.008 468.502,772.745 467.237,772.182 465.69,771.196 464.143,770.915 462.596,770.352 461.049,770.352 
		459.502,770.071 457.674,770.071 456.127,770.071 454.581,770.352 452.752,770.352 451.487,770.915 449.659,771.196 
		448.112,772.182 446.846,772.745 445.581,774.008 444.456,774.995 443.471,776.12 442.206,777.102 441.643,778.651 
		440.659,779.915 440.096,781.463 439.815,783.008 439.393,784.557 439.112,785.682 438.831,787.651 439.112,789.196 
		439.393,790.745 439.815,792.29 440.096,793.415 440.659,794.963 441.643,796.508 442.206,797.776 443.471,799.321 
		444.456,800.307 445.581,801.151 446.846,802.133 448.112,802.977 449.659,803.682 451.487,804.245 452.752,804.946 
		454.581,804.946 456.127,805.227 457.674,805.227 459.502,805.227 461.049,804.946 462.596,804.946 464.143,804.245 
		465.69,803.682 467.237,802.977 468.502,802.133 469.768,801.151 470.893,800.307 472.159,799.321 472.721,797.776 
		473.706,796.508 474.69,794.963 475.534,793.415 475.815,792.29 476.237,790.745 476.518,789.196 	"/>
	<polygon points="480.174,766.276 477.784,765.432 476.237,765.432 473.706,765.432 472.44,766.276 470.612,767.258 
		469.065,768.102 467.518,768.807 470.612,770.633 470.893,769.088 471.877,768.102 472.721,767.54 474.69,767.258 476.518,766.557 
		477.784,766.557 479.612,766.977 481.44,767.258 	"/>
	<polygon stroke="#A89187" stroke-width="1.2668" stroke-linejoin="round" points="470.893,769.37 470.893,770.352 470.612,770.633 
		471.596,770.915 471.596,770.633 471.877,770.352 472.721,769.37 474.268,768.807 476.237,768.526 477.081,768.526 
		478.909,768.526 480.174,768.807 480.877,768.807 481.44,768.807 481.721,769.37 482.002,768.807 482.424,768.807 482.424,768.102 
		482.424,767.54 481.44,767.258 480.877,766.977 480.174,766.557 478.627,766.557 477.784,766.557 476.518,766.977 474.268,767.258 
		473.143,767.54 472.159,768.102 471.596,768.807 	"/>
	<polygon points="458.659,756.995 456.127,758.258 455.143,759.526 453.596,760.79 452.752,762.62 452.471,763.883 451.768,766.276 
		450.502,767.54 454.581,766.557 454.018,765.432 454.018,764.165 454.581,763.182 455.565,761.352 456.127,760.088 
		457.112,758.963 458.659,757.977 460.065,756.995 460.065,756.713 	"/>
	<polygon stroke="#A89187" stroke-width="1.2668" stroke-linejoin="round" points="454.299,765.995 454.581,766.276 
		454.581,766.557 455.565,766.557 455.565,766.276 455.565,765.432 455.846,764.446 456.127,762.901 457.112,761.915 
		457.674,760.79 459.502,759.526 460.487,758.963 461.049,758.54 461.612,758.258 462.315,758.258 462.034,757.977 461.612,757.415 
		461.612,756.995 461.049,756.432 460.487,756.713 459.502,757.415 458.659,757.415 457.674,758.54 457.112,759.245 
		456.127,760.088 455.143,761.352 454.581,762.901 454.018,764.165 454.018,765.008 	"/>
	<polygon points="489.737,786.946 488.19,784.557 486.924,783.571 485.377,782.307 484.252,781.182 482.424,780.758 
		480.174,780.477 478.627,779.633 479.893,783.29 480.877,782.727 482.002,782.727 483.549,783.008 485.096,783.571 
		486.362,784.557 487.909,785.12 488.893,786.946 489.737,788.213 	"/>
	<polygon stroke="#A89187" stroke-width="1.2668" stroke-linejoin="round" points="480.456,783.008 480.174,783.008 479.893,783.29 
		479.893,783.571 479.893,783.852 480.174,783.571 480.877,783.571 481.721,783.852 483.549,784.557 484.815,785.12 
		485.377,786.383 486.924,787.651 487.909,788.495 488.19,788.776 488.19,789.477 488.471,790.321 488.893,789.758 489.174,789.758 
		489.737,789.758 490.018,789.196 489.737,788.495 489.456,787.651 489.174,786.946 488.19,785.682 486.924,785.12 486.362,784.557 
		485.096,783.571 483.831,783.008 482.424,782.727 481.44,782.727 	"/>
	<polygon points="481.44,807.62 481.721,805.227 481.721,803.682 481.44,801.852 481.159,800.307 480.174,799.04 478.627,796.932 
		478.346,795.383 476.518,799.04 477.784,799.321 478.627,799.883 479.612,800.87 480.174,802.133 480.877,803.963 480.877,805.227 
		480.877,807.338 480.456,808.602 480.456,808.883 	"/>
	<polygon stroke="#A89187" stroke-width="1.2668" stroke-linejoin="round" points="477.784,799.321 477.081,799.321 476.799,799.04 
		476.518,799.321 476.237,799.321 476.518,799.321 476.799,799.883 477.784,800.588 478.346,802.133 478.627,803.682 
		478.627,804.946 478.909,806.776 478.627,808.04 478.627,808.602 478.346,808.883 477.784,809.588 478.346,809.588 478.627,809.87 
		478.909,809.87 480.174,809.87 480.456,808.883 480.877,808.321 480.877,807.62 480.877,806.071 480.877,804.946 480.877,803.963 
		480.174,802.133 479.612,801.151 478.627,799.883 478.065,799.321 	"/>
	<polygon points="438.831,763.883 437.565,765.995 437.002,767.54 436.721,769.37 437.002,771.196 437.284,772.745 438.268,774.995 
		438.268,776.12 440.94,773.446 440.096,773.026 439.393,772.182 438.831,770.915 438.831,769.088 438.268,767.54 438.831,766.276 
		439.393,764.165 440.096,763.182 440.096,762.901 	"/>
	<polygon stroke="#A89187" stroke-width="1.2668" stroke-linejoin="round" points="440.096,773.026 440.377,773.026 440.94,773.446 
		441.362,773.026 441.643,773.026 440.94,772.745 440.94,772.463 440.377,771.196 440.096,770.071 440.096,768.526 440.377,767.258 
		440.659,765.432 441.362,764.165 441.643,763.883 441.643,763.463 442.909,762.901 441.924,762.62 441.643,762.62 441.643,762.338 
		440.377,762.338 440.096,762.901 439.815,763.463 439.393,764.165 438.831,765.008 438.831,766.557 438.831,767.54 
		438.268,769.088 438.831,770.633 439.393,771.901 439.815,772.745 	"/>
	<polygon points="425.612,783.571 426.737,785.682 428.002,787.227 428.987,788.776 430.534,789.477 432.081,790.321 
		434.19,791.307 435.737,792.29 435.456,788.495 433.909,788.776 432.643,788.776 431.377,788.213 429.831,787.227 428.706,786.383 
		427.44,785.12 426.737,783.571 425.893,782.307 425.612,782.307 	"/>
	<polygon stroke="#A89187" stroke-width="1.2668" stroke-linejoin="round" points="434.19,788.495 434.893,788.495 435.174,788.213 
		435.456,787.932 435.456,787.651 434.893,787.651 434.19,787.651 432.924,787.227 431.377,786.383 430.534,785.401 
		429.268,784.838 428.284,783.29 428.002,782.307 427.44,781.463 427.44,781.182 427.44,780.196 427.159,780.477 426.737,780.477 
		426.456,780.477 425.612,781.182 425.612,782.307 425.893,783.008 426.456,783.571 427.159,784.557 428.002,785.12 
		428.706,786.383 429.831,787.651 431.377,788.213 432.362,788.495 433.627,788.776 	"/>
	<polygon points="463.581,816.057 464.424,815.352 465.69,814.088 466.674,812.54 467.518,810.995 467.518,809.588 467.799,807.338 
		468.502,805.508 464.706,807.338 465.69,808.321 465.69,809.165 465.69,810.713 465.127,812.258 464.143,813.526 463.581,815.071 
		462.034,816.057 462.596,816.338 	"/>
	<polygon stroke="#A89187" stroke-width="1.2668" stroke-linejoin="round" points="465.409,808.04 465.127,807.62 464.706,807.338 
		464.424,807.338 464.143,807.338 464.143,807.62 464.424,808.321 464.143,809.165 464.143,810.995 463.159,812.258 
		462.315,813.245 461.049,814.79 460.487,815.352 459.502,816.057 458.237,816.338 458.659,816.62 459.784,816.62 460.487,816.62 
		461.049,816.62 461.612,816.62 462.034,816.62 462.596,815.352 463.581,814.79 464.143,813.526 465.127,812.258 465.409,810.995 
		465.69,809.588 465.69,808.602 	"/>
	<polygon fill="#FFA800" stroke="#A80000" stroke-width="1.2668" stroke-linejoin="round" points="472.721,787.227 472.721,785.682 
		472.44,784.838 472.44,783.571 471.877,782.307 471.596,781.182 470.612,779.915 470.331,778.932 469.346,778.37 468.502,777.102 
		467.518,776.12 466.252,775.557 465.127,774.995 464.143,774.29 462.596,773.446 461.612,773.026 460.487,772.745 459.221,772.745 
		457.674,772.745 456.127,772.745 455.143,772.745 453.596,773.026 452.471,773.446 451.487,774.29 449.94,774.995 448.956,775.557 
		448.112,776.12 446.846,777.102 445.581,778.37 445.299,778.932 444.456,779.915 444.034,781.182 443.471,782.307 443.19,783.571 
		442.909,784.838 442.909,785.682 442.206,787.227 442.909,788.495 442.909,789.758 443.19,791.026 443.471,792.29 444.034,793.133 
		444.456,794.682 445.299,795.665 445.581,796.508 446.846,797.495 448.112,798.057 448.956,799.321 449.94,799.883 
		451.487,800.307 452.471,800.87 453.596,801.151 455.143,801.432 456.127,801.432 457.674,801.852 459.221,801.432 
		460.487,801.432 461.612,801.151 462.596,800.87 464.143,800.307 465.127,799.883 466.252,799.321 467.518,798.057 
		468.502,797.495 469.346,796.508 470.331,795.665 470.612,794.682 471.596,793.133 471.877,792.29 472.44,791.026 472.44,789.758 
		472.721,788.495 	"/>
	<polygon stroke="#A80000" stroke-width="1.2668" stroke-linejoin="round" points="468.221,787.227 468.221,786.383 468.221,785.12 
		467.799,784.838 467.518,783.852 467.237,783.29 466.674,782.307 465.971,781.463 465.69,780.758 465.127,780.196 464.424,779.633 
		463.581,779.213 462.596,778.651 461.612,778.37 461.049,778.37 460.487,777.665 459.502,777.383 458.659,777.383 457.674,777.383 
		456.69,777.383 455.846,777.383 455.143,777.665 454.018,778.37 453.034,778.37 452.471,778.651 451.487,779.213 450.502,779.633 
		450.221,780.196 449.659,780.758 448.956,781.463 448.674,782.307 448.112,783.29 448.112,783.852 447.831,784.838 447.549,785.12 
		447.549,786.383 447.549,787.227 447.549,788.213 447.549,788.776 447.831,789.758 448.112,790.745 448.112,791.588 
		448.674,792.29 448.956,792.852 449.659,793.415 450.221,794.401 450.502,794.963 451.487,795.383 452.471,795.946 
		453.034,796.227 454.018,796.508 455.143,796.932 455.846,796.932 456.69,797.213 457.674,797.213 458.659,797.213 
		459.502,796.932 460.487,796.932 461.049,796.508 461.612,796.227 462.596,795.946 463.581,795.383 464.424,794.963 
		465.127,794.401 465.69,793.415 465.971,792.852 466.674,792.29 467.237,791.588 467.518,790.745 467.799,789.758 468.221,788.776 
		468.221,788.213 	"/>
	<polygon fill="none" stroke="#A80000" stroke-width="1.2668" stroke-linejoin="round" points="470.612,787.651 470.331,786.383 
		470.331,785.12 470.331,783.852 469.768,783.29 469.768,782.307 469.065,781.182 468.221,780.196 467.518,779.633 466.674,778.37 
		465.971,777.665 465.127,777.102 464.143,776.12 463.159,775.838 461.612,775.557 461.049,775.276 459.784,774.995 
		458.659,774.995 457.393,774.995 456.127,774.995 455.565,774.995 454.018,775.276 453.034,775.557 451.768,775.838 
		450.502,776.12 449.94,777.102 448.956,777.665 448.112,778.37 447.549,779.633 446.846,780.196 445.581,781.182 445.299,782.307 
		445.018,783.29 444.737,783.852 444.456,785.12 444.456,786.383 444.034,787.651 444.456,788.495 444.456,789.477 444.737,790.745 
		445.018,791.87 445.299,792.852 445.581,793.838 446.846,794.682 447.549,795.665 448.112,796.508 448.956,797.213 449.94,797.776 
		450.502,798.057 451.768,799.04 453.034,799.321 454.018,799.602 455.565,799.883 456.127,799.883 457.393,800.307 
		458.659,799.883 459.784,799.883 461.049,799.602 461.612,799.321 463.159,799.04 464.143,798.057 465.127,797.776 
		465.971,797.213 466.674,796.508 467.518,795.665 468.221,794.682 469.065,793.838 469.768,792.852 469.768,791.87 
		470.331,790.745 470.331,789.477 470.331,788.495 	"/>
	<polygon fill="#FFA800" stroke="#A80000" stroke-width="1.2668" stroke-linejoin="round" points="465.69,787.227 465.69,786.665 
		465.69,785.682 465.69,785.12 465.409,784.557 465.127,783.852 464.706,783.571 464.424,783.008 464.143,782.307 463.581,781.463 
		462.596,781.182 462.315,780.758 461.612,780.477 461.049,780.196 460.487,779.915 459.784,779.633 459.221,779.633 
		458.237,779.633 457.674,779.633 457.112,779.633 456.127,779.633 455.565,779.633 454.581,779.915 454.018,780.196 
		453.315,780.477 453.034,780.758 452.471,781.182 451.768,781.463 451.487,782.307 450.502,783.008 450.221,783.571 
		450.221,783.852 449.94,784.557 449.659,785.12 449.377,785.682 449.377,786.665 448.956,787.227 449.377,787.932 449.377,788.495 
		449.659,789.196 449.94,789.758 450.221,790.745 450.221,791.307 450.502,791.87 451.487,792.29 451.768,792.852 452.471,793.133 
		453.034,793.415 453.315,794.401 454.018,794.682 454.581,794.682 455.565,794.963 456.127,794.963 457.112,795.383 
		457.674,795.383 458.237,795.383 459.221,794.963 459.784,794.963 460.487,794.682 461.049,794.682 461.612,794.401 
		462.315,793.415 462.596,793.133 463.581,792.852 464.143,792.29 464.424,791.87 464.706,791.307 465.127,790.745 465.409,789.758 
		465.69,789.196 465.69,788.495 465.69,787.932 	"/>
	<polygon points="433.346,805.227 435.737,806.071 437.284,807.057 439.393,807.057 440.94,807.057 443.19,806.071 445.018,805.227 
		446.846,804.946 443.471,802.696 443.19,803.682 441.924,804.526 440.659,804.946 439.112,805.227 437.002,805.508 
		435.737,805.227 433.909,804.946 432.362,804.245 432.362,804.526 	"/>
	<polygon stroke="#A89187" stroke-width="1.2668" stroke-linejoin="round" points="443.19,803.682 443.471,803.401 443.471,802.696 
		443.19,802.133 443.19,802.696 442.206,802.977 441.362,803.401 439.815,803.682 438.268,803.682 436.721,803.682 435.174,803.682 
		433.627,802.977 432.924,802.977 432.643,802.696 432.081,801.852 432.081,802.133 431.799,802.696 431.377,802.977 
		431.377,803.682 432.081,804.245 432.924,804.526 433.627,804.946 435.174,805.227 436.018,805.227 437.002,805.227 
		439.393,805.227 440.377,804.946 441.643,804.526 442.909,803.963 	"/>
</g>
</svg>
