<?xml version="1.0" encoding="utf-8"?>
<!-- Generator: Adobe Illustrator 16.0.0, SVG Export Plug-In . SVG Version: 6.00 Build 0)  -->
<!DOCTYPE svg PUBLIC "-//W3C//DTD SVG 1.1//EN" "http://www.w3.org/Graphics/SVG/1.1/DTD/svg11.dtd">
<svg version="1.1" id="grader" xmlns="http://www.w3.org/2000/svg" xmlns:xlink="http://www.w3.org/1999/xlink" x="0px" y="0px"
	 width="1068px" height="501px" viewBox="0 0 1068 501" enable-background="new 0 0 1068 501" xml:space="preserve">
<g>
	<polygon fill="#FFA800" stroke="#000000" stroke-width="1.689" stroke-linejoin="round" points="321.156,8.656 422.219,8.656 
		510.906,8.656 498.906,34.344 498.906,142.156 505.281,217.344 516.531,212.094 546.156,191.656 570.531,180.781 606.344,174.031 
		636.719,174.031 641.969,166.906 653.969,166.906 659.594,180.781 773.406,180.781 880.656,186.031 945.906,217.344 
		1000.094,249.969 1012.094,249.969 1017.719,249.969 1029.344,231.219 1042.094,224.094 1052.594,231.219 1059.531,237.594 
		1059.531,293.844 1059.531,339.031 1052.594,344.656 1059.531,370.531 1052.594,376.156 1019.969,381.406 880.656,350.281 
		868.656,339.031 863.594,339.031 880.656,312.781 911.031,300.781 928.281,293.844 928.281,275.469 921.906,262.719 
		886.281,237.594 857.219,224.094 761.406,224.094 671.594,224.094 659.594,243.219 742.656,354.031 738.156,363.031 
		629.594,255.594 624.344,255.594 695.031,356.281 669.344,356.281 595.094,249.969 588.719,231.219 564.906,237.594 
		553.281,237.594 481.094,293.844 416.219,350.281 397.094,370.531 387.156,382.531 201.719,407.844 183.531,413.844 
		29.219,363.781 29.219,350.281 16.094,344.656 10.469,344.656 16.094,281.094 16.094,243.219 21.719,224.094 21.719,180.781 
		21.719,148.156 70.469,142.531 172.281,142.531 172.281,110.656 185.781,105.219 185.781,78.219 201.719,84.969 201.719,104.094 
		201.719,117.031 218.969,135.406 225.344,142.531 255.719,142.531 272.594,148.156 278.594,148.156 278.594,186.031 
		278.594,217.344 296.406,217.344 296.406,166.906 296.406,122.656 314.406,110.656 314.406,35.844 314.406,21.969 321.156,15.594 	
		"/>
	<polygon fill="#A80000" stroke="#000000" stroke-width="1.689" stroke-linejoin="round" points="1016.594,249.219 
		1012.469,279.969 999.344,248.469 	"/>
	<polygon fill="#A89187" stroke="#000000" stroke-width="1.689" stroke-linejoin="round" points="800.594,330.031 608.594,340.906 
		597.719,364.906 599.969,398.094 610.844,421.719 621.719,432.969 837.344,417.594 843.719,330.031 	"/>
	<polygon stroke="#A89187" stroke-width="1.689" stroke-linejoin="round" points="614.969,349.906 608.594,363.031 606.344,378.031 
		841.844,364.906 843.719,338.656 	"/>
	<polygon stroke="#A89187" stroke-width="1.689" stroke-linejoin="round" points="623.594,426.219 841.844,410.844 835.469,415.344 
		625.844,430.719 	"/>
	<polygon fill="#FFA800" stroke="#FFFF54" stroke-width="1.689" stroke-linejoin="round" points="40.469,148.531 37.094,149.656 
		35.969,150.781 37.094,151.906 40.469,152.281 266.219,152.281 268.844,150.781 268.094,149.656 264.344,148.531 	"/>
	<polygon fill="#FFA800" stroke="#A80000" stroke-width="1.689" stroke-linejoin="round" points="42.719,204.219 224.969,204.219 
		227.219,205.719 40.094,205.719 40.094,162.031 41.594,163.906 41.594,204.219 	"/>
	<polygon fill="#FFA800" stroke="#FFFF54" stroke-width="1.689" stroke-linejoin="round" points="22.469,148.531 22.469,224.469 
		25.844,222.969 25.469,148.531 	"/>
	<polygon fill="#FFA800" stroke="#000000" stroke-width="1.689" stroke-linejoin="round" points="22.469,148.156 58.844,144.031 
		25.844,148.906 	"/>
	<polygon fill="#A80000" stroke="#000000" stroke-width="1.689" stroke-linejoin="round" points="173.406,110.281 177.156,113.656 
		177.156,144.781 172.281,142.156 	"/>
	<polygon fill="#A89187" stroke="#000000" stroke-width="1.689" stroke-linejoin="round" points="186.531,78.219 186.531,104.094 
		189.906,105.781 189.906,78.969 	"/>
	<polygon fill="#FFA800" stroke="#FFFF54" stroke-width="1.689" stroke-linejoin="round" points="174.531,110.281 185.781,105.219 
		189.156,105.781 	"/>
	<polygon fill="#FFA800" stroke="#000000" stroke-width="1.689" stroke-linejoin="round" points="177.156,113.281 189.906,106.156 
		173.781,110.656 	"/>
	<polygon fill="#FFA800" stroke="#FFFF54" stroke-width="1.689" stroke-linejoin="round" points="23.969,222.219 150.531,222.219 
		27.719,227.844 22.844,231.969 20.594,237.969 19.844,300.406 13.094,304.906 15.719,233.094 17.969,226.344 22.469,222.219 	"/>
	<polygon fill="#FFFFFF" stroke="#FFFFFF" stroke-width="1.689" stroke-linejoin="round" points="616.094,352.156 611.969,359.281 
		821.219,349.156 824.969,340.906 622.469,351.781 	"/>
	<polygon fill="#FFFFFF" stroke="#FFFFFF" stroke-width="1.689" stroke-linejoin="round" points="624.344,420.219 842.219,405.969 
		839.219,403.344 622.469,416.844 	"/>
	<polygon fill="#A89187" stroke="#FFFFFF" stroke-width="1.689" stroke-linejoin="round" points="818.594,348.031 820.469,357.031 
		817.094,368.656 830.594,387.031 839.969,404.844 796.469,406.344 783.719,403.719 772.656,396.031 762.906,383.656 
		758.781,373.156 755.031,363.781 753.531,350.281 	"/>
	<polygon stroke="#A89187" stroke-width="1.689" stroke-linejoin="round" points="614.594,351.781 609.344,361.906 607.844,373.531 
		609.344,385.156 611.969,396.594 616.094,406.719 623.594,417.969 630.344,425.094 620.969,411.969 616.094,403.344 
		613.094,392.656 611.969,380.656 611.969,369.781 614.594,364.156 619.094,359.281 627.344,358.156 624.719,350.656 	"/>
	
		<rect x="314.781" y="34.344" fill="#A80000" stroke="#000000" stroke-width="1.689" stroke-linejoin="round" width="184.5" height="11.625"/>
	
		<rect x="351.906" y="47.844" fill="#A89187" stroke="#000000" stroke-width="1.689" stroke-linejoin="round" width="125.063" height="162"/>
	
		<line fill="none" stroke="#000000" stroke-width="10.5" stroke-linejoin="round" x1="317.031" y1="43.344" x2="498.156" y2="43.344"/>
	<polyline fill="none" stroke="#A80000" stroke-width="10.5" stroke-linejoin="round" points="461.969,306.031 552.531,236.094 
		572.031,224.844 591.344,220.719 612.719,220.719 835.469,220.719 850.469,220.719 863.594,222.969 876.156,229.344 
		944.031,272.469 	"/>
	
		<line fill="none" stroke="#000000" stroke-width="10.5" stroke-linejoin="round" x1="617.219" y1="224.844" x2="703.281" y2="327.781"/>
	<polyline fill="none" stroke="#000000" stroke-width="10.5" stroke-linejoin="round" points="554.781,240.219 589.094,231.969 
		595.469,253.719 656.219,334.531 	"/>
	<polygon fill="#A80000" stroke="#000000" stroke-width="1.689" stroke-linejoin="round" points="612.719,220.719 628.094,255.594 
		707.781,332.281 617.219,222.969 	"/>
	<polygon fill="#A80000" stroke="#000000" stroke-width="1.689" stroke-linejoin="round" points="548.781,233.844 582.719,220.719 
		589.094,220.719 593.594,249.219 546.906,238.344 	"/>
	<polygon fill="#A80000" stroke="#000000" stroke-width="1.689" stroke-linejoin="round" points="657.719,240.219 634.469,220.719 
		681.906,220.719 660.344,243.594 	"/>
	<polygon fill="#A80000" stroke="#000000" stroke-width="1.689" stroke-linejoin="round" points="507.906,215.844 511.656,264.594 
		527.031,203.844 	"/>
	<polygon fill="#A80000" stroke="#000000" stroke-width="1.689" stroke-linejoin="round" points="647.969,194.281 647.594,191.656 
		646.469,189.406 644.969,187.531 642.719,186.031 640.094,185.281 637.469,185.281 635.219,186.031 632.969,187.531 
		631.094,189.406 629.969,191.656 629.594,194.281 629.969,196.906 631.094,199.156 632.969,201.406 635.219,202.531 
		637.469,203.094 640.094,203.094 642.719,202.531 644.969,201.406 646.469,199.156 647.594,196.906 647.969,194.281 	"/>
	<polygon fill="#FFA800" stroke="#000000" stroke-width="1.689" stroke-linejoin="round" points="965.219,253.719 964.844,251.094 
		963.906,248.844 962.031,246.969 960.156,245.469 957.531,244.719 954.906,244.719 952.656,245.469 950.406,246.969 
		948.906,248.844 947.781,251.094 947.406,253.719 947.781,256.344 948.906,258.594 950.406,260.469 952.656,261.969 
		954.906,262.719 957.531,262.719 960.156,261.969 962.031,260.469 963.906,258.594 964.844,256.344 965.219,253.719 	"/>
	<polygon fill="#FFA800" stroke="#000000" stroke-width="1.689" stroke-linejoin="round" points="650.219,192.406 649.844,189.781 
		648.719,187.156 647.219,185.281 644.969,183.781 642.344,183.031 639.719,183.031 637.469,183.781 635.219,185.281 
		633.344,187.156 632.219,189.781 631.844,192.406 632.219,195.031 633.344,197.281 635.219,199.156 637.469,200.656 
		639.719,201.406 642.344,201.406 644.969,200.656 647.219,199.156 648.719,197.281 649.844,195.031 650.219,192.406 	"/>
	<polygon fill="#FFA800" stroke="#000000" stroke-width="1.689" stroke-linejoin="round" points="967.469,251.469 967.094,248.844 
		965.969,246.594 964.094,244.344 962.406,243.219 959.781,242.469 957.156,242.469 954.531,243.219 952.656,244.344 
		950.781,246.594 949.656,248.844 949.281,251.469 949.656,253.719 950.781,256.344 952.656,258.219 954.531,259.719 
		957.156,260.469 959.781,260.469 962.406,259.719 964.094,258.219 965.969,256.344 967.094,253.719 967.469,251.469 	"/>
	<polygon fill="#FFA800" stroke="#000000" stroke-width="1.689" stroke-linejoin="round" points="585.719,235.719 585.344,233.469 
		584.219,231.594 582.719,229.719 580.656,228.969 578.406,228.594 576.156,228.969 574.281,229.719 572.406,231.594 
		571.656,233.469 571.281,235.719 571.656,237.969 572.406,240.219 574.281,241.719 576.156,242.844 578.406,243.219 
		580.656,242.844 582.719,241.719 584.219,240.219 585.344,237.969 585.719,235.719 	"/>
	
		<line fill="none" stroke="#FFFF54" stroke-width="1.689" stroke-linejoin="round" x1="321.156" y1="14.094" x2="508.656" y2="14.094"/>
	
		<line fill="none" stroke="#000000" stroke-width="1.689" stroke-linejoin="round" x1="351.906" y1="212.094" x2="351.906" y2="236.094"/>
	<polyline fill="none" stroke="#A80000" stroke-width="1.689" stroke-linejoin="round" points="476.969,209.844 476.969,264.594 
		459.719,264.594 440.219,250.344 418.469,241.344 391.844,236.094 376.281,234.969 364.656,233.844 351.906,234.969 	"/>
	<polyline fill="none" stroke="#000000" stroke-width="1.689" stroke-linejoin="round" points="635.969,173.656 595.469,213.969 
		662.594,213.969 660.719,181.156 	"/>
	<polyline fill="none" stroke="#000000" stroke-width="1.689" stroke-linejoin="round" points="880.656,186.031 856.844,216.219 
		859.094,222.969 	"/>
	
		<line fill="none" stroke="#000000" stroke-width="1.689" stroke-linejoin="round" x1="1018.469" y1="297.219" x2="1059.531" y2="297.219"/>
	<polygon fill="#FFFF54" stroke="#000000" stroke-width="10.5" stroke-linejoin="round" points="1053.344,261.969 1053.344,260.094 
		1053.344,257.844 1052.969,255.594 1052.594,253.344 1052.219,251.469 1051.844,249.219 1051.844,247.344 1051.094,245.469 
		1050.719,243.594 1050.344,242.469 1049.594,240.969 1049.219,239.469 1048.469,238.344 1047.719,237.594 1046.969,236.844 
		1046.219,236.469 1045.469,236.094 1044.719,236.094 1043.969,236.094 1043.219,236.469 1042.469,236.844 1041.719,237.594 
		1040.969,238.344 1040.594,239.469 1039.844,240.969 1039.094,242.469 1038.344,243.594 1037.969,245.469 1037.594,247.344 
		1037.219,249.219 1036.844,251.469 1036.469,253.344 1036.469,255.594 1036.094,257.844 1036.094,260.094 1036.094,261.969 
		1036.094,264.594 1036.094,266.844 1036.469,268.719 1036.469,271.344 1036.844,273.219 1037.219,275.469 1037.594,277.344 
		1037.969,279.219 1038.344,280.719 1039.094,282.219 1039.844,283.719 1040.594,285.219 1040.969,285.969 1041.719,287.094 
		1042.469,287.469 1043.219,288.219 1043.969,288.219 1044.719,288.219 1045.469,288.219 1046.219,288.219 1046.969,287.469 
		1047.719,287.094 1048.469,285.969 1049.219,285.219 1049.594,283.719 1050.344,282.219 1050.719,280.719 1051.094,279.219 
		1051.844,277.344 1051.844,275.469 1052.219,273.219 1052.594,271.344 1052.969,268.719 1053.344,266.844 1053.344,264.594 	"/>
	<polygon fill="#FFFF54" stroke="#000000" stroke-width="10.5" stroke-linejoin="round" points="1053.344,319.156 1053.344,318.031 
		1053.344,316.906 1052.969,315.781 1052.594,314.281 1052.219,313.531 1051.844,312.406 1051.844,311.656 1051.094,310.531 
		1050.719,309.781 1050.344,309.031 1049.594,308.281 1049.219,307.531 1048.469,307.156 1047.719,306.406 1046.969,306.406 
		1046.219,306.031 1045.469,306.031 1044.719,306.031 1043.969,306.031 1043.219,306.031 1042.469,306.406 1041.719,306.406 
		1040.969,307.156 1040.594,307.531 1039.844,308.281 1039.094,309.031 1038.344,309.781 1037.969,310.531 1037.594,311.656 
		1037.219,312.406 1036.844,313.531 1036.469,314.281 1036.469,315.781 1036.094,316.906 1036.094,318.031 1036.094,319.156 
		1036.094,319.906 1036.094,321.406 1036.469,322.531 1036.469,323.656 1036.844,324.406 1037.219,325.531 1037.594,326.656 
		1037.969,327.406 1038.344,328.531 1039.094,329.281 1039.844,329.656 1040.594,330.406 1040.969,330.781 1041.719,331.531 
		1042.469,331.906 1043.219,331.906 1043.969,332.281 1044.719,332.281 1045.469,332.281 1046.219,331.906 1046.969,331.906 
		1047.719,331.531 1048.469,330.781 1049.219,330.406 1049.594,329.656 1050.344,329.281 1050.719,328.531 1051.094,327.406 
		1051.844,326.656 1051.844,325.531 1052.219,324.406 1052.594,323.656 1052.969,322.531 1053.344,321.406 1053.344,319.906 	"/>
	<polygon fill="#A89187" stroke="#000000" stroke-width="1.689" stroke-linejoin="round" points="190.281,79.344 190.281,143.281 
		206.219,143.281 206.219,85.344 192.156,78.594 	"/>
	<polygon fill="#FFFFFF" stroke="#000000" stroke-width="1.689" stroke-linejoin="round" points="190.656,78.594 196.281,81.594 
		196.281,141.781 191.406,141.781 191.406,79.719 	"/>
	
		<rect x="211.469" y="231.969" fill="#FFA800" stroke="#A80000" stroke-width="1.689" stroke-linejoin="round" width="58.5" height="30"/>
	
		<rect x="321.531" y="174.781" fill="#A89187" stroke="#000000" stroke-width="1.689" stroke-linejoin="round" width="17.25" height="11.25"/>
	<polygon fill="#00A0C6" stroke="#000000" stroke-width="1.689" stroke-linejoin="round" points="358.656,54.594 358.656,157.531 
		377.781,152.656 388.656,155.281 397.094,144.406 405.719,135.406 418.844,144.406 421.094,161.656 440.219,157.531 
		455.594,157.531 470.594,163.906 470.594,52.344 358.656,52.344 	"/>
	<polygon fill="#FFFFFF" stroke="#FFFFFF" stroke-width="1.689" stroke-linejoin="round" points="468.344,104.844 416.594,89.844 
		444.719,91.719 431.594,85.344 412.469,76.344 436.094,76.344 407.594,69.969 381.906,65.469 371.406,63.219 362.781,59.094 
		362.781,54.594 425.219,54.594 446.969,63.219 421.094,63.219 451.094,67.719 459.719,74.469 466.469,81.219 	"/>
	<polygon fill="#FFA800" stroke="#000000" stroke-width="1.689" stroke-linejoin="round" points="638.969,220.719 658.094,227.094 
		662.594,236.094 673.469,220.719 	"/>
	<rect x="45.344" y="190.531" stroke="#A80000" stroke-width="1.689" stroke-linejoin="round" width="177" height="6.375"/>
	<rect x="45.344" y="177.031" stroke="#A80000" stroke-width="1.689" stroke-linejoin="round" width="176.625" height="6.75"/>
	<rect x="45.344" y="163.906" stroke="#A80000" stroke-width="1.689" stroke-linejoin="round" width="177" height="6.75"/>
	<polygon fill="#A80000" stroke="#000000" stroke-width="1.689" stroke-linejoin="round" points="279.344,147.406 279.344,216.219 
		287.969,216.219 287.969,138.406 295.844,123.781 295.844,225.969 274.469,225.969 274.469,147.406 	"/>
	<polygon fill="#FFA800" stroke="#000000" stroke-width="1.689" stroke-linejoin="round" points="1059.531,354.031 967.094,456.219 
		975.719,455.469 984.344,453.219 992.969,450.594 1001.219,446.844 1009.094,442.719 1016.594,438.219 1023.719,432.594 
		1030.094,426.594 1036.094,420.219 1041.344,413.094 1046.219,405.219 1050.344,397.344 1053.719,389.281 1056.344,380.656 
		1058.594,372.031 1059.344,363.031 	"/>
	<polygon fill="#A89187" stroke="#000000" stroke-width="1.689" stroke-linejoin="round" points="1053.344,345.406 
		1014.344,347.656 1021.094,387.031 1059.531,384.781 1059.531,343.156 	"/>
	<polygon fill="#FFA800" stroke="#000000" stroke-width="1.689" stroke-linejoin="round" points="803.969,361.906 803.219,370.156 
		802.469,378.031 803.219,386.281 803.969,394.531 806.219,402.219 808.469,410.094 811.469,417.969 815.219,425.094 
		819.719,432.219 824.594,438.594 830.219,444.594 835.844,450.594 842.594,455.469 849.344,459.594 856.844,463.719 
		864.344,466.719 871.656,469.344 879.531,470.844 887.781,472.344 896.031,472.344 	"/>
	<polygon fill="#A80000" stroke="#000000" stroke-width="1.689" stroke-linejoin="round" points="817.469,386.281 817.469,368.656 
		818.594,359.281 820.469,350.281 823.469,341.281 827.219,332.656 831.344,324.031 836.594,316.531 842.219,308.656 
		848.219,301.906 854.969,295.719 862.469,290.094 870.156,285.219 878.406,280.719 887.031,276.969 895.656,274.344 
		904.656,272.094 914.031,270.969 923.406,270.594 932.781,270.969 941.781,272.094 950.781,274.344 959.406,276.969 
		968.219,280.719 976.469,285.219 984.344,290.094 991.469,295.719 998.219,301.906 1004.594,308.656 1010.219,316.531 
		1015.094,324.031 1019.594,332.656 1022.969,341.281 1025.594,350.281 1027.844,359.281 1033.844,369.781 1037.594,380.281 
		1035.719,398.844 807.344,411.594 808.844,407.469 817.469,387.406 	"/>
	<polygon fill="#A80000" stroke="#000000" stroke-width="1.689" stroke-linejoin="round" points="26.594,382.906 26.594,373.156 
		28.094,362.656 30.344,352.906 33.344,343.156 37.094,333.406 41.594,324.406 47.219,315.781 53.219,307.906 60.344,300.406 
		67.469,293.469 75.719,287.469 84.344,281.844 92.969,277.344 102.344,273.219 111.906,270.219 121.656,267.969 131.781,266.844 
		141.906,266.469 151.656,266.844 162.156,267.969 171.906,270.219 181.656,273.219 191.031,277.344 200.031,281.844 
		208.094,287.469 215.969,293.469 223.469,300.406 230.219,307.906 236.594,315.781 241.844,324.406 246.344,333.406 
		250.469,343.156 253.469,352.906 255.719,362.656 256.844,373.156 257.594,382.906 256.844,393.406 252.719,413.094 
		17.219,417.594 21.344,405.969 23.969,394.531 	"/>
	<polygon fill="#A80000" stroke="#000000" stroke-width="1.689" stroke-linejoin="round" points="257.219,379.156 257.594,369.031 
		259.094,358.906 260.969,349.156 264.344,339.406 268.094,329.656 272.969,320.656 278.219,312.031 284.219,304.156 
		291.344,296.469 298.281,289.719 306.156,283.344 314.781,278.094 323.781,273.219 333.156,269.469 342.906,266.469 
		352.656,264.219 362.781,263.094 372.906,262.344 383.031,263.094 392.969,264.219 402.719,266.469 412.469,269.469 
		421.469,273.219 430.469,278.094 439.094,283.344 447.344,289.719 454.469,296.469 461.219,304.156 467.594,312.031 
		473.219,320.656 477.719,329.656 481.469,339.406 484.469,349.156 486.719,358.906 487.656,369.031 488.406,379.156 
		487.656,389.281 486.719,399.594 248.219,413.469 252.719,402.219 254.969,390.781 	"/>
	<polygon fill="#A80000" stroke="#000000" stroke-width="1.689" stroke-linejoin="round" points="248.969,284.094 248.594,281.469 
		247.469,278.469 245.594,276.219 242.969,274.344 240.344,273.219 237.344,272.844 234.344,273.219 231.719,274.344 
		229.469,276.219 227.594,278.469 226.469,281.469 226.094,284.094 226.469,287.094 227.594,290.094 229.469,292.344 
		231.719,294.219 234.344,295.344 237.344,295.719 240.344,295.344 242.969,294.219 245.594,292.344 247.469,290.094 
		248.594,287.094 248.969,284.094 	"/>
	<polygon fill="#A89187" stroke="#000000" stroke-width="1.689" stroke-linejoin="round" points="248.594,281.844 248.219,279.219 
		247.094,276.969 245.594,275.094 243.344,273.594 240.719,272.844 238.094,272.844 235.844,273.594 233.594,275.094 
		231.719,276.969 230.969,279.219 230.594,281.844 230.969,284.469 231.719,286.719 233.594,288.969 235.844,290.094 
		238.094,290.844 240.719,290.844 243.344,290.094 245.594,288.969 247.094,286.719 248.219,284.469 248.594,281.844 	"/>
	<polygon stroke="#A89187" stroke-width="1.689" stroke-linejoin="round" points="143.031,279.594 153.531,279.594 165.156,281.844 
		176.406,284.469 185.406,288.969 196.281,293.094 205.469,299.656 213.719,306.406 221.969,314.281 228.719,322.531 
		235.469,332.281 239.969,342.406 244.469,352.156 247.094,363.031 248.219,374.656 249.719,386.281 248.219,396.406 
		247.094,407.469 244.469,418.344 239.969,427.719 235.469,438.219 228.719,447.969 221.969,456.219 213.719,464.094 
		205.469,470.844 196.281,477.969 185.406,482.094 176.406,486.219 165.156,488.469 153.531,490.344 143.031,491.469 
		131.031,490.344 119.781,488.469 108.531,486.219 98.969,482.094 88.844,477.969 79.469,470.844 70.844,464.094 62.594,456.219 
		55.844,447.969 49.094,438.219 44.594,427.719 40.469,418.344 37.844,407.469 36.344,396.406 36.344,386.281 36.344,374.656 
		37.844,363.031 40.469,352.156 44.594,342.406 49.094,332.281 55.844,322.531 62.594,314.281 70.844,306.406 79.469,299.656 
		88.844,293.094 98.969,288.969 108.531,284.469 119.781,281.844 131.031,279.594 	"/>
	<polygon fill="none" stroke="#FFFFFF" stroke-width="1.689" stroke-linejoin="round" points="208.094,387.781 207.719,381.031 
		206.594,374.281 204.719,367.531 202.094,361.156 199.281,354.781 195.156,349.156 191.031,343.906 185.781,339.031 
		180.531,334.531 174.531,331.156 168.531,327.781 161.781,325.531 155.406,324.031 148.281,322.906 141.531,322.906 
		134.406,323.281 127.656,324.781 121.281,326.656 114.906,329.281 108.906,332.656 103.094,336.781 98.219,341.281 93.344,346.531 
		89.219,351.781 85.844,357.781 82.844,364.156 80.594,370.906 79.094,377.656 78.344,384.406 78.344,391.531 79.094,398.094 
		80.594,404.844 82.844,411.219 85.844,417.594 89.219,423.594 93.344,429.219 98.219,434.469 103.094,438.969 108.906,442.719 
		114.906,446.094 121.281,449.094 127.656,450.969 134.406,452.094 141.531,452.844 148.281,452.469 155.406,451.719 
		161.781,449.844 168.531,447.594 174.531,444.594 180.531,440.844 185.781,436.719 191.031,431.844 195.156,426.594 
		199.281,420.594 202.094,414.594 204.719,408.219 206.594,401.469 207.719,394.906 208.094,387.781 	"/>
	<polygon fill="#A89187" stroke="#A89187" stroke-width="1.689" stroke-linejoin="round" points="242.969,343.156 235.844,337.156 
		229.844,334.531 223.469,332.656 217.469,332.281 211.469,333.031 203.219,334.531 197.406,334.156 206.219,345.031 
		208.469,340.906 212.594,339.031 217.469,338.281 223.469,338.281 229.844,339.406 234.719,340.906 240.344,343.906 
		244.844,347.281 245.594,347.281 	"/>
	<polygon stroke="#A89187" stroke-width="1.689" stroke-linejoin="round" points="208.094,342.406 207.719,343.531 206.969,345.031 
		206.969,346.531 207.719,346.906 209.594,347.281 210.719,346.531 213.719,346.156 218.969,346.156 223.469,346.531 
		229.469,347.656 234.719,349.906 239.594,351.406 241.469,352.156 242.969,353.656 244.094,356.281 245.219,355.156 
		246.344,354.031 247.844,353.281 247.844,349.906 245.594,347.656 243.344,345.406 241.469,343.906 236.969,341.656 
		233.594,340.531 229.844,339.406 223.469,338.281 218.219,338.656 213.719,339.406 209.969,340.531 	"/>
	<polygon fill="#A89187" stroke="#A89187" stroke-width="1.689" stroke-linejoin="round" points="221.219,309.031 212.594,306.406 
		206.594,306.406 200.031,307.156 194.031,309.031 188.781,312.406 182.031,316.906 176.406,318.406 188.781,325.156 
		189.156,320.656 192.531,316.906 196.281,314.656 202.094,312.406 207.719,311.281 212.969,310.531 219.344,311.281 
		224.594,312.406 225.719,312.406 	"/>
	<polygon stroke="#A89187" stroke-width="1.689" stroke-linejoin="round" points="189.156,321.781 189.156,323.281 189.156,324.781 
		189.906,325.906 190.281,326.656 191.031,325.531 192.531,323.656 195.531,321.781 201.156,319.156 205.844,317.656 
		210.719,317.281 217.094,317.281 221.594,318.406 223.469,318.406 225.344,319.156 227.219,321.031 227.969,319.906 
		228.719,318.406 229.469,317.281 228.719,314.281 225.719,312.406 223.094,311.656 220.469,310.906 215.594,310.906 
		211.844,310.906 207.719,311.281 201.719,312.406 197.031,314.656 193.281,316.906 190.281,319.906 	"/>
	<polygon fill="#A89187" stroke="#A89187" stroke-width="1.689" stroke-linejoin="round" points="146.781,275.844 138.531,280.344 
		134.031,284.469 129.531,289.719 126.531,294.969 124.656,301.156 123.156,309.031 119.781,314.281 133.656,310.156 
		131.031,306.406 130.656,301.906 132.156,297.594 135.156,291.969 138.156,286.719 141.531,282.969 146.406,279.219 
		151.281,275.844 151.656,275.469 	"/>
	<polygon stroke="#A89187" stroke-width="1.689" stroke-linejoin="round" points="131.781,307.531 132.906,308.656 134.031,310.156 
		135.156,310.156 135.906,310.156 135.531,308.656 135.531,306.406 136.656,303.406 138.531,297.219 141.156,293.094 
		144.531,289.344 149.031,285.219 153.156,282.594 154.281,281.469 156.156,280.719 159.156,280.344 158.406,278.469 
		157.656,277.344 157.656,275.844 155.031,274.719 152.031,275.469 149.406,276.969 147.156,278.094 143.406,281.094 
		140.781,284.094 138.156,287.094 134.406,291.969 132.531,296.844 131.406,301.156 131.031,305.281 	"/>
	<polygon fill="#A89187" stroke="#A89187" stroke-width="1.689" stroke-linejoin="round" points="253.844,385.156 249.344,377.281 
		245.594,372.406 240.344,367.906 235.094,364.906 228.719,363.031 220.844,361.156 215.594,358.531 219.719,372.031 
		223.469,369.406 227.969,369.031 232.469,370.531 238.094,373.531 242.969,376.531 247.094,379.906 251.219,384.781 
		253.844,389.656 254.594,390.406 	"/>
	<polygon stroke="#A89187" stroke-width="1.689" stroke-linejoin="round" points="222.344,370.156 221.219,371.281 220.094,372.406 
		219.719,373.531 219.719,374.656 221.219,373.906 223.094,373.906 226.844,374.656 232.469,376.906 236.969,379.531 
		240.719,382.906 244.844,387.406 247.469,391.531 248.969,393.031 248.969,394.906 249.344,397.719 251.219,396.969 
		252.344,396.406 253.844,396.406 255.344,393.781 254.594,390.781 253.469,387.781 251.969,385.531 248.969,381.781 
		245.969,379.156 242.969,376.906 237.719,373.156 233.219,370.906 228.719,369.781 224.594,369.406 	"/>
	<polygon fill="#A89187" stroke="#A89187" stroke-width="1.689" stroke-linejoin="round" points="35.594,413.844 41.594,420.594 
		46.844,423.969 53.219,426.969 59.219,427.719 65.219,427.719 73.469,427.719 79.469,428.844 71.969,417.219 68.969,420.594 
		64.469,422.094 59.969,421.719 53.969,420.594 48.344,419.094 43.469,417.219 38.219,413.094 34.094,409.344 33.344,408.969 	"/>
	<polygon stroke="#A89187" stroke-width="1.689" stroke-linejoin="round" points="69.719,419.469 70.469,418.344 71.594,416.844 
		71.219,415.344 71.219,414.969 70.094,415.719 67.844,416.094 64.094,416.094 57.719,416.094 53.219,414.594 48.719,412.344 
		43.094,408.969 39.719,405.594 38.219,404.844 36.719,403.344 35.969,400.719 34.844,401.469 33.719,402.594 32.219,402.969 
		31.469,405.969 32.969,408.594 35.594,411.219 36.719,413.094 41.219,415.719 44.594,417.594 48.344,419.094 54.344,421.344 
		59.219,421.719 63.719,421.719 67.844,420.594 	"/>
	<polygon fill="#A89187" stroke="#A89187" stroke-width="1.689" stroke-linejoin="round" points="245.594,425.094 244.094,416.094 
		241.469,410.469 237.719,404.094 233.594,400.344 228.719,396.594 221.219,392.281 217.844,387.781 217.094,401.844 
		221.219,400.719 225.719,401.844 229.469,404.844 233.969,408.969 238.094,413.469 240.719,417.594 242.969,424.344 
		244.094,429.594 244.469,430.344 	"/>
	<polygon stroke="#A89187" stroke-width="1.689" stroke-linejoin="round" points="220.094,401.469 218.594,401.844 217.469,402.219 
		216.719,403.719 216.344,404.094 217.844,404.094 219.719,404.844 222.719,407.094 227.969,410.844 231.344,414.969 
		233.594,419.094 236.594,424.719 237.719,429.594 238.094,431.094 238.469,433.344 237.719,435.969 239.219,435.594 
		240.719,435.594 242.219,435.969 244.469,433.719 244.469,430.719 244.094,427.719 243.719,425.094 241.844,420.594 
		239.969,417.219 237.719,413.844 233.969,408.594 229.844,405.219 226.469,402.594 222.719,401.094 	"/>
	<polygon fill="#A89187" stroke="#A89187" stroke-width="1.689" stroke-linejoin="round" points="189.906,287.094 180.906,287.844 
		174.906,289.344 168.531,292.344 164.031,295.719 159.906,300.406 154.656,307.156 149.781,310.531 163.281,312.406 
		162.906,308.656 164.781,303.781 167.781,300.406 172.656,296.469 177.906,293.469 182.406,291.219 188.781,289.719 
		194.031,289.344 194.781,288.969 	"/>
	<polygon stroke="#A89187" stroke-width="1.689" stroke-linejoin="round" points="163.281,309.781 163.656,310.906 164.031,312.406 
		165.531,313.156 165.906,313.531 166.281,312.406 167.031,310.156 169.281,307.531 173.406,302.656 177.906,300.031 
		182.406,298.344 188.406,296.469 193.281,295.719 194.781,295.344 196.281,295.344 199.656,296.469 199.281,294.969 
		199.656,293.469 200.031,291.969 198.156,289.344 195.156,288.969 192.156,288.969 189.906,288.969 185.031,290.469 
		180.906,291.969 177.906,293.469 171.906,296.469 168.531,300.031 165.531,303.406 163.281,307.156 	"/>
	<polygon fill="#A89187" stroke="#A89187" stroke-width="1.689" stroke-linejoin="round" points="50.969,447.219 58.469,452.469 
		64.094,455.094 71.219,456.219 76.844,456.594 83.219,455.469 91.094,453.219 97.094,453.969 87.344,443.469 85.094,447.219 
		81.344,449.469 76.469,450.219 70.469,450.594 64.469,450.219 59.219,448.719 53.594,446.094 49.094,443.094 47.969,442.719 	"/>
	<polygon stroke="#A89187" stroke-width="1.689" stroke-linejoin="round" points="85.844,446.094 86.219,444.594 86.969,443.469 
		86.594,441.969 86.219,441.594 85.094,441.969 83.219,443.094 79.844,444.219 73.469,444.969 68.219,444.219 63.719,443.094 
		57.719,441.219 53.594,438.594 52.094,437.844 50.594,436.719 49.094,434.094 48.344,435.219 47.219,436.344 45.719,437.094 
		45.719,440.469 47.969,442.719 50.594,444.219 52.094,446.094 56.969,447.969 60.719,449.094 64.469,450.219 70.844,450.969 
		75.719,450.219 80.594,449.469 83.969,447.969 	"/>
	<polygon fill="#A89187" stroke="#A89187" stroke-width="1.689" stroke-linejoin="round" points="77.969,474.969 86.969,476.469 
		92.969,476.469 99.719,474.969 104.969,472.344 110.406,468.594 116.406,463.344 122.031,461.469 108.906,455.844 108.531,460.344 
		106.281,464.094 102.719,466.719 97.094,469.719 91.469,471.594 86.219,472.719 79.844,472.719 74.219,472.344 73.469,472.344 	"/>
	<polygon stroke="#A89187" stroke-width="1.689" stroke-linejoin="round" points="108.531,459.219 108.531,457.719 108.531,455.844 
		107.406,455.094 107.031,454.344 106.656,455.844 105.344,457.719 102.719,459.594 97.094,463.344 92.219,464.844 87.719,465.969 
		81.719,466.344 76.844,465.969 74.969,466.344 73.094,465.594 70.469,463.719 70.469,465.219 70.094,466.719 68.969,467.844 
		70.469,470.844 73.094,472.344 76.094,472.719 78.719,473.469 83.594,473.094 87.344,472.344 91.094,471.594 97.094,469.719 
		101.594,467.094 105.344,464.094 107.781,461.469 	"/>
	<polygon fill="#A89187" stroke="#A89187" stroke-width="1.689" stroke-linejoin="round" points="33.344,373.531 36.719,381.781 
		40.094,387.031 44.969,392.281 49.469,395.656 55.469,398.094 62.969,400.719 67.844,404.469 65.594,390.781 61.469,392.656 
		56.969,392.281 52.469,390.406 47.594,387.031 43.094,383.281 39.344,379.531 36.344,373.906 34.094,368.656 33.344,367.906 	"/>
	<polygon stroke="#A89187" stroke-width="1.689" stroke-linejoin="round" points="62.594,391.906 64.094,391.156 65.219,390.406 
		65.594,388.906 65.594,388.156 64.469,388.531 62.219,388.156 59.219,387.031 53.219,384.406 49.469,380.656 46.469,377.281 
		42.344,372.031 40.469,367.531 39.344,366.031 38.969,364.156 38.969,361.156 37.469,361.906 36.344,362.281 34.469,361.906 
		32.969,364.531 33.344,367.531 34.094,370.906 35.219,373.156 37.844,377.281 40.469,380.281 43.094,382.906 47.969,387.031 
		52.094,389.656 56.594,391.531 60.344,392.281 	"/>
	<polygon fill="#A89187" stroke="#A89187" stroke-width="1.689" stroke-linejoin="round" points="117.156,491.469 123.531,489.969 
		129.156,487.719 134.781,483.219 138.906,479.094 142.281,473.469 146.031,466.344 150.156,462.219 135.906,462.594 
		137.406,466.344 136.656,471.219 134.031,475.344 130.281,479.844 125.406,483.969 121.656,486.969 115.656,489.594 
		113.781,489.969 115.281,491.094 	"/>
	<polygon stroke="#A89187" stroke-width="1.689" stroke-linejoin="round" points="137.031,465.594 136.281,464.094 135.906,462.594 
		134.406,462.219 133.656,461.844 134.031,463.344 133.281,465.219 131.406,468.594 128.031,473.844 124.281,477.594 
		120.156,479.844 114.906,483.219 110.031,484.719 108.531,485.469 106.281,485.469 103.844,484.719 103.844,486.969 
		104.219,487.344 104.219,487.719 107.031,488.469 109.281,489.594 111.906,490.719 114.906,490.344 119.031,488.469 
		122.406,486.219 125.406,483.969 130.281,479.844 133.656,475.719 135.906,471.594 137.031,467.844 	"/>
	<polygon fill="#FFA800" stroke="#A80000" stroke-width="1.689" stroke-linejoin="round" points="195.531,387.031 195.156,380.656 
		194.031,374.656 192.156,368.656 189.531,363.031 186.531,357.406 182.781,352.531 178.281,348.031 173.406,344.281 
		168.156,340.906 162.531,338.281 156.906,336.031 150.531,334.906 144.531,334.156 138.156,334.531 132.156,335.281 
		126.156,337.156 120.156,339.406 114.906,342.406 109.656,346.156 105.344,350.281 101.219,355.156 97.844,360.031 94.844,365.656 
		92.594,371.656 91.094,377.656 90.344,384.031 90.344,390.031 91.094,396.406 92.594,402.219 94.844,407.844 97.844,413.469 
		101.219,418.719 105.344,423.594 109.656,427.719 114.906,431.469 120.156,434.469 126.156,436.719 132.156,438.219 
		138.156,439.344 144.531,439.344 150.531,438.969 156.906,437.469 162.531,435.594 168.156,432.969 173.406,429.594 
		178.281,425.469 182.781,421.344 186.531,416.094 189.531,410.844 192.156,405.219 194.031,399.219 195.156,393.031 
		195.531,387.031 	"/>
	<polygon fill="#A80000" stroke="#A80000" stroke-width="1.689" stroke-linejoin="round" points="188.406,387.031 188.031,381.406 
		186.906,375.406 185.031,369.781 182.406,364.531 179.406,359.656 175.656,355.156 171.156,351.031 166.281,347.656 
		161.031,345.031 155.406,343.156 149.781,341.656 143.781,341.281 137.781,341.281 132.156,342.406 126.531,343.906 
		120.906,346.156 116.031,349.531 111.531,352.906 107.406,357.406 103.844,361.906 100.844,367.156 98.969,372.781 97.469,378.406 
		96.719,384.406 96.719,390.031 97.469,396.031 98.969,401.469 100.844,407.094 103.844,412.344 107.406,416.844 111.531,421.344 
		116.031,424.719 120.906,428.094 126.531,430.344 132.156,431.844 137.781,432.969 143.781,432.969 149.781,432.594 
		155.406,431.094 161.031,429.219 166.281,426.594 171.156,423.219 175.656,419.094 179.406,414.594 182.406,409.719 
		185.031,404.469 186.906,398.844 188.031,393.031 188.406,387.031 	"/>
	<polygon fill="#A89187" stroke="#A89187" stroke-width="1.689" stroke-linejoin="round" points="164.406,491.094 167.031,489.594 
		171.531,484.719 175.281,478.719 177.531,473.469 178.281,467.094 179.406,458.844 181.656,453.219 168.531,458.844 
		171.531,462.219 172.281,466.719 171.531,471.594 169.656,477.219 166.656,482.844 164.031,486.969 159.531,491.469 
		160.656,492.219 162.156,491.844 	"/>
	<polygon stroke="#A89187" stroke-width="1.689" stroke-linejoin="round" points="170.781,461.469 169.281,460.344 168.531,459.219 
		167.031,459.219 166.281,459.219 166.656,460.344 167.031,462.594 166.656,466.344 165.531,472.344 162.906,477.219 
		160.281,481.344 155.781,485.844 152.781,488.844 150.156,490.344 149.781,491.469 146.781,491.844 147.531,493.344 
		150.906,493.344 151.281,493.344 153.156,493.344 155.781,493.344 157.281,493.344 159.531,492.969 162.156,489.219 
		164.781,485.844 166.656,482.844 170.031,477.219 171.156,472.344 171.906,467.469 171.906,463.344 	"/>
	<polygon fill="#A89187" stroke="#A89187" stroke-width="1.689" stroke-linejoin="round" points="77.219,296.469 72.719,304.531 
		71.219,310.531 70.469,317.656 70.844,323.281 72.719,329.656 75.344,337.156 75.719,343.531 85.094,332.656 80.969,330.781 
		77.969,327.031 76.844,322.531 76.094,316.531 76.094,310.156 76.469,305.281 78.719,299.094 80.969,294.219 80.969,293.094 	"/>
	<polygon stroke="#A89187" stroke-width="1.689" stroke-linejoin="round" points="81.719,331.156 83.219,331.531 84.719,332.281 
		86.219,331.531 86.969,331.156 85.844,330.406 84.344,328.531 83.219,324.781 81.719,318.781 81.719,313.531 82.469,308.656 
		83.969,302.656 86.219,298.719 86.594,296.469 87.719,295.344 89.969,293.469 88.469,292.719 87.344,291.969 86.594,290.469 
		83.219,290.469 81.719,293.094 79.844,295.719 78.719,297.969 77.219,302.281 76.469,306.406 76.094,310.156 75.719,316.906 
		76.844,321.781 77.969,326.281 80.219,329.656 	"/>
	<polygon fill="#A89187" stroke="#A89187" stroke-width="1.689" stroke-linejoin="round" points="108.156,281.844 101.969,288.219 
		98.219,293.469 95.969,300.031 94.094,305.281 94.094,312.031 94.844,319.906 92.969,325.906 104.969,318.781 101.969,315.781 
		100.469,311.281 100.469,306.406 101.219,300.406 103.094,294.594 104.969,289.719 108.906,284.844 112.656,280.719 
		113.031,279.594 	"/>
	<polygon stroke="#A89187" stroke-width="1.689" stroke-linejoin="round" points="102.719,316.531 103.844,317.281 105.344,318.031 
		106.281,318.031 107.406,317.656 106.281,316.531 105.906,314.656 105.906,310.906 106.281,304.531 107.406,299.656 
		109.656,295.344 113.031,289.719 116.406,286.719 117.156,284.844 118.281,283.719 121.281,282.594 120.531,281.469 
		119.406,280.344 119.031,278.469 116.031,278.094 113.406,279.594 111.156,281.469 108.906,283.719 106.281,287.844 
		104.969,291.219 103.094,294.969 101.219,300.406 100.469,306.031 100.469,310.531 101.594,314.281 	"/>
	<polygon fill="#A89187" stroke="#A89187" stroke-width="1.689" stroke-linejoin="round" points="47.219,330.406 46.844,339.406 
		47.969,345.406 50.594,352.156 53.594,357.031 57.719,361.906 63.719,367.531 66.719,372.406 70.469,358.906 65.594,359.281 
		61.469,357.031 58.469,353.656 54.719,348.406 52.094,343.156 50.594,338.281 49.469,331.531 49.469,325.906 49.094,325.531 	"/>
	<polygon stroke="#A89187" stroke-width="1.689" stroke-linejoin="round" points="66.719,358.906 68.594,358.531 70.094,358.531 
		70.469,357.031 71.219,356.656 69.719,356.281 67.844,355.156 65.219,352.906 61.094,348.031 58.844,343.156 57.344,339.031 
		55.844,332.656 55.844,327.781 55.469,325.906 55.844,324.031 56.969,321.406 55.469,321.031 53.969,321.031 52.469,319.906 
		49.844,321.781 49.094,324.781 49.094,328.156 48.719,330.781 49.469,335.656 50.969,339.406 52.094,343.156 54.719,349.156 
		58.094,352.906 61.094,356.281 64.469,358.531 	"/>
	<polygon fill="#A89187" stroke="#A89187" stroke-width="1.689" stroke-linejoin="round" points="198.906,479.094 203.219,471.594 
		205.469,466.344 206.594,459.594 206.219,453.969 204.719,447.969 202.094,440.844 202.094,434.844 192.531,444.969 
		196.281,446.844 198.906,450.219 200.406,454.719 200.781,460.344 200.781,466.344 200.031,471.219 197.406,476.844 
		194.781,481.344 194.781,482.469 	"/>
	<polygon stroke="#A89187" stroke-width="1.689" stroke-linejoin="round" points="195.156,446.094 193.656,445.719 192.531,445.344 
		191.031,445.719 190.281,446.094 191.406,446.844 192.531,448.719 193.656,452.094 194.781,458.094 194.781,462.969 
		194.031,467.469 192.156,473.094 189.906,477.219 189.156,478.719 188.031,480.219 185.406,482.094 187.281,482.844 
		188.031,483.219 189.156,484.719 192.156,484.719 194.406,482.469 196.281,479.844 197.406,477.969 198.906,473.469 
		200.031,469.719 200.406,466.344 201.156,460.344 200.031,455.469 198.906,450.969 197.031,447.219 	"/>
	<polygon fill="#A89187" stroke="#A89187" stroke-width="1.689" stroke-linejoin="round" points="228.719,456.594 230.969,448.344 
		230.969,442.719 229.844,436.344 227.969,431.094 224.969,426.219 220.094,420.219 218.219,414.969 211.844,426.594 
		216.344,427.344 220.094,429.594 222.344,433.344 224.969,438.594 226.469,444.219 227.219,448.719 226.844,454.719 
		225.719,459.594 225.719,460.344 	"/>
	<polygon stroke="#A89187" stroke-width="1.689" stroke-linejoin="round" points="215.219,427.344 213.344,427.344 211.844,426.969 
		211.094,427.719 210.344,428.469 211.469,428.844 213.344,429.969 215.594,432.969 218.594,438.219 219.719,442.344 
		220.469,446.844 220.469,452.469 219.344,456.969 219.719,458.469 218.969,460.344 217.094,462.594 218.594,462.969 
		220.094,463.344 221.219,464.094 223.844,463.344 225.719,460.719 226.469,458.094 227.219,455.844 227.219,451.344 
		226.844,447.969 226.469,444.219 224.969,438.594 222.719,434.469 220.469,430.719 217.094,427.719 	"/>
	<polygon stroke="#A80000" stroke-width="1.689" stroke-linejoin="round" points="178.656,387.031 178.281,381.781 177.156,376.531 
		175.281,371.656 172.656,367.156 169.656,363.031 165.906,359.281 161.406,356.281 156.906,354.031 152.031,352.156 
		146.781,351.406 141.531,351.031 136.281,351.781 131.406,352.906 126.531,355.156 122.031,357.781 117.906,361.156 
		114.531,364.906 111.531,369.406 109.281,374.281 107.781,379.156 107.031,384.406 107.031,389.656 107.781,394.906 
		109.281,399.594 111.531,404.469 114.531,408.594 117.906,412.719 122.031,416.094 126.531,418.719 131.406,420.969 
		136.281,422.094 141.531,422.844 146.781,422.469 152.031,421.719 156.906,419.844 161.406,417.594 165.906,414.219 
		169.656,410.844 172.656,406.719 175.281,402.219 177.156,396.969 178.281,392.281 178.656,387.031 	"/>
	<polygon fill="#FFA800" stroke="#A80000" stroke-width="1.689" stroke-linejoin="round" points="171.531,387.031 171.156,382.531 
		170.031,378.031 168.156,373.531 165.531,369.781 162.531,366.406 159.156,363.406 155.031,361.156 150.906,359.281 
		146.406,358.531 141.531,358.156 137.031,358.906 132.906,360.031 128.406,362.281 124.656,364.906 121.281,367.906 
		118.656,371.656 116.406,375.781 115.281,380.281 114.531,384.781 114.531,389.281 115.281,393.781 116.406,398.094 
		118.656,402.219 121.281,405.969 124.656,408.969 128.406,411.594 132.906,413.469 137.031,414.969 141.531,415.344 
		146.406,415.344 150.906,414.219 155.031,412.719 159.156,410.469 162.531,407.469 165.531,404.094 168.156,399.969 
		170.031,396.031 171.156,391.531 171.531,387.031 	"/>
	<polygon stroke="#A89187" stroke-width="1.689" stroke-linejoin="round" points="374.031,279.594 384.531,279.594 395.969,281.844 
		407.219,284.469 416.594,288.969 426.719,293.094 436.094,299.656 444.719,306.406 452.969,314.281 459.719,322.531 
		466.844,332.281 470.969,342.406 475.469,352.156 478.094,363.031 479.594,374.656 480.719,386.281 479.594,396.406 
		478.094,407.469 475.469,418.344 470.969,427.719 466.844,438.219 459.719,447.969 452.969,456.219 444.719,464.094 
		436.094,470.844 426.719,477.969 416.594,482.094 407.219,486.219 395.969,488.469 384.531,490.344 374.031,491.469 
		362.031,490.344 350.781,488.469 339.531,486.219 330.156,482.094 319.656,477.969 310.281,470.844 302.031,464.094 
		293.969,456.219 286.844,447.969 280.094,438.219 275.594,427.719 271.469,418.344 268.844,407.469 267.344,396.406 
		267.344,386.281 267.344,374.656 268.844,363.031 271.469,352.156 275.594,342.406 280.094,332.281 286.844,322.531 
		293.969,314.281 302.031,306.406 310.281,299.656 319.656,293.094 330.156,288.969 339.531,284.469 350.781,281.844 
		362.031,279.594 	"/>
	<polygon fill="none" stroke="#FFFFFF" stroke-width="1.689" stroke-linejoin="round" points="439.094,387.781 438.719,381.031 
		437.594,374.281 435.719,367.531 433.094,361.156 430.094,354.781 426.344,349.156 421.844,343.906 416.969,339.031 
		411.344,334.531 405.719,331.156 399.344,327.781 392.969,325.531 386.406,324.031 379.281,322.906 372.531,322.906 
		365.781,323.281 359.031,324.781 352.281,326.656 345.906,329.281 339.906,332.656 334.281,336.781 329.031,341.281 
		324.156,346.531 320.031,351.781 316.656,357.781 313.656,364.156 311.781,370.906 310.281,377.656 309.531,384.406 
		309.531,391.531 310.281,398.094 311.781,404.844 313.656,411.219 316.656,417.594 320.031,423.594 324.156,429.219 
		329.031,434.469 334.281,438.969 339.906,442.719 345.906,446.094 352.281,449.094 359.031,450.969 365.781,452.094 
		372.531,452.844 379.281,452.469 386.406,451.719 392.969,449.844 399.344,447.594 405.719,444.594 411.344,440.844 
		416.969,436.719 421.844,431.844 426.344,426.594 430.094,420.594 433.094,414.594 435.719,408.219 437.594,401.469 
		438.719,394.906 439.094,387.781 	"/>
	<polygon fill="#A89187" stroke="#A89187" stroke-width="1.689" stroke-linejoin="round" points="473.969,343.156 466.844,337.156 
		461.219,334.531 454.469,332.656 448.469,332.281 442.469,333.031 434.219,334.531 428.219,334.156 437.219,345.031 
		439.844,340.906 443.594,339.031 448.469,338.281 454.469,338.281 460.844,339.406 465.719,340.906 471.344,343.906 
		475.844,347.281 476.594,347.281 	"/>
	<polygon stroke="#A89187" stroke-width="1.689" stroke-linejoin="round" points="439.094,342.406 438.719,343.531 437.969,345.031 
		438.344,346.531 438.719,346.906 440.594,347.281 441.719,346.531 444.719,346.156 449.969,346.156 454.469,346.531 
		460.469,347.656 465.719,349.906 470.594,351.406 472.469,352.156 473.969,353.656 475.094,356.281 476.219,355.156 
		477.344,354.031 478.469,353.281 478.844,349.906 476.969,347.656 474.344,345.406 472.469,343.906 467.969,341.656 
		464.219,340.531 460.844,339.406 454.094,338.281 449.219,338.656 444.719,339.406 440.969,340.531 	"/>
	<polygon fill="#A89187" stroke="#A89187" stroke-width="1.689" stroke-linejoin="round" points="452.594,309.031 443.594,306.406 
		437.594,306.406 430.469,307.156 424.844,309.031 419.594,312.406 412.844,316.906 406.844,318.406 419.594,325.156 
		420.344,320.656 423.344,316.906 427.469,314.656 432.719,312.406 439.094,311.281 443.969,310.531 450.344,311.281 
		455.594,312.406 456.719,312.406 	"/>
	<polygon stroke="#A89187" stroke-width="1.689" stroke-linejoin="round" points="419.969,321.781 419.969,323.281 419.969,324.781 
		420.719,325.906 421.094,326.656 422.219,325.531 423.344,323.656 426.344,321.781 431.969,319.156 436.844,317.656 
		441.719,317.281 448.094,317.281 452.594,318.406 454.469,318.406 456.344,319.156 458.594,321.031 458.969,319.906 
		459.719,318.406 460.469,317.281 459.719,314.281 456.719,312.406 454.094,311.656 451.469,310.906 446.594,310.906 
		442.844,310.906 439.094,311.281 432.719,312.406 427.844,314.656 424.094,316.906 421.094,319.906 	"/>
	<polygon fill="#A89187" stroke="#A89187" stroke-width="1.689" stroke-linejoin="round" points="377.781,275.844 369.531,280.344 
		365.031,284.469 360.531,289.719 357.531,294.969 356.031,301.156 354.156,309.031 350.781,314.281 364.656,310.156 
		362.031,306.406 361.656,301.906 363.156,297.594 366.156,291.969 369.156,286.719 372.531,282.969 377.406,279.219 
		382.281,275.844 382.656,275.469 	"/>
	<polygon stroke="#A89187" stroke-width="1.689" stroke-linejoin="round" points="362.781,307.531 363.906,308.656 365.031,310.156 
		366.156,310.156 366.906,310.156 366.531,308.656 366.531,306.406 367.656,303.406 369.531,297.219 372.156,293.094 
		375.531,289.344 380.031,285.219 384.156,282.594 385.281,281.469 387.156,280.719 390.156,280.344 389.406,278.469 
		388.656,277.344 388.656,275.844 386.031,274.719 383.031,275.469 380.406,276.969 378.156,278.094 374.406,281.094 
		371.781,284.094 369.156,287.094 365.406,291.969 363.531,296.844 362.406,301.156 362.031,305.281 	"/>
	<polygon fill="#A89187" stroke="#A89187" stroke-width="1.689" stroke-linejoin="round" points="484.844,385.156 480.344,377.281 
		476.594,372.406 471.344,367.906 466.094,364.906 460.094,363.031 451.844,361.156 446.969,358.531 450.719,372.031 
		454.094,369.406 458.969,369.031 463.469,370.531 469.094,373.531 473.969,376.531 478.094,379.906 482.219,384.781 
		484.844,389.656 485.594,390.406 	"/>
	<polygon stroke="#A89187" stroke-width="1.689" stroke-linejoin="round" points="453.344,370.156 452.594,371.281 451.094,372.406 
		451.094,373.531 451.094,374.656 452.594,373.906 454.094,373.906 457.844,374.656 463.469,376.906 467.969,379.531 
		471.719,382.906 475.844,387.406 478.469,391.531 479.594,393.031 480.344,394.906 480.344,397.719 482.219,396.969 
		483.344,396.406 484.844,396.406 486.344,393.781 485.594,390.781 484.469,387.781 482.969,385.531 479.969,381.781 
		476.969,379.156 473.969,376.906 468.719,373.156 464.219,370.906 459.719,369.781 455.594,369.406 	"/>
	<polygon fill="#A89187" stroke="#A89187" stroke-width="1.689" stroke-linejoin="round" points="266.219,413.844 272.594,420.594 
		277.844,423.969 284.219,426.969 290.219,427.719 296.406,427.719 304.281,427.719 310.281,428.844 302.781,417.219 
		300.156,420.594 295.469,422.094 290.969,421.719 284.969,420.594 278.969,419.094 274.469,417.219 269.219,413.094 
		265.469,409.344 264.344,408.969 	"/>
	<polygon stroke="#A89187" stroke-width="1.689" stroke-linejoin="round" points="300.531,419.469 301.281,418.344 302.031,416.844 
		302.031,415.344 302.031,414.969 300.906,415.719 298.656,416.094 295.094,416.094 289.094,416.094 284.219,414.594 
		279.719,412.344 274.469,408.969 270.719,405.594 268.844,404.844 268.094,403.344 266.969,400.719 265.844,401.469 
		264.719,402.594 263.219,402.969 262.469,405.969 264.344,408.594 266.219,411.219 268.094,413.094 272.219,415.719 
		275.594,417.594 278.969,419.094 285.344,421.344 290.219,421.719 295.094,421.719 298.656,420.594 	"/>
	<polygon fill="#A89187" stroke="#A89187" stroke-width="1.689" stroke-linejoin="round" points="476.594,425.094 475.094,416.094 
		472.469,410.469 468.719,404.094 464.969,400.344 459.719,396.594 452.594,392.281 448.844,387.781 448.094,401.844 
		452.594,400.719 456.719,401.844 460.469,404.844 464.969,408.969 469.094,413.469 471.719,417.594 473.969,424.344 
		475.094,429.594 475.844,430.344 	"/>
	<polygon stroke="#A89187" stroke-width="1.689" stroke-linejoin="round" points="451.094,401.469 449.969,401.844 448.469,402.219 
		447.719,403.719 447.344,404.094 448.844,404.094 451.094,404.844 453.719,407.094 458.969,410.844 462.344,414.969 
		464.594,419.094 467.594,424.719 468.344,429.594 469.094,431.094 469.469,433.344 468.719,435.969 470.219,435.594 
		471.719,435.594 473.219,435.969 475.469,433.719 475.469,430.719 475.094,427.719 474.719,425.094 472.844,420.594 
		470.969,417.219 468.719,413.844 464.969,408.594 461.219,405.219 457.469,402.594 453.719,401.094 	"/>
	<polygon fill="#A89187" stroke="#A89187" stroke-width="1.689" stroke-linejoin="round" points="420.719,287.094 411.719,287.844 
		405.719,289.344 399.719,292.344 394.469,295.719 390.906,300.406 385.656,307.156 380.781,310.531 394.469,312.406 
		394.094,308.656 395.594,303.781 398.594,300.406 403.469,296.469 408.719,293.469 413.219,291.219 419.594,289.719 
		424.844,289.344 425.594,288.969 	"/>
	<polygon stroke="#A89187" stroke-width="1.689" stroke-linejoin="round" points="394.094,309.781 394.469,310.906 395.219,312.406 
		395.969,313.156 396.719,313.531 396.719,312.406 397.844,310.156 400.094,307.531 404.219,302.656 408.719,300.031 
		413.219,298.344 419.219,296.469 424.094,295.719 425.594,295.344 427.469,295.344 430.094,296.469 430.094,294.969 
		430.094,293.469 430.844,291.969 429.344,289.344 425.969,288.969 422.969,288.969 420.719,288.969 415.844,290.469 
		412.094,291.969 408.719,293.469 402.719,296.469 399.719,300.031 395.969,303.406 394.094,307.156 	"/>
	<polygon fill="#A89187" stroke="#A89187" stroke-width="1.689" stroke-linejoin="round" points="282.344,447.219 289.469,452.469 
		295.094,455.094 302.031,456.219 307.656,456.594 314.031,455.469 321.531,453.219 327.531,453.969 318.156,443.469 
		315.906,447.219 312.156,449.469 307.281,450.219 301.281,450.594 295.469,450.219 290.219,448.719 284.969,446.094 
		279.719,443.094 278.969,442.719 	"/>
	<polygon stroke="#A89187" stroke-width="1.689" stroke-linejoin="round" points="316.656,446.094 317.031,444.594 317.781,443.469 
		317.406,441.969 317.031,441.594 315.906,441.969 314.406,443.094 310.656,444.219 304.281,444.969 299.031,444.219 
		295.094,443.094 288.719,441.219 284.969,438.594 283.094,437.844 281.594,436.719 280.094,434.094 278.969,435.219 
		278.594,436.344 277.094,437.094 276.719,440.469 278.594,442.719 281.219,444.219 283.469,446.094 287.969,447.969 
		291.719,449.094 295.469,450.219 301.656,450.969 306.906,450.219 311.406,449.469 314.781,447.969 	"/>
	<polygon fill="#A89187" stroke="#A89187" stroke-width="1.689" stroke-linejoin="round" points="308.781,474.969 317.781,476.469 
		324.156,476.469 330.531,474.969 336.156,472.344 341.406,468.594 347.406,463.344 353.031,461.469 340.281,455.844 
		339.531,460.344 336.906,464.094 333.531,466.719 327.531,469.719 322.281,471.594 317.031,472.719 310.656,472.719 
		305.031,472.344 304.281,472.344 	"/>
	<polygon stroke="#A89187" stroke-width="1.689" stroke-linejoin="round" points="339.531,459.219 339.531,457.719 339.531,455.844 
		338.406,455.094 338.031,454.344 337.656,455.844 336.156,457.719 333.531,459.594 328.281,463.344 323.406,464.844 
		318.906,465.969 312.156,466.344 307.656,465.969 305.781,466.344 303.906,465.594 301.281,463.719 300.906,465.219 
		300.906,466.719 300.156,467.844 300.906,470.844 303.906,472.344 306.906,472.719 309.531,473.469 314.406,473.094 
		318.156,472.344 321.906,471.594 328.281,469.719 332.406,467.094 336.156,464.094 338.781,461.469 	"/>
	<polygon fill="#A89187" stroke="#A89187" stroke-width="1.689" stroke-linejoin="round" points="264.344,373.531 267.719,381.781 
		271.094,387.031 275.969,392.281 280.469,395.656 286.469,398.094 293.969,400.719 298.656,404.469 296.406,390.781 
		292.469,392.656 288.344,392.281 283.844,390.406 278.594,387.031 274.469,383.281 270.344,379.531 267.344,373.906 
		265.094,368.656 264.344,367.906 	"/>
	<polygon stroke="#A89187" stroke-width="1.689" stroke-linejoin="round" points="293.969,391.906 295.094,391.156 296.219,390.406 
		296.406,388.906 296.406,388.156 295.469,388.531 293.219,388.156 290.219,387.031 284.219,384.406 280.469,380.656 
		277.094,377.281 273.344,372.031 271.469,367.531 270.344,366.031 269.969,364.156 269.969,361.156 268.469,361.906 
		267.344,362.281 265.844,361.906 263.969,364.531 264.344,367.531 265.469,370.906 266.219,373.156 268.844,377.281 
		271.469,380.281 274.469,382.906 278.594,387.031 283.094,389.656 287.594,391.531 291.344,392.281 	"/>
	<polygon fill="#A89187" stroke="#A89187" stroke-width="1.689" stroke-linejoin="round" points="348.156,491.469 354.531,489.969 
		360.156,487.719 365.406,483.219 369.906,479.094 372.906,473.469 377.031,466.344 381.156,462.219 366.906,462.594 
		368.406,466.344 367.656,471.219 365.031,475.344 360.906,479.844 356.781,483.969 352.281,486.969 346.656,489.594 
		344.781,489.969 346.281,491.094 	"/>
	<polygon stroke="#A89187" stroke-width="1.689" stroke-linejoin="round" points="368.031,465.594 367.656,464.094 366.906,462.594 
		365.406,462.219 364.656,461.844 365.031,463.344 364.281,465.219 362.406,468.594 359.031,473.844 355.281,477.594 
		351.156,479.844 345.531,483.219 341.031,484.719 339.531,485.469 337.281,485.469 334.656,484.719 335.031,486.969 
		335.031,487.344 335.031,487.719 338.031,488.469 340.281,489.594 342.906,490.719 345.531,490.344 350.031,488.469 
		353.406,486.219 356.406,483.969 361.281,479.844 364.656,475.719 366.906,471.594 368.406,467.844 	"/>
	<polygon fill="#FFA800" stroke="#A80000" stroke-width="1.689" stroke-linejoin="round" points="426.344,387.031 425.969,380.656 
		424.844,374.656 422.969,368.656 420.719,363.031 417.344,357.406 413.594,352.531 409.469,348.031 404.594,344.281 
		399.344,340.906 393.344,338.281 387.906,336.031 381.531,334.906 375.531,334.156 369.156,334.531 363.156,335.281 
		357.156,337.156 351.156,339.406 345.906,342.406 340.656,346.156 336.156,350.281 332.031,355.156 328.656,360.031 
		325.656,365.656 323.406,371.656 321.906,377.656 321.156,384.031 321.156,390.031 321.906,396.406 323.406,402.219 
		325.656,407.844 328.656,413.469 332.031,418.719 336.156,423.594 340.656,427.719 345.906,431.469 351.156,434.469 
		357.156,436.719 363.156,438.219 369.156,439.344 375.531,439.344 381.531,438.969 387.906,437.469 393.344,435.594 
		399.344,432.969 404.594,429.594 409.469,425.469 413.594,421.344 417.344,416.094 420.719,410.844 422.969,405.219 
		424.844,399.219 425.969,393.031 426.344,387.031 	"/>
	<polygon fill="#A80000" stroke="#A80000" stroke-width="1.689" stroke-linejoin="round" points="419.594,387.031 419.219,381.406 
		418.094,375.406 416.219,369.781 413.594,364.531 410.594,359.656 406.844,354.781 402.344,351.031 397.469,347.656 
		392.219,344.656 386.781,342.781 381.156,341.281 375.156,340.906 369.156,340.906 363.156,342.031 357.531,343.531 
		352.281,346.156 347.031,349.156 342.531,352.906 338.406,357.031 334.656,361.906 331.656,367.156 329.406,372.781 
		327.906,378.406 327.156,384.406 327.156,390.031 327.906,396.031 329.406,401.469 331.656,407.094 334.656,412.344 
		338.406,417.219 342.531,421.344 347.031,425.094 352.281,428.094 357.531,430.344 363.156,432.219 369.156,433.344 
		375.156,433.344 381.156,432.969 386.781,431.469 392.219,429.594 397.469,426.594 402.344,423.219 406.844,419.094 
		410.594,414.594 413.594,409.719 416.219,404.469 418.094,398.844 419.219,393.031 419.594,387.031 	"/>
	<polygon fill="#A89187" stroke="#A89187" stroke-width="1.689" stroke-linejoin="round" points="395.219,491.094 398.219,489.594 
		402.344,484.719 406.094,478.719 408.344,473.469 409.094,467.094 409.844,458.844 412.469,453.219 399.344,458.844 
		402.344,462.219 403.094,466.719 402.344,471.594 400.469,477.219 397.469,482.844 395.219,486.969 390.906,491.469 
		391.844,492.219 392.969,491.844 	"/>
	<polygon stroke="#A89187" stroke-width="1.689" stroke-linejoin="round" points="401.219,461.469 400.094,460.344 399.344,459.219 
		397.844,459.219 396.719,459.219 397.469,460.344 397.844,462.594 397.094,466.344 395.969,472.344 394.094,477.219 
		391.281,481.344 386.781,485.844 383.781,488.844 381.156,490.344 380.781,491.469 377.781,491.844 378.906,493.344 
		381.906,493.344 382.656,493.344 384.531,493.344 386.781,493.344 388.281,493.344 390.531,492.969 393.344,489.219 
		395.594,485.844 397.469,482.844 400.844,477.219 401.969,472.344 402.719,467.469 402.719,463.344 	"/>
	<polygon fill="#A89187" stroke="#A89187" stroke-width="1.689" stroke-linejoin="round" points="308.031,296.469 303.531,304.531 
		302.031,310.531 300.906,317.656 301.656,323.281 303.531,329.656 306.156,337.156 306.531,343.531 315.906,332.656 
		311.781,330.781 309.156,327.031 307.656,322.531 306.906,316.531 306.906,310.156 307.281,305.281 309.531,299.094 
		312.156,294.219 312.156,293.094 	"/>
	<polygon stroke="#A89187" stroke-width="1.689" stroke-linejoin="round" points="312.906,331.156 314.406,331.531 315.531,332.281 
		317.031,331.531 317.781,331.156 316.656,330.406 315.531,328.531 314.406,324.781 312.531,318.781 312.531,313.531 
		313.281,308.656 314.781,302.656 317.031,298.719 317.406,296.469 318.531,295.344 320.781,293.469 319.281,292.719 
		318.156,291.969 317.406,290.469 314.406,290.469 312.156,293.094 310.656,295.719 309.531,297.969 308.031,302.281 
		307.281,306.406 306.906,310.156 306.531,316.906 307.656,321.781 309.156,326.281 311.031,329.656 	"/>
	<polygon fill="#A89187" stroke="#A89187" stroke-width="1.689" stroke-linejoin="round" points="339.156,281.844 332.781,288.219 
		329.031,293.469 326.781,300.031 325.281,305.281 324.906,312.031 325.656,319.906 324.156,325.906 336.156,318.781 
		332.781,315.781 331.281,311.281 331.281,306.406 332.406,300.406 333.906,294.594 336.156,289.719 339.906,284.844 
		343.656,280.719 344.031,279.594 	"/>
	<polygon stroke="#A89187" stroke-width="1.689" stroke-linejoin="round" points="333.531,316.531 335.031,317.281 336.156,318.031 
		337.281,318.031 338.406,317.656 337.281,316.531 336.906,314.656 336.906,310.906 336.906,304.531 338.406,299.656 
		340.656,295.344 344.031,289.719 347.406,286.719 348.156,284.844 349.656,283.719 352.281,282.594 351.156,281.469 
		350.406,280.344 350.031,278.469 347.031,278.094 344.406,279.594 342.156,281.469 340.281,283.719 337.281,287.844 
		335.781,291.219 334.281,294.969 332.031,300.406 331.281,306.031 331.281,310.531 332.406,314.281 	"/>
	<polygon fill="#A89187" stroke="#A89187" stroke-width="1.689" stroke-linejoin="round" points="278.219,330.406 277.844,339.406 
		278.594,345.406 281.219,352.156 284.219,357.031 288.719,361.906 295.094,367.531 297.531,372.406 300.906,358.906 
		296.406,359.281 292.469,357.031 289.469,353.656 285.719,348.406 283.094,343.156 281.219,338.281 280.469,331.531 
		280.469,325.906 279.719,325.531 	"/>
	<polygon stroke="#A89187" stroke-width="1.689" stroke-linejoin="round" points="297.906,358.906 299.406,358.531 300.906,358.531 
		301.281,357.031 302.031,356.656 300.531,356.281 298.656,355.156 296.406,352.906 292.094,348.031 289.844,343.156 
		288.344,339.031 286.844,332.656 286.844,327.781 286.469,325.906 286.844,324.031 287.969,321.406 286.469,321.031 
		284.969,321.031 283.469,319.906 280.844,321.781 280.094,324.781 279.719,328.156 279.719,330.781 280.844,335.656 
		281.969,339.406 283.094,343.156 285.719,349.156 289.094,352.906 292.094,356.281 295.469,358.531 	"/>
	<polygon fill="#A89187" stroke="#A89187" stroke-width="1.689" stroke-linejoin="round" points="429.344,479.094 434.219,471.594 
		436.469,466.344 437.594,459.594 437.219,453.969 435.719,447.969 433.094,440.844 432.719,434.844 423.344,444.969 
		427.469,446.844 430.094,450.219 430.844,454.719 431.594,460.344 431.594,466.344 430.469,471.219 428.219,476.844 
		425.594,481.344 425.594,482.469 	"/>
	<polygon stroke="#A89187" stroke-width="1.689" stroke-linejoin="round" points="425.969,446.094 424.469,445.719 423.344,445.344 
		422.219,445.719 421.094,446.094 422.219,446.844 423.344,448.719 424.094,452.094 425.594,458.094 425.594,462.969 
		424.844,467.469 422.969,473.094 420.719,477.219 420.344,478.719 418.844,480.219 416.594,482.094 418.094,482.844 
		418.844,483.219 419.969,484.719 422.969,484.719 425.219,482.469 426.719,479.844 428.219,477.969 430.094,473.469 
		430.469,469.719 431.594,466.344 431.969,460.344 430.844,455.469 430.094,450.969 427.844,447.219 	"/>
	<polygon fill="#A89187" stroke="#A89187" stroke-width="1.689" stroke-linejoin="round" points="460.094,456.594 462.344,448.344 
		462.344,442.719 461.219,436.344 458.969,431.094 455.969,426.219 451.094,420.219 449.219,414.969 442.844,426.594 
		447.344,427.344 451.094,429.594 453.344,433.344 455.969,438.594 457.469,444.219 458.219,448.719 457.469,454.719 
		456.719,459.594 457.094,460.344 	"/>
	<polygon stroke="#A89187" stroke-width="1.689" stroke-linejoin="round" points="445.844,427.344 444.344,427.344 443.219,426.969 
		442.094,427.719 441.344,428.469 442.469,428.844 444.344,429.969 446.594,432.969 449.594,438.219 451.094,442.344 
		451.469,446.844 451.469,452.469 450.344,456.969 450.719,458.469 449.969,460.344 448.094,462.594 449.969,462.969 
		451.094,463.344 452.594,464.094 455.219,463.344 456.719,460.719 457.469,458.094 458.219,455.844 458.219,451.344 
		457.844,447.969 457.469,444.219 455.969,438.594 453.719,434.469 451.469,430.719 448.469,427.719 	"/>
	<polygon stroke="#A80000" stroke-width="1.689" stroke-linejoin="round" points="409.469,387.031 409.094,381.781 407.969,376.531 
		406.094,371.656 403.844,367.156 400.469,363.031 396.719,359.281 392.594,356.281 387.906,354.031 383.031,352.156 
		377.781,351.406 372.531,351.031 367.281,351.781 362.406,352.906 357.531,355.156 353.031,357.781 348.906,361.156 
		345.531,364.906 342.531,369.406 340.281,374.281 338.781,379.156 338.031,384.406 338.031,389.656 338.781,394.906 
		340.281,399.594 342.531,404.469 345.531,408.594 348.906,412.719 353.031,416.094 357.531,418.719 362.406,420.969 
		367.281,422.094 372.531,422.844 377.781,422.469 383.031,421.719 387.906,419.844 392.594,417.594 396.719,414.219 
		400.469,410.844 403.844,406.719 406.094,402.219 407.969,396.969 409.094,392.281 409.469,387.031 	"/>
	<polygon fill="#FFA800" stroke="#A80000" stroke-width="1.689" stroke-linejoin="round" points="402.344,387.031 401.969,382.531 
		400.844,378.031 398.969,373.531 396.719,369.781 393.344,366.406 390.156,363.406 386.031,361.156 381.906,359.281 
		377.406,358.531 372.906,358.156 368.031,358.906 363.906,360.031 359.781,362.281 356.031,364.906 352.656,367.906 
		349.656,371.656 347.781,375.781 346.281,380.281 345.531,384.781 345.531,389.281 346.281,393.781 347.781,398.094 
		349.656,402.219 352.656,405.969 356.031,408.969 359.781,411.594 363.906,413.469 368.031,414.969 372.906,415.344 
		377.406,415.344 381.906,414.219 386.031,412.719 390.156,410.469 393.344,407.469 396.719,404.094 398.969,399.969 
		400.844,396.031 401.969,391.531 402.344,387.031 	"/>
	<polygon stroke="#A89187" stroke-width="1.689" stroke-linejoin="round" points="924.531,279.594 934.656,279.594 946.281,281.844 
		957.906,284.469 966.719,288.969 977.219,293.094 986.594,299.656 995.219,306.406 1003.094,314.281 1009.844,322.531 
		1016.969,332.281 1021.094,342.406 1025.594,352.156 1028.219,363.031 1029.719,374.656 1030.844,386.281 1029.719,396.406 
		1028.219,407.469 1025.594,418.344 1021.094,427.719 1016.969,438.219 1009.844,447.969 1003.094,456.219 995.219,464.094 
		986.594,470.844 977.219,477.969 966.719,482.094 957.906,486.219 946.281,488.469 934.656,490.344 924.531,491.469 
		912.156,490.344 901.281,488.469 890.031,486.219 880.281,482.094 870.156,477.969 860.594,470.844 852.344,464.094 
		844.094,456.219 836.969,447.969 830.219,438.219 826.094,427.719 821.594,418.344 818.969,407.469 817.469,396.406 
		817.469,386.281 817.469,374.656 818.969,363.031 821.594,352.156 826.094,342.406 830.219,332.281 836.969,322.531 
		844.094,314.281 852.344,306.406 860.594,299.656 870.156,293.094 880.281,288.969 890.031,284.469 901.281,281.844 
		912.156,279.594 	"/>
	<polygon fill="none" stroke="#FFFFFF" stroke-width="1.689" stroke-linejoin="round" points="989.219,387.781 988.844,381.031 
		987.719,374.281 985.844,367.531 983.594,361.156 980.219,354.781 976.469,349.156 971.969,343.906 967.094,339.031 
		961.656,334.531 956.031,331.156 949.656,327.781 943.281,325.531 936.531,324.031 929.781,322.906 922.656,322.906 
		915.906,323.281 909.156,324.781 902.406,326.656 896.031,329.281 890.031,332.656 884.406,336.781 879.156,341.281 
		874.656,346.531 870.531,351.781 866.969,357.781 864.344,364.156 862.094,370.906 860.594,377.656 859.844,384.406 
		859.844,391.531 860.594,398.094 862.094,404.844 864.344,411.219 866.969,417.594 870.531,423.594 874.656,429.219 
		879.156,434.469 884.406,438.969 890.031,442.719 896.031,446.094 902.406,449.094 909.156,450.969 915.906,452.094 
		922.656,452.844 929.781,452.469 936.531,451.719 943.281,449.844 949.656,447.594 956.031,444.594 961.656,440.844 
		967.094,436.719 971.969,431.844 976.469,426.594 980.219,420.594 983.594,414.594 985.844,408.219 987.719,401.469 
		988.844,394.906 989.219,387.781 	"/>
	<polygon fill="#A89187" stroke="#A89187" stroke-width="1.689" stroke-linejoin="round" points="1024.469,343.156 
		1016.969,337.156 1011.344,334.531 1004.969,332.656 998.969,332.281 992.594,333.031 984.344,334.531 978.719,334.156 
		987.719,345.031 989.969,340.906 994.094,339.031 998.969,338.281 1004.969,338.281 1010.969,339.406 1015.844,340.906 
		1021.844,343.906 1025.969,347.281 1027.094,347.281 	"/>
	<polygon stroke="#A89187" stroke-width="1.689" stroke-linejoin="round" points="989.219,342.406 988.844,343.531 988.094,345.031 
		988.469,346.531 988.844,346.906 990.719,347.281 991.844,346.531 995.219,346.156 1000.094,346.156 1004.969,346.531 
		1010.594,347.656 1015.844,349.906 1021.094,351.406 1022.969,352.156 1024.094,353.656 1025.594,356.281 1026.344,355.156 
		1027.469,354.031 1028.969,353.281 1029.344,349.906 1027.094,347.656 1024.844,345.406 1022.969,343.906 1018.469,341.656 
		1014.719,340.531 1010.969,339.406 1004.594,338.281 999.344,338.656 994.844,339.406 991.094,340.531 	"/>
	<polygon fill="#A89187" stroke="#A89187" stroke-width="1.689" stroke-linejoin="round" points="1002.719,309.031 994.094,306.406 
		988.094,306.406 980.969,307.156 975.344,309.031 969.719,312.406 963.156,316.906 957.531,318.406 969.719,325.156 
		970.469,320.656 973.469,316.906 977.594,314.656 983.219,312.406 989.219,311.281 994.469,310.531 1000.469,311.281 
		1005.719,312.406 1006.844,312.406 	"/>
	<polygon stroke="#A89187" stroke-width="1.689" stroke-linejoin="round" points="970.094,321.781 970.094,323.281 970.094,324.781 
		970.844,325.906 971.594,326.656 972.344,325.531 973.469,323.656 976.469,321.781 982.469,319.156 986.969,317.656 
		991.844,317.281 998.219,317.281 1003.094,318.406 1004.969,318.406 1006.469,319.156 1008.719,321.031 1009.094,319.906 
		1009.844,318.406 1010.969,317.281 1009.844,314.281 1006.844,312.406 1004.219,311.656 1001.594,310.906 997.094,310.906 
		993.344,310.906 989.219,311.281 982.844,312.406 978.344,314.656 974.594,316.906 971.219,319.906 	"/>
	<polygon fill="#A89187" stroke="#A89187" stroke-width="1.689" stroke-linejoin="round" points="927.906,275.844 919.656,280.344 
		915.531,284.469 910.656,289.719 908.031,294.969 906.156,301.156 904.281,309.031 901.281,314.281 915.156,310.156 
		912.156,306.406 912.156,301.906 913.281,297.594 916.656,291.969 919.281,286.719 923.031,282.969 927.531,279.219 
		932.406,275.844 933.156,275.469 	"/>
	<polygon stroke="#A89187" stroke-width="1.689" stroke-linejoin="round" points="912.906,307.531 914.406,308.656 915.156,310.156 
		916.656,310.156 917.031,310.156 916.656,308.656 916.656,306.406 917.781,303.406 919.656,297.219 922.281,293.094 
		925.656,289.344 930.156,285.219 934.281,282.594 935.781,281.469 937.281,280.719 940.281,280.344 939.906,278.469 
		939.156,277.344 938.781,275.844 936.156,274.719 933.531,275.469 930.531,276.969 928.281,278.094 924.531,281.094 
		921.906,284.094 919.656,287.094 915.531,291.969 914.031,296.844 912.906,301.156 912.156,305.281 	"/>
	<polygon fill="#A89187" stroke="#A89187" stroke-width="1.689" stroke-linejoin="round" points="1034.969,385.156 
		1030.844,377.281 1026.719,372.406 1021.469,367.906 1016.219,364.906 1010.219,363.031 1002.344,361.156 997.094,358.531 
		1000.844,372.031 1004.594,369.406 1009.094,369.031 1013.594,370.531 1019.594,373.531 1024.469,376.531 1028.219,379.906 
		1032.344,384.781 1034.969,389.656 1036.094,390.406 	"/>
	<polygon stroke="#A89187" stroke-width="1.689" stroke-linejoin="round" points="1003.469,370.156 1002.719,371.281 
		1001.594,372.406 1001.219,373.531 1001.219,374.656 1002.719,373.906 1004.594,373.906 1008.344,374.656 1013.969,376.906 
		1018.469,379.531 1021.844,382.906 1026.344,387.406 1028.594,391.531 1030.094,393.031 1030.469,394.906 1030.844,397.719 
		1032.344,396.969 1033.844,396.406 1034.969,396.406 1036.469,393.781 1035.719,390.781 1034.594,387.781 1033.469,385.531 
		1030.094,381.781 1027.469,379.156 1024.094,376.906 1019.219,373.156 1014.344,370.906 1009.844,369.781 1005.719,369.406 	"/>
	<polygon fill="#A89187" stroke="#A89187" stroke-width="1.689" stroke-linejoin="round" points="816.719,413.844 823.094,420.594 
		827.969,423.969 834.719,426.969 840.344,427.719 846.719,427.719 854.969,427.719 860.594,428.844 853.094,417.219 
		850.469,420.594 845.969,422.094 841.094,421.719 835.469,420.594 829.469,419.094 824.594,417.219 819.719,413.094 
		815.594,409.344 814.469,408.969 	"/>
	<polygon stroke="#A89187" stroke-width="1.689" stroke-linejoin="round" points="850.844,419.469 851.969,418.344 852.719,416.844 
		852.344,415.344 852.344,414.969 851.219,415.719 848.969,416.094 845.219,416.094 839.219,416.094 834.344,414.594 
		830.219,412.344 824.594,408.969 821.219,405.594 819.344,404.844 818.219,403.344 817.469,400.719 815.969,401.469 
		815.219,402.594 813.719,402.969 812.594,405.969 814.469,408.594 816.719,411.219 818.219,413.094 822.344,415.719 
		825.719,417.594 829.469,419.094 835.469,421.344 840.344,421.719 845.219,421.719 848.969,420.594 	"/>
	<polygon fill="#A89187" stroke="#A89187" stroke-width="1.689" stroke-linejoin="round" points="1026.719,425.094 
		1025.219,416.094 1022.969,410.469 1019.219,404.094 1015.094,400.344 1009.844,396.594 1002.719,392.281 998.969,387.781 
		998.219,401.844 1002.719,400.719 1006.844,401.844 1010.969,404.844 1015.094,408.969 1019.594,413.469 1021.844,417.594 
		1024.094,424.344 1025.594,429.594 1025.969,430.344 	"/>
	<polygon stroke="#A89187" stroke-width="1.689" stroke-linejoin="round" points="1001.594,401.469 1000.094,401.844 
		998.969,402.219 997.844,403.719 997.844,404.094 998.969,404.094 1001.219,404.844 1004.219,407.094 1009.094,410.844 
		1012.469,414.969 1015.094,419.094 1017.719,424.719 1018.469,429.594 1019.594,431.094 1019.594,433.344 1018.844,435.969 
		1020.344,435.594 1021.844,435.594 1023.344,435.969 1025.594,433.719 1025.594,430.719 1025.594,427.719 1024.844,425.094 
		1022.969,420.594 1021.094,417.219 1019.219,413.844 1015.094,408.594 1011.344,405.219 1007.594,402.594 1003.844,401.094 	"/>
	<polygon fill="#A89187" stroke="#A89187" stroke-width="1.689" stroke-linejoin="round" points="970.844,287.094 962.031,287.844 
		956.031,289.344 950.031,292.344 945.156,295.719 941.031,300.406 936.156,307.156 930.906,310.531 944.781,312.406 
		944.406,308.656 945.906,303.781 948.906,300.406 953.781,296.469 959.031,293.469 963.906,291.219 969.719,289.719 
		974.969,289.344 976.094,288.969 	"/>
	<polygon stroke="#A89187" stroke-width="1.689" stroke-linejoin="round" points="944.781,309.781 945.156,310.906 945.531,312.406 
		946.656,313.156 947.031,313.531 947.406,312.406 948.531,310.156 950.406,307.531 954.906,302.656 959.406,300.031 
		963.906,298.344 969.344,296.469 974.219,295.719 976.094,295.344 977.594,295.344 980.594,296.469 980.594,294.969 
		980.594,293.469 980.969,291.969 979.469,289.344 976.469,288.969 973.469,288.969 970.844,288.969 965.969,290.469 
		962.406,291.969 959.031,293.469 953.406,296.469 950.031,300.031 946.656,303.406 944.781,307.156 	"/>
	<polygon fill="#A89187" stroke="#A89187" stroke-width="1.689" stroke-linejoin="round" points="832.469,447.219 839.594,452.469 
		845.219,455.094 852.344,456.219 858.344,456.594 864.344,455.469 872.031,453.219 878.031,453.969 868.656,443.469 
		866.219,447.219 862.469,449.469 857.969,450.219 851.594,450.594 845.594,450.219 840.719,448.719 835.094,446.094 
		830.219,443.094 829.469,442.719 	"/>
	<polygon stroke="#A89187" stroke-width="1.689" stroke-linejoin="round" points="866.969,446.094 867.344,444.594 868.094,443.469 
		867.719,441.969 867.344,441.594 866.219,441.969 864.719,443.094 860.969,444.219 854.969,444.969 849.344,444.219 
		845.219,443.094 839.219,441.219 835.094,438.594 833.219,437.844 831.719,436.719 830.219,434.094 829.469,435.219 
		828.719,436.344 827.219,437.094 827.219,440.469 829.094,442.719 831.719,444.219 833.969,446.094 838.094,447.969 
		841.844,449.094 845.594,450.219 851.969,450.969 857.219,450.219 861.719,449.469 865.469,447.969 	"/>
	<polygon fill="#A89187" stroke="#A89187" stroke-width="1.689" stroke-linejoin="round" points="859.094,474.969 868.094,476.469 
		874.281,476.469 881.031,474.969 886.281,472.344 891.531,468.594 897.531,463.344 903.531,461.469 890.406,455.844 
		890.031,460.344 887.406,464.094 883.656,466.719 878.031,469.719 872.406,471.594 867.344,472.719 860.969,472.719 
		855.719,472.344 854.969,472.344 	"/>
	<polygon stroke="#A89187" stroke-width="1.689" stroke-linejoin="round" points="890.031,459.219 890.031,457.719 890.031,455.844 
		888.531,455.094 888.531,454.344 888.156,455.844 886.656,457.719 883.656,459.594 878.406,463.344 873.531,464.844 
		869.031,465.969 862.844,466.344 857.969,465.969 856.469,466.344 854.594,465.594 851.969,463.719 851.594,465.219 
		851.219,466.719 850.469,467.844 851.594,470.844 854.594,472.344 857.594,472.719 859.844,473.469 864.719,473.094 
		868.656,472.344 872.406,471.594 878.406,469.719 882.531,467.094 886.656,464.094 889.281,461.469 	"/>
	<polygon fill="#A89187" stroke="#A89187" stroke-width="1.689" stroke-linejoin="round" points="814.844,373.531 817.844,381.781 
		821.594,387.031 826.094,392.281 830.594,395.656 836.969,398.094 844.469,400.719 848.969,404.469 847.094,390.781 
		842.969,392.656 838.469,392.281 833.969,390.406 828.719,387.031 824.219,383.281 820.844,379.531 817.469,373.906 
		815.219,368.656 814.469,367.906 	"/>
	<polygon stroke="#A89187" stroke-width="1.689" stroke-linejoin="round" points="844.094,391.906 845.219,391.156 846.344,390.406 
		847.094,388.906 847.094,388.156 845.594,388.531 843.344,388.156 840.344,387.031 834.719,384.406 830.594,380.656 
		827.594,377.281 823.844,372.031 821.594,367.531 820.844,366.031 820.469,364.156 820.469,361.156 818.594,361.906 
		817.469,362.281 815.969,361.906 814.094,364.531 814.469,367.531 815.594,370.906 816.344,373.156 818.969,377.281 
		821.594,380.281 824.594,382.906 829.094,387.031 833.219,389.656 837.719,391.531 841.844,392.281 	"/>
	<polygon fill="#A89187" stroke="#A89187" stroke-width="1.689" stroke-linejoin="round" points="898.281,491.469 904.656,489.969 
		910.281,487.719 915.906,483.219 920.031,479.094 923.406,473.469 927.531,466.344 931.281,462.219 917.406,462.594 
		918.906,466.344 918.156,471.219 915.531,475.344 911.406,479.844 906.906,483.969 902.781,486.969 896.781,489.594 
		894.906,489.969 896.406,491.094 	"/>
	<polygon stroke="#A89187" stroke-width="1.689" stroke-linejoin="round" points="918.156,465.594 917.781,464.094 917.031,462.594 
		915.531,462.219 915.156,461.844 915.156,463.344 914.406,465.219 912.906,468.594 909.156,473.844 905.781,477.594 
		901.281,479.844 896.031,483.219 891.156,484.719 889.656,485.469 887.781,485.469 884.781,484.719 885.156,486.969 
		885.531,487.344 885.531,487.719 888.531,488.469 890.781,489.594 893.031,490.719 896.031,490.344 900.156,488.469 
		903.906,486.219 906.531,483.969 911.781,479.844 915.156,475.719 917.031,471.594 918.531,467.844 	"/>
	<polygon fill="#FFA800" stroke="#A80000" stroke-width="1.689" stroke-linejoin="round" points="976.844,387.031 976.469,380.656 
		975.344,374.656 973.844,368.656 971.219,363.031 967.844,357.406 964.094,352.531 960.156,348.031 955.281,344.281 
		950.031,340.906 944.406,338.281 938.406,336.031 932.406,334.906 926.031,334.156 919.656,334.531 913.656,335.281 
		907.656,337.156 902.031,339.406 896.406,342.406 891.156,346.156 886.656,350.281 882.531,355.156 879.156,360.031 
		876.156,365.656 874.281,371.656 872.781,377.656 872.031,384.031 872.031,390.031 872.781,396.406 874.281,402.219 
		876.156,407.844 879.156,413.469 882.531,418.719 886.656,423.594 891.156,427.719 896.406,431.469 902.031,434.469 
		907.656,436.719 913.656,438.219 919.656,439.344 926.031,439.344 932.406,438.969 938.406,437.469 944.406,435.594 
		950.031,432.969 955.281,429.594 960.156,425.469 964.094,421.344 967.844,416.094 971.219,410.844 973.844,405.219 
		975.344,399.219 976.469,393.031 976.844,387.031 	"/>
	<polygon fill="#A80000" stroke="#A80000" stroke-width="1.689" stroke-linejoin="round" points="969.719,387.031 969.344,381.406 
		968.219,375.406 966.344,369.781 964.094,364.531 960.906,359.656 957.156,355.156 952.656,351.031 947.781,347.656 
		942.531,345.031 936.906,343.156 931.281,341.656 925.281,341.281 919.656,341.281 913.656,342.406 908.031,343.906 
		902.406,346.156 897.531,349.531 893.031,352.906 888.906,357.406 885.156,361.906 882.531,367.156 880.281,372.781 
		878.781,378.406 878.031,384.406 878.031,390.031 878.781,396.031 880.281,401.469 882.531,407.094 885.156,412.344 
		888.906,416.844 893.031,421.344 897.531,424.719 902.406,428.094 908.031,430.344 913.656,431.844 919.656,432.969 
		925.281,432.969 931.281,432.594 936.906,431.094 942.531,429.219 947.781,426.594 952.656,423.219 957.156,419.094 
		960.906,414.594 964.094,409.719 966.344,404.469 968.219,398.844 969.344,393.031 969.719,387.031 	"/>
	<polygon fill="#A89187" stroke="#A89187" stroke-width="1.689" stroke-linejoin="round" points="945.906,491.094 948.531,489.594 
		952.656,484.719 956.406,478.719 958.656,473.469 959.406,467.094 960.531,458.844 962.781,453.219 949.656,458.844 
		953.031,462.219 953.406,466.719 953.031,471.594 950.781,477.219 948.156,482.844 945.531,486.969 941.031,491.469 
		942.156,492.219 943.281,491.844 	"/>
	<polygon stroke="#A89187" stroke-width="1.689" stroke-linejoin="round" points="951.906,461.469 950.781,460.344 949.656,459.219 
		948.531,459.219 947.406,459.219 948.156,460.344 948.531,462.594 947.781,466.344 946.656,472.344 944.406,477.219 
		941.406,481.344 936.906,485.844 933.906,488.844 931.281,490.344 930.906,491.469 928.281,491.844 929.031,493.344 
		932.031,493.344 932.781,493.344 934.656,493.344 936.906,493.344 938.781,493.344 940.656,492.969 943.656,489.219 
		945.906,485.844 948.156,482.844 951.156,477.219 952.656,472.344 953.031,467.469 953.031,463.344 	"/>
	<polygon fill="#A89187" stroke="#A89187" stroke-width="1.689" stroke-linejoin="round" points="858.344,296.469 854.219,304.531 
		852.344,310.531 851.594,317.656 851.969,323.281 853.844,329.656 856.469,337.156 857.219,343.531 866.219,332.656 
		862.094,330.781 859.469,327.031 857.969,322.531 857.219,316.531 857.219,310.156 857.969,305.281 859.844,299.094 
		862.469,294.219 862.469,293.094 	"/>
	<polygon stroke="#A89187" stroke-width="1.689" stroke-linejoin="round" points="863.219,331.156 864.719,331.531 866.219,332.281 
		867.344,331.531 868.094,331.156 866.969,330.406 865.844,328.531 864.719,324.781 863.219,318.781 862.844,313.531 
		863.594,308.656 865.094,302.656 867.344,298.719 868.094,296.469 868.656,295.344 871.281,293.469 869.781,292.719 
		868.656,291.969 868.094,290.469 864.719,290.469 862.844,293.094 860.969,295.719 859.844,297.969 858.344,302.281 
		857.969,306.406 857.219,310.156 857.219,316.906 857.969,321.781 859.469,326.281 861.344,329.656 	"/>
	<polygon fill="#A89187" stroke="#A89187" stroke-width="1.689" stroke-linejoin="round" points="889.656,281.844 882.906,288.219 
		879.531,293.469 876.906,300.031 875.406,305.281 875.406,312.031 875.781,319.906 874.281,325.906 886.281,318.781 
		882.906,315.781 881.406,311.281 881.781,306.406 882.531,300.406 884.406,294.594 886.281,289.719 890.406,284.844 
		894.156,280.719 894.156,279.594 	"/>
	<polygon stroke="#A89187" stroke-width="1.689" stroke-linejoin="round" points="884.031,316.531 885.156,317.281 886.656,318.031 
		887.781,318.031 888.531,317.656 887.781,316.531 887.406,314.656 887.406,310.906 887.406,304.531 888.531,299.656 
		891.156,295.344 894.156,289.719 897.531,286.719 898.281,284.844 899.781,283.719 902.781,282.594 901.656,281.469 
		900.531,280.344 900.156,278.469 897.156,278.094 894.906,279.594 892.281,281.469 890.406,283.719 887.781,287.844 
		885.906,291.219 884.406,294.969 882.156,300.406 881.781,306.031 881.781,310.531 882.531,314.281 	"/>
	<polygon fill="#A89187" stroke="#A89187" stroke-width="1.689" stroke-linejoin="round" points="828.344,330.406 827.969,339.406 
		829.094,345.406 831.719,352.156 834.719,357.031 839.219,361.906 845.219,367.531 847.844,372.406 851.594,358.906 
		847.094,359.281 842.594,357.031 839.594,353.656 835.844,348.406 833.219,343.156 831.719,338.281 830.594,331.531 
		830.594,325.906 830.219,325.531 	"/>
	<polygon stroke="#A89187" stroke-width="1.689" stroke-linejoin="round" points="848.219,358.906 849.719,358.531 851.219,358.531 
		851.969,357.031 852.344,356.656 850.844,356.281 849.344,355.156 846.719,352.906 842.594,348.031 839.969,343.156 
		838.469,339.031 836.969,332.656 836.969,327.781 836.969,325.906 836.969,324.031 838.094,321.406 836.969,321.031 
		835.469,321.031 833.969,319.906 831.344,321.781 830.219,324.781 830.219,328.156 830.219,330.781 830.969,335.656 
		832.094,339.406 833.219,343.156 835.844,349.156 839.594,352.906 842.594,356.281 845.594,358.531 	"/>
	<polygon fill="#A89187" stroke="#A89187" stroke-width="1.689" stroke-linejoin="round" points="979.844,479.094 984.719,471.594 
		986.969,466.344 987.719,459.594 987.719,453.969 985.844,447.969 983.219,440.844 983.219,434.844 973.469,444.969 
		977.594,446.844 980.219,450.219 981.344,454.719 982.094,460.344 981.719,466.344 980.969,471.219 978.719,476.844 
		976.094,481.344 976.094,482.469 	"/>
	<polygon stroke="#A89187" stroke-width="1.689" stroke-linejoin="round" points="976.469,446.094 974.594,445.719 973.469,445.344 
		972.344,445.719 971.219,446.094 972.344,446.844 973.469,448.719 974.594,452.094 976.094,458.094 976.094,462.969 
		974.969,467.469 973.469,473.094 970.844,477.219 970.469,478.719 969.344,480.219 966.719,482.094 968.219,482.844 
		969.344,483.219 970.094,484.719 973.469,484.719 975.719,482.469 977.219,479.844 978.719,477.969 980.219,473.469 
		980.969,469.719 981.719,466.344 982.469,460.344 980.969,455.469 980.219,450.969 978.344,447.219 	"/>
	<polygon fill="#A89187" stroke="#A89187" stroke-width="1.689" stroke-linejoin="round" points="1010.219,456.594 
		1012.469,448.344 1012.469,442.719 1011.344,436.344 1009.469,431.094 1006.094,426.219 1001.594,420.219 999.344,414.969 
		993.344,426.594 997.844,427.344 1001.594,429.594 1003.469,433.344 1006.094,438.594 1007.969,444.219 1008.344,448.719 
		1007.969,454.719 1006.844,459.594 1007.219,460.344 	"/>
	<polygon stroke="#A89187" stroke-width="1.689" stroke-linejoin="round" points="996.344,427.344 994.469,427.344 993.344,426.969 
		992.219,427.719 991.469,428.469 992.969,428.844 994.469,429.969 996.719,432.969 999.719,438.219 1001.219,442.344 
		1001.594,446.844 1001.594,452.469 1000.469,456.969 1000.844,458.469 1000.469,460.344 998.219,462.594 1000.094,462.969 
		1001.594,463.344 1002.719,464.094 1005.344,463.344 1006.844,460.719 1007.969,458.094 1008.344,455.844 1008.344,451.344 
		1008.344,447.969 1007.594,444.219 1006.469,438.594 1003.844,434.469 1001.594,430.719 998.594,427.719 	"/>
	<polygon stroke="#A80000" stroke-width="1.689" stroke-linejoin="round" points="960.531,387.031 960.156,381.781 959.031,376.531 
		957.156,371.656 954.531,367.156 951.156,363.031 947.406,359.281 943.281,356.281 938.406,354.031 933.531,352.156 
		928.281,351.406 923.031,351.031 918.156,351.781 912.906,352.906 908.031,355.156 903.531,357.781 899.406,361.156 
		896.031,364.906 893.031,369.406 890.781,374.281 889.281,379.156 888.531,384.406 888.531,389.656 889.281,394.906 
		890.781,399.594 893.031,404.469 896.031,408.594 899.406,412.719 903.531,416.094 908.031,418.719 912.906,420.969 
		918.156,422.094 923.031,422.844 928.281,422.469 933.531,421.719 938.406,419.844 943.281,417.594 947.406,414.219 
		951.156,410.844 954.531,406.719 957.156,402.219 959.031,396.969 960.156,392.281 960.531,387.031 	"/>
	<polygon fill="#FFA800" stroke="#A80000" stroke-width="1.689" stroke-linejoin="round" points="953.031,387.031 952.656,382.531 
		951.531,378.031 949.656,373.531 947.406,369.781 944.406,366.406 940.656,363.406 936.906,361.156 932.406,359.281 
		927.906,358.531 923.406,358.156 918.906,358.906 914.406,360.031 910.281,362.281 906.531,364.906 903.156,367.906 
		900.531,371.656 898.281,375.781 896.781,380.281 896.031,384.781 896.031,389.281 896.781,393.781 898.281,398.094 
		900.531,402.219 903.156,405.969 906.531,408.969 910.281,411.594 914.406,413.469 918.906,414.969 923.406,415.344 
		927.906,415.344 932.406,414.219 936.906,412.719 940.656,410.469 944.406,407.469 947.406,404.094 949.656,399.969 
		951.531,396.031 952.656,391.531 953.031,387.031 	"/>
</g>
</svg>
