<svg xmlns="http://www.w3.org/2000/svg" xmlns:xlink="http://www.w3.org/1999/xlink" width="500" zoomAndPan="magnify" viewBox="0 0 375 374.999991" height="500" preserveAspectRatio="xMidYMid meet" version="1.0"><defs><g/><clipPath id="60350e9852"><path d="M 147.347656 158.289062 L 175.6875 158.289062 L 175.6875 186.628906 L 147.347656 186.628906 Z M 147.347656 158.289062 " clip-rule="nonzero"/></clipPath><clipPath id="506692c8a2"><path d="M 161.519531 158.289062 C 153.691406 158.289062 147.347656 164.632812 147.347656 172.460938 C 147.347656 180.285156 153.691406 186.628906 161.519531 186.628906 C 169.34375 186.628906 175.6875 180.285156 175.6875 172.460938 C 175.6875 164.632812 169.34375 158.289062 161.519531 158.289062 Z M 161.519531 158.289062 " clip-rule="nonzero"/></clipPath><clipPath id="4727e2dbb3"><path d="M 141.636719 153.6875 L 175.742188 153.6875 L 175.742188 186.53125 L 141.636719 186.53125 Z M 141.636719 153.6875 " clip-rule="nonzero"/></clipPath></defs><g fill="#201e1e" fill-opacity="1"><g transform="translate(156.391605, 220.72181)"><g><path d="M 6.4375 -67.8125 L 24.253906 -67.8125 C 37.03125 -67.8125 43.1875 -62.867188 43.1875 -52.609375 C 43.1875 -42.347656 37.03125 -36.9375 24.253906 -36.9375 L 22.851562 -36.9375 L 22.851562 -34.792969 L 24.253906 -34.792969 C 37.03125 -34.792969 43.1875 -28.449219 43.1875 -18.1875 C 43.1875 -7.835938 37.03125 -2.144531 24.253906 -2.144531 L 19.867188 -2.144531 L 19.867188 -15.578125 C 19.867188 -30.410156 6.4375 -39.457031 6.4375 -59.230469 Z M 4.289062 0 L 28.914062 0 C 44.304688 0 58.671875 -2.238281 58.671875 -18.1875 C 58.671875 -29.007812 51.957031 -33.859375 42.722656 -35.726562 C 51.957031 -37.402344 58.671875 -41.695312 58.671875 -52.609375 C 58.671875 -68.464844 44.304688 -69.957031 28.914062 -69.957031 C 20.707031 -69.957031 12.5 -69.957031 4.289062 -69.957031 C 4.289062 -46.636719 4.289062 -23.320312 4.289062 0 Z M 4.289062 0 "/></g></g></g><g clip-path="url(#60350e9852)"><g clip-path="url(#506692c8a2)"><path fill="#ffffff" d="M 147.347656 158.289062 L 175.6875 158.289062 L 175.6875 186.628906 L 147.347656 186.628906 Z M 147.347656 158.289062 " fill-opacity="1" fill-rule="nonzero"/></g></g><g clip-path="url(#4727e2dbb3)"><path fill="#201e1e" d="M 159.757812 180.960938 C 161.140625 180.960938 162.269531 181.996094 162.269531 183.261719 C 162.269531 184.507812 161.140625 185.542969 159.757812 185.542969 L 147.046875 185.542969 C 145.664062 185.542969 144.539062 184.507812 144.539062 183.261719 C 144.539062 181.996094 145.664062 180.960938 147.046875 180.960938 Z M 149.625 180.019531 C 149.855469 180.019531 150.042969 180.0625 150.132812 180.132812 L 150.316406 180.132812 C 150.410156 180.0625 150.59375 180.019531 150.824219 180.019531 L 150.871094 180.019531 C 151.101562 180.019531 151.285156 180.0625 151.375 180.132812 L 151.5625 180.132812 C 151.652344 180.0625 151.859375 180.019531 152.066406 180.019531 L 152.136719 180.019531 C 152.34375 180.019531 152.527344 180.0625 152.621094 180.132812 L 152.875 180.132812 C 152.964844 180.0625 153.148438 180.019531 153.378906 180.019531 C 153.585938 180.019531 153.773438 180.0625 153.863281 180.132812 L 154.117188 180.132812 C 154.210938 180.0625 154.394531 180.019531 154.625 180.019531 C 154.832031 180.019531 155.039062 180.0625 155.128906 180.132812 L 155.359375 180.132812 C 155.453125 180.0625 155.660156 180.019531 155.867188 180.019531 C 156.097656 180.019531 156.28125 180.0625 156.375 180.132812 L 156.628906 180.132812 C 156.71875 180.0625 156.902344 180.019531 157.109375 180.019531 C 157.339844 180.019531 157.523438 180.0625 157.617188 180.132812 L 157.871094 180.132812 C 157.960938 180.0625 158.148438 180.019531 158.355469 180.019531 C 158.585938 180.019531 158.769531 180.0625 158.859375 180.132812 L 159.113281 180.132812 C 159.207031 180.0625 159.390625 180.019531 159.621094 180.019531 C 159.828125 180.019531 160.011719 180.0625 160.105469 180.132812 C 161.808594 180.15625 163.191406 181.558594 163.191406 183.261719 C 163.191406 184.945312 161.832031 186.324219 160.152344 186.371094 C 160.082031 186.460938 159.875 186.53125 159.621094 186.53125 C 159.34375 186.53125 159.136719 186.460938 159.066406 186.371094 L 158.90625 186.371094 C 158.839844 186.460938 158.628906 186.53125 158.355469 186.53125 C 158.101562 186.53125 157.894531 186.460938 157.824219 186.371094 L 157.664062 186.371094 C 157.59375 186.460938 157.363281 186.53125 157.109375 186.53125 C 156.859375 186.53125 156.648438 186.460938 156.582031 186.371094 L 156.398438 186.371094 C 156.351562 186.460938 156.121094 186.53125 155.867188 186.53125 C 155.613281 186.53125 155.40625 186.460938 155.335938 186.371094 L 155.152344 186.371094 C 155.085938 186.460938 154.878906 186.53125 154.625 186.53125 C 154.371094 186.53125 154.140625 186.460938 154.09375 186.371094 L 153.910156 186.371094 C 153.839844 186.460938 153.632812 186.53125 153.378906 186.53125 C 153.125 186.53125 152.898438 186.460938 152.828125 186.371094 L 152.667969 186.371094 C 152.597656 186.460938 152.390625 186.53125 152.136719 186.53125 L 152.066406 186.53125 C 151.8125 186.53125 151.605469 186.460938 151.539062 186.371094 L 151.421875 186.371094 C 151.355469 186.460938 151.148438 186.53125 150.871094 186.53125 L 150.824219 186.53125 C 150.570312 186.53125 150.339844 186.460938 150.292969 186.371094 L 150.179688 186.371094 C 150.109375 186.460938 149.878906 186.53125 149.625 186.53125 L 149.582031 186.53125 C 149.328125 186.53125 149.097656 186.460938 149.027344 186.371094 L 148.867188 186.371094 C 148.796875 186.460938 148.589844 186.53125 148.335938 186.53125 C 148.0625 186.53125 147.851562 186.460938 147.785156 186.371094 L 147.625 186.371094 C 147.554688 186.460938 147.347656 186.53125 147.070312 186.53125 C 146.816406 186.53125 146.609375 186.460938 146.539062 186.347656 C 144.90625 186.253906 143.617188 184.898438 143.617188 183.261719 C 143.617188 181.582031 144.929688 180.226562 146.585938 180.15625 C 146.65625 180.0625 146.863281 180.019531 147.070312 180.019531 C 147.300781 180.019531 147.484375 180.0625 147.578125 180.132812 L 147.832031 180.132812 C 147.921875 180.0625 148.105469 180.019531 148.335938 180.019531 C 148.542969 180.019531 148.730469 180.0625 148.820312 180.132812 L 149.074219 180.132812 C 149.167969 180.0625 149.351562 180.019531 149.582031 180.019531 Z M 167.058594 167.496094 L 166.78125 167.589844 L 167.128906 168.210938 L 167.082031 168.210938 L 166.484375 167.496094 L 166.207031 167.589844 L 166.875 168.765625 L 168.648438 171.984375 L 173.117188 171.984375 L 175.742188 167.222656 L 175.535156 167.222656 L 175.535156 157.003906 L 174.40625 153.6875 L 173.460938 153.6875 L 172.585938 156.679688 L 173.277344 167.0625 C 173.414062 166.851562 173.667969 166.691406 173.945312 166.691406 C 174.152344 166.691406 174.335938 166.785156 174.472656 166.921875 L 175.003906 161.972656 L 175.003906 167.222656 L 174.660156 167.222656 C 174.679688 167.289062 174.703125 167.382812 174.703125 167.476562 C 174.703125 167.890625 174.359375 168.234375 173.945312 168.234375 C 173.621094 168.234375 173.347656 168.027344 173.230469 167.75 L 172.910156 168.210938 L 167.65625 168.210938 Z M 151.675781 175.230469 L 151.675781 175.921875 C 149.464844 175.253906 148.613281 173.023438 148.660156 172.054688 L 148.660156 168.878906 C 148.660156 167.914062 149.441406 167.128906 150.410156 167.128906 L 156.859375 167.128906 C 157.800781 167.128906 158.285156 167.957031 158.585938 168.878906 C 159.484375 171.410156 159.550781 171.777344 159.78125 174.355469 C 159.851562 174.976562 159.503906 175.507812 159.023438 175.828125 L 157.523438 174.332031 L 157.824219 173.875 L 157.6875 173.78125 L 157.019531 174.769531 L 157.15625 174.863281 L 157.457031 174.425781 L 158.90625 175.875 C 158.652344 176.035156 158.355469 176.105469 158.054688 176.105469 L 155.542969 176.105469 L 156.328125 173.023438 C 156.441406 173.023438 156.558594 172.953125 156.582031 172.8125 C 156.628906 172.675781 156.535156 172.539062 156.398438 172.492188 C 156.234375 172.445312 156.097656 172.539062 156.050781 172.699219 C 156.027344 172.8125 156.074219 172.929688 156.191406 173 L 155.382812 176.105469 L 155.222656 176.105469 L 155.222656 172.628906 C 155.335938 172.585938 155.40625 172.492188 155.40625 172.355469 C 155.40625 172.214844 155.292969 172.101562 155.128906 172.101562 C 154.992188 172.101562 154.878906 172.214844 154.878906 172.355469 C 154.878906 172.492188 154.945312 172.585938 155.0625 172.628906 L 155.0625 176.105469 L 154.1875 176.105469 L 154.1875 175.554688 L 154.53125 175.578125 C 154.96875 175.578125 154.785156 175.070312 154.785156 174.472656 L 152.230469 174.011719 L 151.722656 169.753906 C 150.664062 170.398438 150.824219 171.664062 150.917969 172.191406 L 151.261719 175.183594 Z M 173.945312 166.875 C 173.597656 166.875 173.347656 167.128906 173.347656 167.476562 C 173.347656 167.796875 173.597656 168.050781 173.945312 168.050781 C 174.265625 168.050781 174.542969 167.796875 174.542969 167.476562 C 174.542969 167.128906 174.265625 166.875 173.945312 166.875 Z M 144.789062 173.503906 L 144.789062 169.570312 L 143.914062 170.421875 L 143.914062 173.503906 L 142.789062 173.503906 C 142.140625 173.503906 141.636719 174.011719 141.636719 174.65625 L 141.636719 177.417969 C 141.636719 178.039062 142.164062 178.566406 142.789062 178.566406 L 162.316406 178.566406 C 163.238281 178.566406 164.113281 177.96875 164.386719 177.140625 L 163.882812 164.988281 C 163.695312 165.171875 163.488281 165.335938 163.238281 165.449219 L 163.445312 177.300781 L 163.214844 177.300781 L 162.589844 165.703125 C 162.382812 165.75 162.175781 165.773438 161.96875 165.773438 C 161.117188 165.773438 160.335938 165.359375 159.851562 164.714844 L 159.644531 166.417969 C 159.851562 166.785156 160.011719 167.175781 160.152344 167.542969 C 161.210938 170.582031 161.878906 173.160156 162.152344 176.335938 C 162.175781 176.679688 162.152344 177.003906 162.039062 177.300781 L 161.417969 177.300781 C 161.554688 177.027344 161.601562 176.726562 161.578125 176.40625 C 161.277344 173.183594 160.703125 171.457031 159.597656 168.28125 C 159.207031 167.175781 158.628906 166.117188 157.433594 166.117188 L 149.417969 166.117188 C 148.246094 166.117188 147.253906 167.105469 147.253906 168.28125 L 147.253906 173.503906 Z M 159.734375 181.628906 C 158.839844 181.628906 158.101562 182.34375 158.101562 183.261719 C 158.101562 184.160156 158.839844 184.875 159.734375 184.875 C 160.632812 184.875 161.371094 184.160156 161.371094 183.261719 C 161.371094 182.34375 160.632812 181.628906 159.734375 181.628906 Z M 147.070312 181.628906 C 146.171875 181.628906 145.433594 182.34375 145.433594 183.261719 C 145.433594 184.160156 146.171875 184.875 147.070312 184.875 C 147.96875 184.875 148.683594 184.160156 148.683594 183.261719 C 148.683594 182.34375 147.96875 181.628906 147.070312 181.628906 Z M 153.425781 181.628906 C 152.527344 181.628906 151.792969 182.34375 151.792969 183.261719 C 151.792969 184.160156 152.527344 184.875 153.425781 184.875 C 154.324219 184.875 155.0625 184.160156 155.0625 183.261719 C 155.0625 182.34375 154.324219 181.628906 153.425781 181.628906 Z M 164.25 180.386719 L 163.421875 180.386719 L 163.421875 186.371094 L 168.003906 186.371094 C 165.882812 184.945312 164.941406 183.515625 164.25 180.386719 Z M 164.640625 163.125 C 164.640625 162.136719 164.113281 161.285156 163.328125 160.824219 L 172.378906 155.804688 L 172.125 156.632812 L 172.171875 157.234375 Z M 163.238281 160.777344 C 162.960938 160.617188 162.636719 160.523438 162.292969 160.476562 L 172.863281 154.148438 L 172.632812 154.953125 Z M 161.96875 161.03125 C 163.121094 161.03125 164.066406 161.972656 164.066406 163.125 C 164.066406 164.253906 163.121094 165.195312 161.96875 165.195312 C 160.839844 165.195312 159.898438 164.253906 159.898438 163.125 C 159.898438 161.972656 160.839844 161.03125 161.96875 161.03125 Z M 155.84375 178.960938 L 150.960938 178.960938 L 150.960938 179.789062 L 155.84375 179.789062 Z M 155.84375 178.960938 " fill-opacity="1" fill-rule="evenodd"/></g><g fill="#201e1e" fill-opacity="1"><g transform="translate(155.342288, 228.342115)"><g><path d="M 2.117188 -2.355469 C 2.597656 -2.449219 2.800781 -2.746094 2.800781 -3.089844 C 2.800781 -3.65625 2.316406 -3.960938 1.4375 -3.960938 L 0.519531 -3.960938 C 0.328125 -3.960938 0.238281 -3.949219 0.238281 -3.847656 C 0.238281 -3.640625 0.578125 -3.820312 0.578125 -3.1875 L 0.578125 -0.773438 C 0.578125 -0.140625 0.238281 -0.324219 0.238281 -0.113281 C 0.238281 -0.0117188 0.328125 0 0.519531 0 L 1.550781 0 C 2.632812 0 3.292969 -0.363281 3.292969 -1.25 C 3.292969 -1.839844 2.824219 -2.257812 2.117188 -2.355469 Z M 1.097656 -3.480469 C 1.097656 -3.679688 1.207031 -3.707031 1.4375 -3.707031 C 1.925781 -3.707031 2.257812 -3.433594 2.257812 -3.027344 C 2.257812 -2.660156 2.039062 -2.480469 1.425781 -2.480469 C 1.25 -2.480469 1.097656 -2.472656 1.097656 -2.59375 Z M 1.539062 -0.253906 C 1.164062 -0.253906 1.097656 -0.375 1.097656 -0.652344 L 1.097656 -1.992188 C 1.097656 -2.140625 1.121094 -2.210938 1.421875 -2.210938 C 2.246094 -2.210938 2.710938 -1.800781 2.710938 -1.160156 C 2.710938 -0.515625 2.320312 -0.253906 1.539062 -0.253906 Z M 1.539062 -0.253906 "/></g></g></g><g fill="#201e1e" fill-opacity="1"><g transform="translate(159.324903, 228.342115)"><g><path d="M 2.082031 0.0546875 C 3.117188 0.0546875 3.582031 -0.617188 3.582031 -1.605469 L 3.582031 -3.28125 C 3.585938 -3.734375 3.886719 -3.65625 3.886719 -3.84375 C 3.886719 -3.9375 3.804688 -3.960938 3.640625 -3.960938 L 3.257812 -3.960938 C 3.085938 -3.960938 3.003906 -3.9375 3.003906 -3.84375 C 3.003906 -3.65625 3.304688 -3.734375 3.304688 -3.28125 L 3.316406 -1.527344 C 3.316406 -0.796875 2.929688 -0.242188 2.195312 -0.242188 C 1.5 -0.242188 1.082031 -0.671875 1.082031 -1.476562 L 1.082031 -3.136719 C 1.082031 -3.773438 1.421875 -3.628906 1.421875 -3.835938 C 1.421875 -3.925781 1.328125 -3.949219 1.136719 -3.949219 L 0.515625 -3.949219 C 0.3125 -3.949219 0.230469 -3.925781 0.230469 -3.835938 C 0.230469 -3.628906 0.558594 -3.773438 0.558594 -3.136719 L 0.558594 -1.566406 C 0.558594 -0.554688 1.125 0.0546875 2.082031 0.0546875 Z M 2.082031 0.0546875 "/></g></g></g><g fill="#201e1e" fill-opacity="1"><g transform="translate(163.907124, 228.342115)"><g><path d="M 0.578125 -0.820312 C 0.578125 -0.175781 0.238281 -0.324219 0.238281 -0.113281 C 0.238281 -0.0273438 0.328125 0 0.519531 0 L 1.144531 0 C 1.339844 0 1.421875 -0.0273438 1.421875 -0.113281 C 1.421875 -0.324219 1.097656 -0.175781 1.097656 -0.820312 L 1.097656 -3.140625 C 1.097656 -3.785156 1.433594 -3.640625 1.433594 -3.847656 C 1.433594 -3.933594 1.339844 -3.960938 1.15625 -3.960938 L 0.53125 -3.960938 C 0.328125 -3.960938 0.25 -3.933594 0.25 -3.847656 C 0.25 -3.640625 0.578125 -3.785156 0.578125 -3.140625 Z M 0.578125 -0.820312 "/></g></g></g><g fill="#201e1e" fill-opacity="1"><g transform="translate(166.102226, 228.342115)"><g><path d="M 2.914062 -0.996094 C 2.839844 -1.011719 2.777344 -0.96875 2.695312 -0.773438 C 2.535156 -0.417969 2.4375 -0.261719 1.945312 -0.261719 L 1.589844 -0.253906 C 1.175781 -0.253906 1.097656 -0.332031 1.097656 -0.53125 L 1.097656 -3.140625 C 1.097656 -3.785156 1.433594 -3.640625 1.433594 -3.847656 C 1.433594 -3.933594 1.339844 -3.960938 1.15625 -3.960938 L 0.53125 -3.960938 C 0.328125 -3.960938 0.25 -3.933594 0.25 -3.847656 C 0.25 -3.640625 0.578125 -3.785156 0.578125 -3.140625 L 0.578125 -0.773438 C 0.578125 -0.140625 0.238281 -0.324219 0.238281 -0.113281 C 0.238281 -0.0117188 0.328125 0 0.519531 0 L 2.457031 0 C 2.816406 0 2.875 -0.0625 2.914062 -0.199219 C 2.960938 -0.355469 2.980469 -0.53125 3 -0.804688 C 3.003906 -0.90625 3 -0.984375 2.914062 -0.996094 Z M 2.914062 -0.996094 "/></g></g></g><g fill="#201e1e" fill-opacity="1"><g transform="translate(169.751098, 228.342115)"><g><path d="M 0.519531 -3.960938 C 0.328125 -3.960938 0.238281 -3.949219 0.238281 -3.847656 C 0.238281 -3.640625 0.578125 -3.820312 0.578125 -3.1875 L 0.578125 -0.773438 C 0.578125 -0.140625 0.238281 -0.324219 0.238281 -0.113281 C 0.238281 -0.0117188 0.328125 0 0.519531 0 L 1.84375 0 C 3.34375 0 3.917969 -0.992188 3.917969 -2.042969 C 3.917969 -2.929688 3.304688 -3.960938 1.6875 -3.960938 Z M 1.78125 -0.25 C 1.207031 -0.25 1.097656 -0.351562 1.097656 -0.582031 L 1.097656 -3.46875 C 1.097656 -3.679688 1.175781 -3.71875 1.476562 -3.71875 C 2.675781 -3.71875 3.355469 -2.875 3.355469 -1.777344 C 3.355469 -1.007812 3.050781 -0.25 1.78125 -0.25 Z M 1.78125 -0.25 "/></g></g></g><g fill="#201e1e" fill-opacity="1"><g transform="translate(174.41817, 228.342115)"><g><path d="M 0.578125 -0.820312 C 0.578125 -0.175781 0.238281 -0.324219 0.238281 -0.113281 C 0.238281 -0.0273438 0.328125 0 0.519531 0 L 1.144531 0 C 1.339844 0 1.421875 -0.0273438 1.421875 -0.113281 C 1.421875 -0.324219 1.097656 -0.175781 1.097656 -0.820312 L 1.097656 -3.140625 C 1.097656 -3.785156 1.433594 -3.640625 1.433594 -3.847656 C 1.433594 -3.933594 1.339844 -3.960938 1.15625 -3.960938 L 0.53125 -3.960938 C 0.328125 -3.960938 0.25 -3.933594 0.25 -3.847656 C 0.25 -3.640625 0.578125 -3.785156 0.578125 -3.140625 Z M 0.578125 -0.820312 "/></g></g></g><g fill="#201e1e" fill-opacity="1"><g transform="translate(176.613273, 228.342115)"><g><path d="M 3.421875 -3.960938 C 3.25 -3.960938 3.167969 -3.9375 3.167969 -3.84375 C 3.167969 -3.65625 3.46875 -3.734375 3.476562 -3.28125 L 3.480469 -1.082031 L 0.929688 -3.871094 C 0.871094 -3.933594 0.828125 -3.960938 0.753906 -3.960938 L 0.496094 -3.960938 C 0.304688 -3.960938 0.214844 -3.949219 0.214844 -3.847656 C 0.214844 -3.640625 0.554688 -3.820312 0.554688 -3.1875 L 0.554688 -0.679688 C 0.554688 -0.226562 0.253906 -0.304688 0.253906 -0.117188 C 0.253906 -0.0273438 0.339844 0 0.496094 0 L 0.882812 0 C 1.058594 0 1.136719 -0.0234375 1.136719 -0.117188 C 1.136719 -0.304688 0.832031 -0.226562 0.832031 -0.679688 L 0.820312 -3.214844 L 3.339844 -0.488281 C 3.441406 -0.367188 3.484375 -0.253906 3.484375 -0.136719 C 3.484375 -0.0625 3.53125 0 3.609375 0 C 3.699219 0 3.75 -0.046875 3.75 -0.175781 L 3.75 -3.28125 C 3.75 -3.734375 4.050781 -3.65625 4.050781 -3.84375 C 4.050781 -3.9375 3.96875 -3.960938 3.804688 -3.960938 Z M 3.421875 -3.960938 "/></g></g></g><g fill="#201e1e" fill-opacity="1"><g transform="translate(181.399135, 228.342115)"><g><path d="M 2.195312 0.0507812 C 2.988281 0.0390625 3.742188 -0.375 3.742188 -0.730469 L 3.742188 -1.25 C 3.742188 -1.820312 3.945312 -1.691406 3.945312 -1.890625 C 3.945312 -1.976562 3.855469 -2.003906 3.746094 -2.003906 L 2.902344 -2.003906 C 2.703125 -2.003906 2.625 -1.976562 2.625 -1.882812 C 2.625 -1.65625 3.21875 -1.78125 3.21875 -1.25 L 3.21875 -0.707031 C 3.21875 -0.4375 2.738281 -0.273438 2.324219 -0.273438 C 1.363281 -0.273438 0.757812 -1.097656 0.765625 -2.183594 C 0.765625 -2.960938 1.25 -3.707031 2.089844 -3.707031 C 2.785156 -3.707031 3.050781 -3.316406 3.292969 -2.976562 C 3.390625 -2.847656 3.453125 -2.765625 3.542969 -2.777344 C 3.632812 -2.789062 3.648438 -2.863281 3.632812 -2.976562 C 3.578125 -3.308594 3.527344 -3.542969 3.480469 -3.707031 C 3.429688 -3.945312 3.371094 -4.007812 3.269531 -4.007812 C 3.175781 -4.007812 3.140625 -3.9375 3.011719 -3.9375 C 2.851562 -3.9375 2.683594 -4.019531 2.292969 -4.019531 C 1.085938 -4.019531 0.21875 -3.085938 0.21875 -1.890625 C 0.21875 -0.785156 0.96875 0.0664062 2.195312 0.0507812 Z M 2.195312 0.0507812 "/></g></g></g><g fill="#201e1e" fill-opacity="1"><g transform="translate(186.179342, 228.342115)"><g/></g></g><g fill="#201e1e" fill-opacity="1"><g transform="translate(187.837061, 228.342115)"><g><path d="M 2.128906 0.0546875 C 2.976562 0.0546875 3.480469 -0.40625 3.640625 -0.65625 C 3.746094 -0.828125 3.617188 -0.960938 3.503906 -0.835938 C 3.230469 -0.539062 2.886719 -0.292969 2.308594 -0.292969 C 1.386719 -0.292969 0.765625 -1.085938 0.765625 -2.132812 C 0.765625 -2.960938 1.261719 -3.707031 2.097656 -3.707031 C 2.695312 -3.707031 3.015625 -3.382812 3.257812 -3.003906 C 3.34375 -2.875 3.394531 -2.789062 3.492188 -2.800781 C 3.578125 -2.8125 3.597656 -2.886719 3.578125 -2.992188 C 3.519531 -3.332031 3.464844 -3.542969 3.417969 -3.707031 C 3.351562 -3.945312 3.308594 -4.007812 3.203125 -4.007812 C 3.105469 -4.007812 3.050781 -3.933594 2.925781 -3.933594 C 2.761719 -3.933594 2.5625 -4.019531 2.234375 -4.019531 C 1.09375 -4.019531 0.21875 -3.085938 0.21875 -1.882812 C 0.21875 -0.730469 0.949219 0.0546875 2.128906 0.0546875 Z M 2.128906 0.0546875 "/></g></g></g><g fill="#201e1e" fill-opacity="1"><g transform="translate(192.23261, 228.342115)"><g><path d="M 2.066406 0.0546875 C 3.304688 0.0546875 4.140625 -0.878906 4.140625 -2.121094 C 4.140625 -3.203125 3.429688 -4.019531 2.304688 -4.019531 C 1.085938 -4.019531 0.21875 -3.039062 0.21875 -1.820312 C 0.21875 -0.734375 0.949219 0.0546875 2.066406 0.0546875 Z M 2.308594 -0.273438 C 1.347656 -0.273438 0.742188 -1.132812 0.742188 -2.242188 C 0.742188 -2.953125 1.210938 -3.71875 2.089844 -3.71875 C 3.035156 -3.71875 3.617188 -2.824219 3.617188 -1.800781 C 3.617188 -1.007812 3.175781 -0.273438 2.308594 -0.273438 Z M 2.308594 -0.273438 "/></g></g></g><g fill="#201e1e" fill-opacity="1"><g transform="translate(197.125949, 228.342115)"><g><path d="M 4.324219 -3.316406 C 4.304688 -3.742188 4.59375 -3.683594 4.59375 -3.855469 C 4.59375 -3.933594 4.539062 -3.960938 4.375 -3.960938 L 3.949219 -3.960938 C 3.875 -3.960938 3.824219 -3.925781 3.796875 -3.855469 L 2.457031 -0.910156 L 1.226562 -3.855469 C 1.199219 -3.925781 1.148438 -3.960938 1.074219 -3.960938 L 0.621094 -3.960938 C 0.457031 -3.960938 0.402344 -3.933594 0.402344 -3.855469 C 0.402344 -3.699219 0.691406 -3.699219 0.671875 -3.316406 L 0.570312 -0.679688 C 0.554688 -0.226562 0.242188 -0.304688 0.242188 -0.117188 C 0.242188 -0.0273438 0.332031 0 0.492188 0 L 0.878906 0 C 1.050781 0 1.132812 -0.0234375 1.132812 -0.117188 C 1.132812 -0.304688 0.835938 -0.226562 0.855469 -0.679688 L 0.945312 -3.226562 L 2.160156 -0.3125 C 2.183594 -0.253906 2.234375 -0.226562 2.34375 -0.25 C 2.425781 -0.273438 2.460938 -0.304688 2.496094 -0.367188 L 3.824219 -3.265625 L 3.886719 -0.707031 C 3.898438 -0.253906 3.578125 -0.324219 3.578125 -0.125 C 3.578125 -0.0273438 3.667969 0 3.859375 0 L 4.476562 0 C 4.644531 0 4.726562 -0.0273438 4.726562 -0.125 C 4.726562 -0.328125 4.417969 -0.25 4.410156 -0.707031 Z M 4.324219 -3.316406 "/></g></g></g><g fill="#201e1e" fill-opacity="1"><g transform="translate(202.647178, 228.342115)"><g><path d="M 0.519531 -3.960938 C 0.328125 -3.960938 0.238281 -3.949219 0.238281 -3.847656 C 0.238281 -3.640625 0.578125 -3.820312 0.578125 -3.1875 L 0.578125 -0.820312 C 0.578125 -0.175781 0.238281 -0.324219 0.238281 -0.113281 C 0.238281 -0.0273438 0.328125 0 0.519531 0 L 1.144531 0 C 1.339844 0 1.421875 -0.0273438 1.421875 -0.113281 C 1.421875 -0.324219 1.097656 -0.175781 1.097656 -0.820312 L 1.097656 -1.148438 C 1.097656 -1.257812 1.101562 -1.261719 1.210938 -1.261719 L 1.691406 -1.261719 C 2.824219 -1.261719 3.402344 -1.738281 3.402344 -2.5625 C 3.402344 -3.328125 2.757812 -3.960938 1.535156 -3.960938 Z M 1.675781 -1.511719 C 1.15625 -1.511719 1.097656 -1.566406 1.097656 -1.675781 L 1.097656 -3.558594 C 1.097656 -3.679688 1.144531 -3.710938 1.523438 -3.710938 C 2.308594 -3.710938 2.835938 -3.179688 2.835938 -2.457031 C 2.835938 -1.738281 2.347656 -1.511719 1.675781 -1.511719 Z M 1.675781 -1.511719 "/></g></g></g><g fill="#201e1e" fill-opacity="1"><g transform="translate(206.714642, 228.342115)"><g><path d="M 0.898438 -1.023438 C 0.960938 -1.195312 0.960938 -1.195312 1.820312 -1.195312 C 2.636719 -1.195312 2.636719 -1.195312 2.699219 -1.03125 L 2.839844 -0.671875 C 3.015625 -0.230469 2.664062 -0.292969 2.664062 -0.109375 C 2.664062 -0.0273438 2.757812 0 2.890625 0 L 3.554688 0 C 3.75 0 3.832031 -0.0273438 3.832031 -0.125 C 3.832031 -0.292969 3.597656 -0.210938 3.414062 -0.671875 L 2.15625 -3.859375 C 2.132812 -3.925781 2.082031 -3.960938 2.007812 -3.960938 L 1.492188 -3.960938 C 1.371094 -3.960938 1.335938 -3.917969 1.335938 -3.84375 C 1.335938 -3.660156 1.65625 -3.699219 1.535156 -3.390625 L 0.464844 -0.667969 C 0.277344 -0.191406 -0.00390625 -0.292969 -0.00390625 -0.109375 C -0.00390625 -0.0234375 0.0898438 0 0.230469 0 L 0.691406 0 C 0.808594 0 0.898438 -0.0234375 0.898438 -0.117188 C 0.898438 -0.289062 0.582031 -0.210938 0.757812 -0.667969 Z M 1.828125 -1.4375 C 1.058594 -1.4375 1.058594 -1.4375 1.109375 -1.566406 L 1.792969 -3.339844 L 2.484375 -1.585938 C 2.539062 -1.4375 2.539062 -1.4375 1.828125 -1.4375 Z M 1.828125 -1.4375 "/></g></g></g><g fill="#201e1e" fill-opacity="1"><g transform="translate(211.121505, 228.342115)"><g><path d="M 3.421875 -3.960938 C 3.25 -3.960938 3.167969 -3.9375 3.167969 -3.84375 C 3.167969 -3.65625 3.46875 -3.734375 3.476562 -3.28125 L 3.480469 -1.082031 L 0.929688 -3.871094 C 0.871094 -3.933594 0.828125 -3.960938 0.753906 -3.960938 L 0.496094 -3.960938 C 0.304688 -3.960938 0.214844 -3.949219 0.214844 -3.847656 C 0.214844 -3.640625 0.554688 -3.820312 0.554688 -3.1875 L 0.554688 -0.679688 C 0.554688 -0.226562 0.253906 -0.304688 0.253906 -0.117188 C 0.253906 -0.0273438 0.339844 0 0.496094 0 L 0.882812 0 C 1.058594 0 1.136719 -0.0234375 1.136719 -0.117188 C 1.136719 -0.304688 0.832031 -0.226562 0.832031 -0.679688 L 0.820312 -3.214844 L 3.339844 -0.488281 C 3.441406 -0.367188 3.484375 -0.253906 3.484375 -0.136719 C 3.484375 -0.0625 3.53125 0 3.609375 0 C 3.699219 0 3.75 -0.046875 3.75 -0.175781 L 3.75 -3.28125 C 3.75 -3.734375 4.050781 -3.65625 4.050781 -3.84375 C 4.050781 -3.9375 3.96875 -3.960938 3.804688 -3.960938 Z M 3.421875 -3.960938 "/></g></g></g><g fill="#201e1e" fill-opacity="1"><g transform="translate(215.907365, 228.342115)"><g><path d="M 3.042969 -3.960938 C 2.925781 -3.960938 2.835938 -3.9375 2.835938 -3.84375 C 2.835938 -3.671875 3.113281 -3.75 2.875 -3.371094 L 2.054688 -2.046875 L 1.195312 -3.320312 C 0.933594 -3.710938 1.308594 -3.671875 1.308594 -3.855469 C 1.308594 -3.9375 1.214844 -3.960938 1.082031 -3.960938 L 0.292969 -3.960938 C 0.109375 -3.960938 0.0273438 -3.9375 0.0273438 -3.84375 C 0.0273438 -3.671875 0.265625 -3.734375 0.550781 -3.328125 L 1.636719 -1.753906 L 1.636719 -0.820312 C 1.636719 -0.175781 1.300781 -0.324219 1.300781 -0.113281 C 1.300781 -0.0273438 1.390625 0 1.578125 0 L 2.203125 0 C 2.40625 0 2.484375 -0.0273438 2.484375 -0.113281 C 2.484375 -0.324219 2.15625 -0.175781 2.15625 -0.820312 L 2.15625 -1.75 L 3.191406 -3.371094 C 3.445312 -3.769531 3.734375 -3.667969 3.734375 -3.855469 C 3.734375 -3.9375 3.640625 -3.960938 3.496094 -3.960938 Z M 3.042969 -3.960938 "/></g></g></g></svg>